<svg id="Grupo_1" data-name="Grupo 1" xmlns="http://www.w3.org/2000/svg" xmlns:xlink="http://www.w3.org/1999/xlink" width="143.957" height="132.529" viewBox="0 0 143.957 132.529">
  <defs>
    <clipPath id="clip-path">
      <rect id="Rectángulo_490" data-name="Rectángulo 490" width="143.957" height="132.529" fill="#aeaeae"/>
    </clipPath>
  </defs>
  <path id="Trazado_337" data-name="Trazado 337" d="M12.5,449.784,0,470.6H5.991l1.86-3.04H20.637l-2.307-4.023H10.157l4.882-9.031.84.071L24.732,470.6h5.776L18.866,449.784Z" transform="translate(0 -338.07)" fill="#aeaeae"/>
  <g id="Grupo_536" data-name="Grupo 536">
    <g id="Grupo_535" data-name="Grupo 535" clip-path="url(#clip-path)">
      <path id="Trazado_338" data-name="Trazado 338" d="M125.856,456.079v8.512a6.106,6.106,0,0,0,6.134,6.116H149.1V466.7H132.669a1.786,1.786,0,0,1-1.806-1.788v-9.156a1.79,1.79,0,0,1,1.806-1.806l16.434-.018v-4.006H131.99a6.148,6.148,0,0,0-6.134,6.152" transform="translate(-94.597 -338.178)" fill="#aeaeae"/>
      <path id="Trazado_339" data-name="Trazado 339" d="M253.132,465.128a1.836,1.836,0,0,1-1.806,1.806h-10.8a1.809,1.809,0,0,1-1.788-1.806v-15.2h-5.025v14.664a6.105,6.105,0,0,0,6.134,6.116h12.161a6.144,6.144,0,0,0,6.151-6.116V449.928h-5.025Z" transform="translate(-175.664 -338.178)" fill="#aeaeae"/>
      <path id="Trazado_340" data-name="Trazado 340" d="M145.389,101.074c24.75-3.952,38.734-19.045,38.734-49.982,0-30.955-13.984-46.048-38.734-50a100.554,100.554,0,0,0-29.542,0c-24.732,3.952-38.734,19.045-38.734,50,0,30.937,14,46.03,38.734,49.982a102.235,102.235,0,0,0,29.542,0m0-96.1C162.878,8.745,177.2,20.69,177.2,51.091c0,23.1-8.28,35.533-19.94,41.828l-6.581-44.224-5.293-14.914L134.677,3.612a66.207,66.207,0,0,1,10.712,1.359M128.6,3.523c.68-.018,1.341-.036,2.021-.036.662,0,1.341.018,2.021.036l.59,36.856h-5.222ZM84.033,51.091c0-30.4,14.324-42.346,31.813-46.12a66.207,66.207,0,0,1,10.712-1.359L115.846,33.781l-5.293,14.914-6.581,44.224c-11.66-6.3-19.939-18.723-19.939-41.828m31.813,46.1a46.625,46.625,0,0,1-10.73-3.666l10.73-22.264L127.47,47.139h6.295l11.624,24.124,10.73,22.264a46.624,46.624,0,0,1-10.73,3.666,75.142,75.142,0,0,1-29.542,0" transform="translate(-57.96 0)" fill="#aeaeae"/>
      <path id="Trazado_341" data-name="Trazado 341" d="M472.647,454.576,481.5,470.6h5.776l-11.624-20.816h-6.384l-12.5,20.816h5.991l1.86-3.04h12.8l-2.307-4.024h-8.19l4.882-9.031Z" transform="translate(-343.319 -338.07)" fill="#aeaeae"/>
      <path id="Trazado_342" data-name="Trazado 342" d="M368.327,449.875l-19.3-.018h-.984v20.8h5.007V453.88h13.913a1.5,1.5,0,0,1,1.485,1.466v2.933a1.5,1.5,0,0,1-1.485,1.466H354.879l1.091,4.006,11,.018a1.488,1.488,0,0,1,1.485,1.467v5.418h4.685V465.54c-.018-1.52-1.091-3.451-2.575-3.773a3.6,3.6,0,0,0,2.9-3.147v-3.612a5.155,5.155,0,0,0-5.132-5.132" transform="translate(-261.603 -338.125)" fill="#aeaeae"/>
    </g>
  </g>
</svg>
