<svg xmlns="http://www.w3.org/2000/svg" width="128.532" height="124.216" viewBox="0 0 128.532 124.216">
  <g id="Grupo_491" data-name="Grupo 491" transform="translate(0 1.632)">
    <g id="Grupo_209" data-name="Grupo 209" transform="translate(0)">
      <g id="Grupo_207" data-name="Grupo 207">
        <path id="Trazado_178" data-name="Trazado 178" d="M-1076.453,321.862v49.195a11.282,11.282,0,0,0,5.639,9.767l42.6,24.6a11.276,11.276,0,0,0,11.287,0l42.6-24.6a11.276,11.276,0,0,0,5.643-9.767V321.862a11.284,11.284,0,0,0-5.643-9.772l-42.6-24.6a11.3,11.3,0,0,0-11.287,0l-42.6,24.6A11.29,11.29,0,0,0-1076.453,321.862Z" transform="translate(1095.715 -285.983)" fill="#fff" stroke="#a9af93" stroke-width="3"/>
        <ellipse id="Elipse_15" data-name="Elipse 15" cx="20.803" cy="20.803" rx="20.803" ry="20.803" transform="translate(0 8.935)" fill="#89aa14"/>
        <text id="_01" data-name="01" transform="translate(19.109 36.532)" fill="#fff" font-size="22" font-family="SegoeUI-Bold, Segoe UI" font-weight="700" letter-spacing="-0.036em"><tspan x="-12" y="0">01</tspan></text>
      </g>
      <g id="Grupo_208" data-name="Grupo 208" transform="translate(39.218 28.346)">
        <path id="Trazado_179" data-name="Trazado 179" d="M-440.572,363.241a6.953,6.953,0,0,0-6.945-6.944,6.952,6.952,0,0,0-6.944,6.944,6.953,6.953,0,0,0,6.944,6.945,6.953,6.953,0,0,0,6.945-6.945Zm-11.64,0a4.7,4.7,0,0,1,4.7-4.7,4.7,4.7,0,0,1,4.7,4.7,4.7,4.7,0,0,1-4.7,4.7,4.7,4.7,0,0,1-4.7-4.7Zm0,0" transform="translate(466.979 -321.105)" fill="#afd625" stroke="#afd625" stroke-width="1.5"/>
        <path id="Trazado_180" data-name="Trazado 180" d="M-471.773,447.316l-6.22.043a9.7,9.7,0,0,0-9.47,7.461,1.124,1.124,0,0,0,.831,1.355,1.125,1.125,0,0,0,1.356-.831,7.463,7.463,0,0,1,7.29-5.736l6.22-.042a7.5,7.5,0,0,1,7.489,7.488v4.817h-3.791V457.5a1.125,1.125,0,0,0-1.124-1.125,1.125,1.125,0,0,0-1.125,1.125v4.367h-9.125V457.5a1.125,1.125,0,0,0-1.124-1.125,1.125,1.125,0,0,0-1.125,1.125v4.367h-3.79v-1.956a1.124,1.124,0,0,0-1.124-1.124,1.124,1.124,0,0,0-1.124,1.124V463a1.124,1.124,0,0,0,1.124,1.124h23.454A1.124,1.124,0,0,0-462.028,463v-5.942a9.75,9.75,0,0,0-9.745-9.737Zm0,0" transform="translate(494.345 -395.971)" fill="#afd625" stroke="#afd625" stroke-width="1.5"/>
        <path id="Trazado_181" data-name="Trazado 181" d="M-277.033,363.241a6.953,6.953,0,0,0-6.945-6.944,6.953,6.953,0,0,0-6.944,6.944,6.953,6.953,0,0,0,6.944,6.945,6.953,6.953,0,0,0,6.945-6.945Zm-11.64,0a4.7,4.7,0,0,1,4.7-4.7,4.7,4.7,0,0,1,4.7,4.7,4.7,4.7,0,0,1-4.7,4.7,4.7,4.7,0,0,1-4.7-4.7Zm0,0" transform="translate(332.464 -321.105)" fill="#afd625" stroke="#afd625" stroke-width="1.5"/>
        <path id="Trazado_182" data-name="Trazado 182" d="M-308.227,447.316h-.008l-6.22.043a9.748,9.748,0,0,0-9.737,9.737V463a1.124,1.124,0,0,0,1.124,1.124h23.454A1.124,1.124,0,0,0-298.489,463v-5.942a9.749,9.749,0,0,0-9.737-9.737Zm7.488,14.555h-3.791V457.5a1.125,1.125,0,0,0-1.124-1.125,1.125,1.125,0,0,0-1.124,1.125v4.367H-315.9V457.5a1.125,1.125,0,0,0-1.124-1.125,1.125,1.125,0,0,0-1.124,1.125v4.367h-3.791V457.1a7.5,7.5,0,0,1,7.5-7.489l6.224-.042a7.5,7.5,0,0,1,7.485,7.488Zm0,0" transform="translate(359.829 -395.971)" fill="#afd625" stroke="#afd625" stroke-width="1.5"/>
        <path id="Trazado_183" data-name="Trazado 183" d="M-284.094,205.994a1.327,1.327,0,0,1,0,1.877,1.328,1.328,0,0,1-1.878,0,1.328,1.328,0,0,1,0-1.877,1.328,1.328,0,0,1,1.878,0Zm0,0" transform="translate(328.712 -197.157)" fill="#afd625" stroke="#afd625" stroke-width="1.5"/>
        <path id="Trazado_184" data-name="Trazado 184" d="M-235.471,206.748a1.328,1.328,0,0,1-1.1,1.523,1.328,1.328,0,0,1-1.523-1.1,1.328,1.328,0,0,1,1.1-1.523,1.328,1.328,0,0,1,1.523,1.1Zm0,0" transform="translate(289.024 -197.179)" fill="#afd625" stroke="#afd625" stroke-width="1.5"/>
        <path id="Trazado_185" data-name="Trazado 185" d="M-187.161,206.91a1.328,1.328,0,0,1-1.328,1.328,1.328,1.328,0,0,1-1.328-1.328,1.328,1.328,0,0,1,1.328-1.328,1.328,1.328,0,0,1,1.328,1.328Zm0,0" transform="translate(249.302 -197.138)" fill="#afd625" stroke="#afd625" stroke-width="1.5"/>
        <path id="Trazado_186" data-name="Trazado 186" d="M-458.838,158h-7.172a1,1,0,0,0-1,1,1,1,0,0,0,1,1h6.973v15.56h-3.518a1,1,0,0,0-.991.892,6.5,6.5,0,0,1-4.157,5.263,18.561,18.561,0,0,0,.684-5.165,1,1,0,0,0-1-.991h-17.009v-6.934a1.8,1.8,0,0,0-1.793-1.793h-8.211v-6.833h24.372a1,1,0,0,0,1-1,1,1,0,0,0-1-1h-24.572a1.8,1.8,0,0,0-1.793,1.793v7.032h-26.187A1.8,1.8,0,0,0-525,168.618v15.958a1.8,1.8,0,0,0,1.793,1.793h2.868a8.855,8.855,0,0,0,5.653,6.18,1.811,1.811,0,0,0,.678.133,1.774,1.774,0,0,0,1.229-.5,1.776,1.776,0,0,0,.456-1.89,14.842,14.842,0,0,1-.686-3.925h26.192a1.8,1.8,0,0,0,1.793-1.793v-7.032h15.988a14.8,14.8,0,0,1-.686,3.927,1.777,1.777,0,0,0,.456,1.89,1.774,1.774,0,0,0,1.229.5,1.81,1.81,0,0,0,.678-.133,8.853,8.853,0,0,0,5.653-6.182h2.868a1.8,1.8,0,0,0,1.793-1.794V159.793A1.8,1.8,0,0,0-458.838,158Zm-28.179,26.378H-514.03a1,1,0,0,0-1,.991,18.553,18.553,0,0,0,.684,5.163,6.5,6.5,0,0,1-4.157-5.262,1,1,0,0,0-.991-.892h-3.518v-15.56h35.99Zm0,0" transform="translate(525 -158)" fill="#afd625" stroke="#afd625" stroke-width="1.5"/>
        <path id="Trazado_187" data-name="Trazado 187" d="M-489.586,256.637a1.328,1.328,0,0,1-1.328,1.328,1.328,1.328,0,0,1-1.328-1.328,1.328,1.328,0,0,1,1.328-1.328,1.328,1.328,0,0,1,1.328,1.328Zm0,0" transform="translate(498.056 -238.039)" fill="#afd625" stroke="#afd625" stroke-width="1.5"/>
        <path id="Trazado_188" data-name="Trazado 188" d="M-441.389,256.111a1.328,1.328,0,0,1-.718,1.736,1.328,1.328,0,0,1-1.735-.719,1.328,1.328,0,0,1,.718-1.735,1.328,1.328,0,0,1,1.735.718Zm0,0" transform="translate(458.329 -238.025)" fill="#afd625" stroke="#afd625" stroke-width="1.5"/>
        <path id="Trazado_189" data-name="Trazado 189" d="M-393.072,256.637a1.327,1.327,0,0,1-1.327,1.328,1.327,1.327,0,0,1-1.328-1.328,1.328,1.328,0,0,1,1.328-1.328,1.328,1.328,0,0,1,1.327,1.328Zm0,0" transform="translate(418.669 -238.039)" fill="#afd625" stroke="#afd625" stroke-width="1.5"/>
        <path id="Trazado_190" data-name="Trazado 190" d="M-344.864,256.08a1.329,1.329,0,0,1-.718,1.736,1.329,1.329,0,0,1-1.736-.718,1.329,1.329,0,0,1,.718-1.736,1.329,1.329,0,0,1,1.736.718Zm0,0" transform="translate(378.935 -237.999)" fill="#afd625" stroke="#afd625" stroke-width="1.5"/>
      </g>
    </g>
  </g>
</svg>
