<svg xmlns="http://www.w3.org/2000/svg" width="113.943" height="71.596" viewBox="0 0 113.943 71.596">
  <g id="Grupo_529" data-name="Grupo 529" transform="translate(0)">
    <g id="Grupo_326" data-name="Grupo 326" transform="translate(0 0)">
      <path id="Trazado_276" data-name="Trazado 276" d="M-155.26,409.928a33.067,33.067,0,0,0-.365-3.55,1.082,1.082,0,0,0-.022-.177l0-.031h0c-.226-1.989-1.3-7.518-6.4-9.658l-.072-.027c-.017-.009-.037-.016-.052-.025a24.66,24.66,0,0,0-7.1-1.775c-3.659-.5-7.3-.769-10.953-.935-.6-.029-1.193-.056-1.765-.078-.476-.017-.954-.037-1.432-.051-.183-.005-.365-.014-.548-.02h-.114c-2.684-.076-4.758-.08-5.615-.08-.309,0-.787,0-1.388.005h-.039l-.564.005h-.117c-.963.01-2.155.03-3.506.068h-.117c-.189.005-.379.014-.568.02-.457.014-.912.033-1.368.05-.574.022-1.172.048-1.778.078-3.665.166-7.317.439-11,.936a24.682,24.682,0,0,0-7.088,1.775.4.4,0,0,1-.11.048l-.01,0c-4.984,2.091-6.126,7.419-6.385,9.515,0,.014,0,.031-.008.039-.026.117-.026.222-.039.313-.2,1.188-.287,2.376-.365,3.55a80.583,80.583,0,0,0-.02,8.291c0,.106,0,.209.007.316v.2c0,.269.017.543.03.814,0,.088,0,.17.008.257.043,1.223.117,2.494.211,3.779,0,.068.008.133.012.2a.637.637,0,0,0,.008.086c0,.068.008.133.013.2,0,.03.005.059.005.091a73.739,73.739,0,0,0,1.88,13.2,22.419,22.419,0,0,0,1.279,3.8.458.458,0,0,0,.078.183c.026.065.052.131.078.183,0,.007.008.012.012.018a9.649,9.649,0,0,0,1.331,2.346,9.979,9.979,0,0,0,1.848,1.656,12.025,12.025,0,0,0,1.053.715l.023.016c.013.009.029.016.042.024.107.068.219.128.324.185.084.047.174.086.261.13.13.065.258.133.392.2a.276.276,0,0,0,.091.039c.026.013.039.026.065.039a1.078,1.078,0,0,0,.17.091c3.929,1.788,8.458,1.945,12.7,2.206,4.164.261,8.354.418,12.544.431,4.19-.013,8.38-.17,12.544-.431,4.229-.261,8.771-.418,12.687-2.206.026-.026.065-.026.1-.052s.065-.026.091-.039l.026-.026a.466.466,0,0,0,.117-.052,2.755,2.755,0,0,0,.339-.17h0a10.916,10.916,0,0,0,3.605-2.752,9.951,9.951,0,0,0,1.427-2.564l.005-.009c0-.013.013-.013.013-.026a1.276,1.276,0,0,0,.065-.144,23.019,23.019,0,0,0,1.266-3.785,68.171,68.171,0,0,0,1.788-11.943c0-.078.013-.144.013-.222l.005-.068c.025-.319.048-.646.073-.963,0-.047,0-.091.008-.134.007-.074.01-.149.017-.223v-.037c.1-1.347.18-2.682.226-3.964.009-.243.014-.477.021-.715l.013-.343v-.013A86.252,86.252,0,0,0-155.26,409.928ZM-159,412.961c-.023-2.634-.157-6.281-.7-7.654a11.8,11.8,0,0,0-1.834-3.3,11.641,11.641,0,0,1,1.834,3.3c.548,1.371.679,5.025.7,7.649v.444c-.013-.235-.013-.444-.026-.653v-.055l.005.061c.007.2.013.415.021.646C-158.995,413.261-159,413.107-159,412.961Zm-.748-6.389c-.037-.219-.073-.426-.11-.612-.02-.124-.048-.242-.076-.36.027.119.055.238.078.363C-159.817,406.147-159.78,406.354-159.745,406.572Zm-.658-4.92c-.009,0-.02.01-.029.02l.025-.02c-.005-.01-.039-.061-.1-.14C-160.445,401.591-160.41,401.642-160.4,401.652Zm-.076.051h0a11.437,11.437,0,0,0-4.2-3.054,12.568,12.568,0,0,0-3.785-.7.285.285,0,0,0-.141.061.264.264,0,0,1,.14-.067,12.93,12.93,0,0,1,3.788.7A11.452,11.452,0,0,1-160.479,401.7Zm-1.053.349c-.063-.091-.129-.2-.189-.282l.008.01C-161.656,401.86-161.592,401.963-161.532,402.052Zm-10.7-5.438a28.02,28.02,0,0,1,7.157,1.5,28.326,28.326,0,0,0-7.156-1.5l-.063,0Zm3.576,1.523v0l-.4-.294C-168.933,397.931-168.8,398.026-168.652,398.137Zm-1.188-.61-.014-.006.007,0Zm-.679-.287c.157.065.3.117.392.157a.444.444,0,0,1,.1.039,1.194,1.194,0,0,0,.163.082c-.055-.026-.107-.052-.17-.078l-.031-.013-.067-.03-.035-.012c-.111-.046-.275-.112-.459-.181C-170.588,397.217-170.55,397.225-170.519,397.24Zm-.107-.163c.048.016.106.031.149.046l.023.008-.026-.008C-170.531,397.106-170.576,397.094-170.626,397.077Zm-.668-.1-.01,0h0Zm-1.451-.393.029.007c.456.09.8.164,1.1.231-.3-.065-.651-.14-1.1-.226a.165.165,0,0,0-.078-.013Zm-5.983,30.294c-.151.209-.3.4-.449.585.148-.185.295-.376.445-.585,1.765-2.463,1.84-6.13,3.383-12.811.035-.15.069-.3.1-.448,1.628-7,2.463-11.341,2.885-13.849.213-1.256.32-2.041.373-2.477-.052.435-.161,1.219-.372,2.475-.418,2.506-1.253,6.853-2.885,13.849-.039.157-.065.3-.1.457C-176.889,420.748-176.967,424.416-178.729,426.883Zm1.136,19.6v.02a.142.142,0,0,0-.013-.065.039.039,0,0,1,.009.027Zm-.081-.39-.021-.09.01.03A.194.194,0,0,0-177.674,446.091Zm-.115-.517v.005l-.013-.057C-177.8,445.539-177.8,445.558-177.789,445.575Zm-.62-2.523c.044.175.089.345.131.51.106.428.208.859.317,1.325a.04.04,0,0,0-.01-.03l-.157-.666c-.039-.2-.1-.4-.157-.627-.039-.17-.078-.339-.131-.509-.007-.034-.013-.061-.02-.094Zm-.005-.03c.013.046.025.094.038.138s.027.11.04.159c-.013-.05-.029-.107-.04-.154S-178.4,443.068-178.415,443.021Zm-.437-1.651c-.433-1.544-.809-2.694-1.278-3.984-.021-.059-.04-.121-.061-.179.5,1.358.888,2.545,1.344,4.164.108.377.194.722.278,1.053C-178.655,442.093-178.747,441.749-178.852,441.37Zm.061.312-.017-.063c-.039-.157-.078-.326-.131-.483l-.046-.154c.014.052.034.107.048.159C-178.879,441.343-178.834,441.518-178.79,441.682Zm-19.962-5.7-.078.2c-.117.313-.222.6-.326.875-.261.731-.509,1.514-.809,2.4.29-.871.539-1.642.794-2.357l.016-.044.013-.035c.1-.262.194-.529.3-.811l.012-.029.005-.013C-198.8,436.1-198.778,436.037-198.752,435.981Zm-.069.171a.858.858,0,0,0,.043-.132c0-.008.009-.017.017-.025l-.012.023C-198.79,436.066-198.806,436.107-198.821,436.152Zm-1,9.573.005.021a.474.474,0,0,1,0-.115l0,.022v-.026a1.114,1.114,0,0,1,.039-.17c.078-.3.157-.6.248-.9.052-.183.1-.379.17-.574.509-1.645,1.266-4.072,1.5-4.856.013-.052.026-.091.039-.144s.039-.1.039-.1.013-.039.013-.052c.2-.535.4-1.109.666-1.749a5.4,5.4,0,0,1,1.958-2.48,5.171,5.171,0,0,1,1.279-.574c.209-.039.418-.091.64-.13.444-.091.914-.157,1.4-.209.627-.039,1.331-.065,2.128-.065s1.488.013,2.115.065c.483.052.966.117,1.4.209.248.052.483.091.692.144a5.464,5.464,0,0,1,1.253.561,5.48,5.48,0,0,1,1.958,2.48c.209.535.392,1.031.561,1.488a2.829,2.829,0,0,0,.091.313s1.11,3.563,1.7,5.469c.078.248.144.47.209.7.039.13.078.274.1.4.013.013.013.052.026.078a.4.4,0,0,1,0,.248.286.286,0,0,1-.089.1h-20.02a.267.267,0,0,1-.084-.091c-.013-.013-.013-.039-.026-.052Zm1.605-10.84c.052-.078.091-.157.13-.222-.037.057-.07.124-.106.188A.317.317,0,0,0-198.217,434.884Zm1.2-1.449c.074-.064.153-.127.234-.187s.18-.12.273-.179a5.147,5.147,0,0,0-.586.431C-197.071,433.479-197.043,433.458-197.016,433.436Zm-.107.085c-.02.017-.044.029-.063.046a5.042,5.042,0,0,1,.4-.339c.031-.027.064-.039.094-.063A4.547,4.547,0,0,0-197.123,433.52Zm-.737-7.131a6.433,6.433,0,0,0,1.354,1.107l.052.031-.051-.027A6.465,6.465,0,0,1-197.861,426.39Zm1.825,1.348c-.047-.021-.093-.043-.138-.065l.137.059a12.736,12.736,0,0,0,4.721.843A12.655,12.655,0,0,1-196.036,427.738Zm2.369,4.279-.14.026-.06.012.061-.016C-193.763,432.03-193.71,432.026-193.667,432.017Zm-.32.061-.027.007c-.226.047-.431.1-.634.159.2-.057.406-.114.634-.166Zm-1.243.354c-.112.04-.232.076-.338.12-.038.013-.074.025-.111.039s-.094.046-.142.065l-.048.023-.009,0,.01-.005c.013-.013.026-.013.052-.026a.612.612,0,0,0,.131-.065l.117-.039C-195.463,432.508-195.34,432.471-195.229,432.432Zm14.333-3.294c.112-.078.219-.17.329-.256-.11.087-.217.18-.329.26-1.814,1.266-4.151,2.088-8.745,2.584h-.034C-185.062,431.223-182.714,430.407-180.9,429.137Zm-3.6-1.017a7.625,7.625,0,0,0,1.1-.376c.05-.018.1-.044.154-.068-.052.025-.1.051-.157.074A7.742,7.742,0,0,1-184.5,428.12Zm1.57-.608-.073.042.069-.044a8.268,8.268,0,0,0,3.224-3.9,69.048,69.048,0,0,0,2.146-6.6c-.662,2.338-1.461,4.933-2.139,6.593A8.342,8.342,0,0,1-182.928,427.512Zm2.562,9.21-.021-.057-.026-.069c.008.021.018.043.026.064Zm-.056-.124c-.033-.085-.065-.162-.1-.252.007.013.009.025.016.038Zm-.217-.58-.01-.027,0-.008.005.01c0,.013,0,.013.013.026l.005.023Zm.008.044,0,0a1.886,1.886,0,0,0-.117-.287l-.026-.061c.016.037.037.074.05.112C-180.695,435.9-180.664,435.982-180.631,436.063Zm-.268-.62-.02-.038c-.018-.037-.03-.07-.048-.107l-.01-.018c-.021-.04-.043-.078-.065-.117a1.1,1.1,0,0,1,.068.114c0,.013,0,.013.013.026C-180.938,435.35-180.922,435.4-180.9,435.443Zm-.343-.63c.009.016.017.034.026.051a.437.437,0,0,0-.033-.044c-.022-.042-.055-.08-.08-.121C-181.3,434.737-181.267,434.773-181.242,434.813Zm-.084-.154.012.017q.022.037.039.074c-.014-.027-.029-.055-.044-.08Zm-.06-.087c-.017-.021-.034-.043-.05-.065s-.051-.067-.076-.1a1.024,1.024,0,0,1,.08.1C-181.418,434.525-181.4,434.549-181.385,434.571Zm-.473-.617-.022-.025c-.02-.022-.043-.042-.063-.063l-.01-.013.078.078A.142.142,0,0,0-181.858,433.954Zm-.291-.3-.014-.012-.03-.03C-182.179,433.631-182.163,433.643-182.149,433.657Zm-.333-.3c-.108-.091-.221-.176-.334-.26.047.037.1.064.145.1C-182.6,433.254-182.544,433.306-182.482,433.359Zm-.583-.432a3.667,3.667,0,0,0-.667-.335c-.048-.018-.1-.033-.142-.051-.067-.026-.142-.048-.21-.073.069.025.145.039.213.068a.468.468,0,0,0,.144.052A3.414,3.414,0,0,1-183.065,432.926Zm-2.459-.864c-.091-.02-.179-.04-.277-.057l-.067-.013a.331.331,0,0,0,.064.008C-185.706,432.021-185.616,432.042-185.524,432.062Zm-.546-.1c-.332-.055-.7-.1-1.107-.133.089.005.18.008.264.014.17.026.339.039.5.065Zm-2.165-.2h.017c-.129-.01-.258-.012-.388-.01C-188.486,431.76-188.352,431.758-188.235,431.763Zm-.171-.012h0Zm11.635-17.673c.345-1.509.663-2.864.955-4.131C-176.106,411.216-176.421,412.58-176.771,414.078Zm3-13.564c-.594,2.8-1.305,6.079-1.837,8.512-.029.124-.059.257-.087.384.027-.125.056-.252.084-.382C-175.08,406.587-174.367,403.311-173.769,400.514Zm-.9-2.921-.008-.034.009.031c.311-.181.6-.359.82-.493C-174.065,397.232-174.355,397.413-174.67,397.593Zm1.671-.927s.509.065,1.214.235h.039c.008,0,.022.005.031.005-.021,0-.047-.005-.065,0h-.007C-172.49,396.735-173,396.666-173,396.666Zm-.131-.117a.565.565,0,0,1,.065.013.289.289,0,0,1,.065.039l-.005,0a.267.267,0,0,0-.119-.051l-1.573.91Zm-31.4.835c.013,0,.013-.013.026-.013-.009,0-.013.009-.022.013l.171-.039h.008q.1-.02.235-.039c.065-.013.131-.013.2-.026.313-.039.718-.078,1.253-.144.392-.039.848-.078,1.344-.117.261-.026.535-.039.848-.052l.731-.039c.261-.013.535-.013.822-.026,5.326-.183,9.019-.209,9.215-.209s3.9.026,9.215.209c.274.013.548.013.8.026l.718.039c.3.013.587.026.848.052q.764.059,1.371.117l.379.039c.117.013.235.026.339.039.209.026.392.052.548.065a.77.77,0,0,1,.183.026.469.469,0,0,1,.144.026.683.683,0,0,1,.183.026.838.838,0,0,1,.091.026.013.013,0,0,0-.013-.013l.02.012a.861.861,0,0,1,.084.022c.007,0,.005.008.012.01l-.01-.005a.189.189,0,0,0-.091-.026.312.312,0,0,1,.222.339c-.091.418-.248,1.044-.444,1.814-.065.261-.144.535-.209.809q-.176.724-.392,1.527c-1.057,4.02-2.167,8.458-3.211,12.309-.078.3-.17.614-.261.94-.078.261-.144.535-.222.8a2.636,2.636,0,0,1-.091.3,31.609,31.609,0,0,1-2.885,7.153.286.286,0,0,1-.039.065,6.585,6.585,0,0,1-4.164,2.741,23.716,23.716,0,0,1-3.12.144,24.049,24.049,0,0,1-3.133-.144,6.63,6.63,0,0,1-4.138-2.715c0-.013-.013-.013-.013-.026l-.013-.013c-1.344-2.075-2.48-5.691-3.315-8.654-1.188-4.32-2.467-9.515-3.655-14.006-.039-.17-.091-.326-.131-.5-.274-1.109-.509-2.023-.64-2.558A.326.326,0,0,1-204.534,397.384Zm3.485,45.8c.052-.17.091-.352.144-.548s.1-.379.157-.587c.048-.155.1-.332.145-.5-.047.174-.1.347-.14.51C-200.852,442.45-200.955,442.834-201.049,443.186Zm.052-.157c-.082.329-.162.649-.24.974.078-.324.157-.645.239-.971Zm-.812,3.4,0,.018c-.005.025-.014.069-.02.085-.013.052,0,.039-.013.052,0-.013.013-.026.013-.052S-201.817,446.458-201.809,446.424Zm-.359-30.564c-.223-.817-.424-1.574-.585-2.2-.271-1.168-.522-2.256-.757-3.284-.069-.32-.149-.684-.23-1.053.091.376.171.735.236,1.053.235,1.031.483,2.115.757,3.289C-202.588,414.288-202.39,415.046-202.168,415.86Zm-1.622-6.781v.007c-.048-.223-.1-.475-.155-.713C-203.894,408.611-203.84,408.856-203.79,409.079Zm-2.026,37.9.042.005c-.061,0-.133-.013-.2-.017C-205.921,446.97-205.866,446.976-205.816,446.979Zm-.376-49.1.008.042-.009-.043-.016-.082C-206.2,397.825-206.2,397.851-206.192,397.88Zm-8.68.418a28.168,28.168,0,0,1,7.688-1.684l.08,0-.076,0a28.359,28.359,0,0,0-7.692,1.682,6.889,6.889,0,0,0-.629.286A6.544,6.544,0,0,1-214.872,398.3Zm7.321-1.525c-.089.021-.181.042-.26.063s-.157.039-.235.052c-.3.065-.522.131-.7.183a.647.647,0,0,0-.209.065.136.136,0,0,0-.025.005c.043-.016.086-.029.129-.043C-208.572,397.009-208.183,396.909-207.551,396.773Zm-1.506.393-.02.009c-.209.078-.379.157-.613.248a.3.3,0,0,0-.157.078c-.2.117-.47.313-.914.64h0a6.957,6.957,0,0,1,1.068-.718C-209.455,397.323-209.28,397.245-209.057,397.166Zm-1.719.867c-.02-.035-.064-.067-.167-.087a12.642,12.642,0,0,0-3.785.7,9.973,9.973,0,0,0-3.335,2.163,9.961,9.961,0,0,1,3.339-2.168,12.914,12.914,0,0,1,3.787-.7C-210.836,397.963-210.795,398-210.776,398.033Zm-12.973,10.39c.048-.936.093-1.484.093-1.484s.813-7.862,6.885-9.944h.005c-6.081,2.088-6.891,9.945-6.891,9.945S-223.7,407.487-223.749,408.423Zm4.779-6.747.039.029h0c-.013-.013-.026-.013-.039-.026s-.026-.026-.039-.026a9.986,9.986,0,0,1,.88-1.073,8.991,8.991,0,0,0-.873,1.073C-218.992,401.659-218.983,401.668-218.971,401.676Zm-1,25.607a89.188,89.188,0,0,1-.556-9.262c0-.265.009-1.429.026-2-.014.574-.022,1.737-.022,2A89.845,89.845,0,0,0-219.968,427.282Zm-.456-13.691c0,.136-.005.271-.009.409v1.775c0-.262-.005-.867,0-1.654l0-.121v-.116C-220.43,413.783-220.426,413.692-220.424,413.591Zm-.009-.081v-.346l0-.01C-220.431,413.279-220.431,413.391-220.433,413.51Zm0-.363.005-.021c-.007.016-.02.035,0,.035Zm.03-.368c0,.02,0,.039-.008.059,0,.043,0,.091,0,.136s-.005.061-.008.087c0-.057.01-.133.01-.223.026-.509.039-.914.065-1.005v.02C-220.362,411.953-220.382,412.319-220.4,412.78Zm.044-.529c-.009.142-.017.279-.026.392-.005.027-.008.055-.01.081a.768.768,0,0,1,.007-.077C-220.378,412.532-220.365,412.387-220.354,412.251Zm-2.308,17.378c.995,6.489,2.427,10.618,4.095,12.894C-220.238,440.252-221.67,436.119-222.662,429.629Zm3.271,1.529c.171,1.257.346,2.386.512,3.348-.013-.065-.025-.14-.039-.2C-219.071,433.382-219.232,432.331-219.391,431.158Zm1.966,10.554a10.87,10.87,0,0,1-.671-1.163,9.213,9.213,0,0,0,.7,1.214Zm.935,1.226h0c.021.025.044.046.067.07C-216.446,442.982-216.469,442.963-216.491,442.938Zm-.047-.074c-.009-.014-.026-.027-.031-.043a1.594,1.594,0,0,1-.179-.217c.127.151.26.3.4.44C-216.412,442.981-216.479,442.928-216.538,442.864Zm.582-1.544a4.718,4.718,0,0,1-.287-.418c-.091-.13-.17-.287-.261-.431s-.17-.287-.235-.444h-.013a.391.391,0,0,1-.052-.131c-.039-.065-.052-.13-.091-.2-.2-.535-.64-1.958-.888-2.989-.065-.287-.574-3.094-.666-3.616-.091-.418-.2-.914-.287-1.475-.026-.144-.052-.3-.065-.457s-.026-.3-.052-.444a108.8,108.8,0,0,1-.927-16.225c.052-4.19-.261-9.476,2.323-13.053.026-.026.039-.052.065-.078s.013-.026.026-.039a2.758,2.758,0,0,1,.248-.3l.1-.1c.013-.026.039-.039.052-.065a.046.046,0,0,0,.013-.026l.013-.013.157-.157.026-.026a3.438,3.438,0,0,1,.613-.509,1.182,1.182,0,0,1,.209-.144,4.512,4.512,0,0,1,.535-.326c.366-.2.744-.379,1.123-.548.2-.078.392-.157.587-.222s.4-.144.613-.209c.091-.026.183-.065.274-.091q.274-.1.509-.157c.065-.026.144-.039.209-.065a1.742,1.742,0,0,0,.248-.065c.117-.026.222-.065.339-.091.013,0,.039-.013.052-.013a.7.7,0,0,1,.6.339c-.013.379-.039,2.167.026,5.273.013.339.026.7.039,1.083.026.992.065,2.1.117,3.315.013.274.026.574.039.861.026.6.052,1.214.091,1.854.026.47.052.966.078,1.462.117,2.062.274,4.333.483,6.814.039.548.091,1.109.144,1.684.013.157.026.313.039.483q.137,1.664.313,3.446c.039.365.065.679.091.953.013.091.013.17.026.261l.039.431a1.345,1.345,0,0,1,.013.222c.379,4.725.822,9.45,1.423,14.162.013.13.026.261.039.379s.026.235.039.352c0,.026.013.039.013.065a2.133,2.133,0,0,0,.026.287.771.771,0,0,0,.026.183.923.923,0,0,1,.013.183,1.3,1.3,0,0,1,.026.209v.039c.013.065.013.117.026.183s.013.117.013.183a.635.635,0,0,1,.013.157c.026.17.039.326.052.47.039.287.052.535.078.731v.039a.875.875,0,0,1-.9.966,11.233,11.233,0,0,1-1.958-.352,19.767,19.767,0,0,1-4.738-2.584C-215.355,442.037-215.655,441.711-215.956,441.319Zm.483,2.624c-.094-.078-.189-.172-.285-.26.1.086.189.179.286.257a7.431,7.431,0,0,0,.685.474A7.35,7.35,0,0,1-215.473,443.943Zm2.3,1.307c-.121-.056-.264-.1-.381-.158-.052-.025-.1-.052-.147-.077-.081-.042-.155-.091-.235-.134.129.069.249.146.382.211.265.125.565.224.847.337C-212.859,445.367-213.023,445.315-213.173,445.25Zm3.06,1.034c-.166-.042-.325-.1-.488-.144.27.076.535.166.807.231C-209.908,446.346-210,446.31-210.113,446.283Zm20.408,1.629c-6.184,0-13.494.247-19.56-.911,6.067,1.156,13.378.91,19.558.91,6.243,0,13.627.253,19.721-.94C-176.081,448.166-183.466,447.912-189.705,447.912Zm27.214-8.3a1.149,1.149,0,0,1-.065.2.013.013,0,0,1-.013.013,1.554,1.554,0,0,0-.1.209,2.943,2.943,0,0,1-.144.287,3.8,3.8,0,0,1-.326.548,3.889,3.889,0,0,1-.261.378,12.482,12.482,0,0,1-.848,1.018l-.013.013a19.11,19.11,0,0,1-4.725,2.624c-.039.013-.091.026-.131.039a11.014,11.014,0,0,1-1.867.326c-.026,0-.039.013-.065,0-.013.013-.013.013-.026,0a.879.879,0,0,1-.835-.888v-.026c.013-.1.026-.222.039-.365.013-.117.026-.261.039-.4.013-.1.026-.222.039-.339l.039-.379c.013-.1.026-.209.039-.326.013-.157.026-.313.052-.483.6-4.738,1.044-9.489,1.436-14.254.026-.222.039-.444.065-.666,0-.144.026-.3.039-.509.013-.117.013-.222.026-.339.026-.222.039-.444.065-.679a1.285,1.285,0,0,1,.026-.222c.026-.17.039-.365.065-.574.039-.392.078-.783.1-1.175q.274-2.9.47-5.482c.222-2.676.379-5.078.5-7.231.065-1.24.117-2.4.157-3.472.222-5.352.157-8.406.144-8.915a.68.68,0,0,1,.6-.339c.013,0,.039.013.052.013.039.013.065.013.1.026a.306.306,0,0,0,.1.026,4.663,4.663,0,0,0,.457.131c.209.078.418.131.627.2.091.026.2.065.287.091.209.065.4.131.613.209.313.117.627.235.927.379a3.833,3.833,0,0,1,.522.248,2.985,2.985,0,0,1,.392.222,2.586,2.586,0,0,1,.4.248,1.183,1.183,0,0,1,.209.144,3.439,3.439,0,0,1,.613.509l.026.026.157.157.013.013.013.013a.568.568,0,0,1,.078.091c.065.078.17.2.287.339a.18.18,0,0,0,.039.052c-.013-.017-.027-.03-.04-.047.023.029.048.061.073.093a.538.538,0,0,1,.033.046.309.309,0,0,1,.078.117c.013.013.013.026.026.039.065.1.144.209.209.313.052.078.1.17.157.261a4.4,4.4,0,0,1,.392.731c.052.117.117.235.17.365l.157.392a3.977,3.977,0,0,1,.274.783,8.253,8.253,0,0,1,.235.809c.078.274.131.548.183.822s.1.587.144.888c.039.17.052.352.078.535v.013a1.607,1.607,0,0,1,.026.261,66.672,66.672,0,0,1,.222,6.748,110.575,110.575,0,0,1-.927,16.225q-.059.431-.117.9c-.013.052-.013.1-.026.17-.091.483-.17.927-.248,1.305-.091.522-.613,3.328-.679,3.616-.235.966-.64,2.271-.848,2.872C-162.478,439.6-162.492,439.6-162.492,439.609Zm.774,3.932c1.569-1.483,2.971-4.43,4.065-9.147C-158.745,439.115-160.146,442.063-161.717,443.541Zm6.122-26.062a99.749,99.749,0,0,0-.161-10.54,14.723,14.723,0,0,0-3.477-7.743,14.729,14.729,0,0,1,3.481,7.743A100.021,100.021,0,0,1-155.6,417.479Z" transform="translate(246.677 -393.519)" fill="#aeaeae"/>
      <path id="Trazado_277" data-name="Trazado 277" d="M-220.464,448.636c-.026-.334-.052-.538-.052-.868v-6.584c0-.389-.134-1.017.647-1.141l1.919-.2v-1.531h-10.227v1.531a9.48,9.48,0,0,1,1.974.275c.2.074.6.221.6,1.066v2.343h-8.115v-2.45a.961.961,0,0,1,.637-1.008,14.318,14.318,0,0,1,1.985-.227v-1.531h-10.335v1.531a15.993,15.993,0,0,1,2.057.235c.6.141.565.782.565,1.132v6.8c-.018.667-.018.517-.018.517,0,.594-.6.784-1.036.8l-1.568.111v1.528H-231.1v-1.528c-.322,0-1.342-.137-1.79-.2-.825-.116-.833-.613-.833-1.068v-2.246h8.115v1.931c0,.419.178,1.206-.7,1.35a18.416,18.416,0,0,1-1.868.235v1.528H-217.9v-1.528c-.61-.063-.83-.063-2-.235a.649.649,0,0,1-.566-.568Z" transform="translate(241.436 -379.845)" fill="#aeaeae"/>
      <path id="Trazado_278" data-name="Trazado 278" d="M-204.926,439.652c-2.049-1.351-4.772-1.612-7.65-1.612-2.531,0-5.55.385-7.354,1.54a6.436,6.436,0,0,0-3.013,5.256,6.792,6.792,0,0,0,2.826,5.042c1.83,1.281,4.689,1.645,7.38,1.645,2.852,0,5.466-.192,7.567-1.491a6.162,6.162,0,0,0,3.1-5.242,6.2,6.2,0,0,0-2.855-5.139Zm-12.165,6.466a4.859,4.859,0,0,1,.852-4.285c1.5-1.935,5.966-1.808,7.4.073a5.023,5.023,0,0,1,.376,5.217c-.9,1.7-2.682,2.057-4.914,1.983a3.794,3.794,0,0,1-3.711-2.988Z" transform="translate(247.081 -379.928)" fill="#aeaeae"/>
      <path id="Trazado_279" data-name="Trazado 279" d="M-191.881,438.291v1.579c2.289.017,2.536.564,2.536,2V448l-7.522-9.71h-9.454v1.531c1.158,0,2.6.449,2.6,2.008l-.017,5.607c-.082,1.526-.009,1.964-2.514,2.034V451h7.9v-1.529c-2.473-.034-2.44-.769-2.44-2.242v-5.674l7.337,9.586h7.064v-8.567a6.294,6.294,0,0,1,.12-1.611c.273-.991,1.115-1.019,2.459-1.141v-1.531Z" transform="translate(252.156 -379.851)" fill="#aeaeae"/>
      <path id="Trazado_280" data-name="Trazado 280" d="M-169.406,439.929a9.553,9.553,0,0,0-2.9-1.193,20.642,20.642,0,0,0-4.6-.419l-2.5.018h-8.875v1.527l1.74.167a.97.97,0,0,1,.758,1.083v7.3a1.065,1.065,0,0,1-.557.833,5.793,5.793,0,0,1-1.941.218v1.529l9.341.014a47.438,47.438,0,0,0,5.935-.247,7.549,7.549,0,0,0,4.816-2.56,5.745,5.745,0,0,0,1.184-3.677,5.459,5.459,0,0,0-2.4-4.593Zm-3.575,4.548c.091,1.87-.222,4.421-4.347,4.22h-3.7v-7.922h3.875a4.251,4.251,0,0,1,3,.816,3.568,3.568,0,0,1,1.179,2.886Z" transform="translate(257.662 -379.843)" fill="#aeaeae"/>
      <path id="Trazado_281" data-name="Trazado 281" d="M-168.216,438.3v1.635s3.776-.279,2.129,2.194l-3.014,4.944c-.948,1.508-1.243,2.39-3.63,2.4V451h8.175v-1.529c-1.106-.077-2.745-.275-1.83-1.683,0,0,.426-.629.423-.658l8.012.005.476.653c1.313,1.921-1.9,1.683-1.9,1.683V451h10.912v-1.529c-1.8-.034-2.168-.312-2.814-1.312l-6.828-9.868-10.107.005Zm3.4,6.71,2.758-4.293,2.826,4.293Z" transform="translate(262.41 -379.851)" fill="#aeaeae"/>
    </g>
  </g>
</svg>
