<svg id="Grupo_530" data-name="Grupo 530" xmlns="http://www.w3.org/2000/svg" width="128.634" height="30.218" viewBox="0 0 128.634 30.218">
  <g id="Grupo_327" data-name="Grupo 327" transform="translate(0 0)">
    <path id="Trazado_282" data-name="Trazado 282" d="M-1271.391,543.96q0,5.92,0,11.84c0,.23-.115.529.117.676.282.178.49-.1.7-.24q19.661-12.762,39.314-25.538a5.56,5.56,0,0,1,3.269-.958c2.711.053,5.423.015,8.135.015a2.126,2.126,0,0,1,2.427,2.395c.013,5.617,0,11.234.015,16.851a4.556,4.556,0,0,1-2.479,4.265c-3.409,1.978-6.766,4.047-10.148,6.071-.236.142-.47.435-.776.269s-.182-.524-.182-.8q-.009-9.37-.01-18.74c0-.269.162-.634-.167-.791-.273-.131-.484.159-.7.3q-14.4,9.336-28.79,18.689a4.491,4.491,0,0,1-2.523.77c-6.392-.006-12.784,0-19.176,0-1.618,0-2.4-.829-2.4-2.515q-.006-11.513,0-23.025c0-.194,0-.388,0-.581-.012-.773-.092-.82-.782-.409q-2.4,1.427-4.793,2.87l-13.866,8.332c-.781.469-.788.488-.146,1.13q6.6,6.6,13.2,13.2c.068.068.141.133.2.206.151.177.448.319.348.586-.118.315-.458.206-.706.207-4.116.006-8.232,0-12.348.006a3.305,3.305,0,0,1-2.516-1.057c-2.5-2.561-5.063-5.069-7.575-7.623a.859.859,0,0,0-1.276-.17c-4.526,2.75-9.073,5.464-13.611,8.195a4.164,4.164,0,0,1-2.193.653c-4.261-.005-8.522.009-12.784,0a2.16,2.16,0,0,1-2.44-2.4q-.008-8.353.011-16.706a4.274,4.274,0,0,1,2.242-3.947c3.5-2.067,6.97-4.176,10.455-6.264.754-.452.882-.374.883.54q0,10.423,0,20.846c0,.145-.012.291,0,.436.023.255-.115.585.135.743.271.172.487-.124.7-.253q18.011-10.806,36.015-21.624a4.27,4.27,0,0,1,2.267-.643q9.77.017,19.539.007a2.137,2.137,0,0,1,2.393,2.435Q-1271.386,538.077-1271.391,543.96Z" transform="translate(1346.042 -529.437)" fill="#aeaeae"/>
  </g>
</svg>
