<svg id="Grupo_532" data-name="Grupo 532" xmlns="http://www.w3.org/2000/svg" width="76.336" height="76.337" viewBox="0 0 76.336 76.337">
  <path id="Trazado_290" data-name="Trazado 290" d="M1161.827,125.3a38.169,38.169,0,1,0,11.179,26.988A37.919,37.919,0,0,0,1161.827,125.3Zm-26.99,63.836a36.847,36.847,0,1,1,36.848-36.848A36.608,36.608,0,0,1,1134.838,189.136Zm0-15.733a21.115,21.115,0,0,0,21.115-21.115h-21.115Zm-21.115-21.115h21.115V131.173A21.116,21.116,0,0,0,1113.723,152.288Zm21.115-35.329a35.33,35.33,0,1,0,35.329,35.329A35.33,35.33,0,0,0,1134.838,116.959Zm-5.164,1.929h2.8l2.531,6.623,2.531-6.623h2.8v9.3h-1.861V121.7l-2.45,6.493h-2.033l-2.45-6.493v6.493h-1.862Zm-23.452,15.3,4.537-5.407c.94-1.119,2.253-2.014,3.5-.966a3.281,3.281,0,0,1,1.017,1.283,2.056,2.056,0,0,1-.014,1.387,2.373,2.373,0,0,1,2.991.274c1.15,1.116.98,2.409-.113,3.712l-4.785,5.7Zm28.616,40.669a22.567,22.567,0,1,1,22.567-22.567A22.567,22.567,0,0,1,1134.838,174.855Zm21.028-34.493-1.689-2.1,3.364-4.919-.02-.025-5.511,2.268L1150.3,133.5l5.834-7.505,1.44,1.778-3.654,4.778,5.583-2.4,1.543,1.906-3.505,4.963,5.433-2.58,1.439,1.776Zm-39.32-6.456a1.168,1.168,0,0,0-1.76-1.524l-2.864,3.413,1.782,1.5Zm-3.306-3.766a1.111,1.111,0,0,0-1.488-.023l-2.726,3.248,1.686,1.415,2.7-3.211A.981.981,0,0,0,1113.24,130.141Zm21.775-4.594-.012-.035-.014.035Z" transform="translate(-1096.67 -114.12)" fill="#aeaeae"/>
</svg>
