<svg id="Grupo_2883" data-name="Grupo 2883" xmlns="http://www.w3.org/2000/svg" width="245.281" height="105.658" viewBox="0 0 245.281 105.658">
  <g id="Grupo_2833" data-name="Grupo 2833" transform="translate(0 0)">
    <g id="Grupo_544" data-name="Grupo 544" transform="translate(132.701 31.096)">
      <path id="Trazado_345" data-name="Trazado 345" d="M-4352.095,1561.827h5.385a32.639,32.639,0,0,1,6.1.368,6.953,6.953,0,0,1,3.914,2.365,6.744,6.744,0,0,1,1.509,4.461,7.224,7.224,0,0,1-1.041,3.882,6.475,6.475,0,0,1-2.97,2.53,13.614,13.614,0,0,1-5.332.875l9.72,12.551h-3.344l-11.247-15.2v15.2h-2.7Zm2.7,2.646v9.189l4.659.038a11.59,11.59,0,0,0,4-.521,4.168,4.168,0,0,0,2.026-1.645,4.569,4.569,0,0,0,.727-2.527,4.389,4.389,0,0,0-.736-2.472,4.109,4.109,0,0,0-1.934-1.59,11.761,11.761,0,0,0-3.976-.477Z" transform="translate(4354.054 -1561.798)" fill="#fff"/>
      <path id="Trazado_346" data-name="Trazado 346" d="M-4158.734,1588.825v-27.034h5.6a28.616,28.616,0,0,1,8.8.975,11.765,11.765,0,0,1,6.147,4.778,14.524,14.524,0,0,1,2.213,8.105,14.2,14.2,0,0,1-1.755,7.148,11.243,11.243,0,0,1-4.554,4.553,17.168,17.168,0,0,1-7.856,1.471Zm2.589-2.555h3.124a29.08,29.08,0,0,0,7.773-.7,8.955,8.955,0,0,0,4.795-3.571,11,11,0,0,0,1.749-6.308,11.589,11.589,0,0,0-1.894-6.685,9.543,9.543,0,0,0-5.274-3.8,31.917,31.917,0,0,0-8.36-.771h-1.914Z" transform="translate(4205.08 -1561.762)" fill="#fff"/>
      <path id="Trazado_347" data-name="Trazado 347" d="M-3953.625,1561.827h5.384a32.632,32.632,0,0,1,6.1.368,6.956,6.956,0,0,1,3.914,2.365,6.727,6.727,0,0,1,1.507,4.461,7.223,7.223,0,0,1-1.04,3.882,6.47,6.47,0,0,1-2.969,2.53,13.616,13.616,0,0,1-5.333.875l9.72,12.551h-3.343l-11.244-15.2v15.2h-2.7Zm2.7,2.646v9.189l4.657.038a11.6,11.6,0,0,0,4-.521,4.163,4.163,0,0,0,2.024-1.645,4.557,4.557,0,0,0,.726-2.527,4.38,4.38,0,0,0-.735-2.472,4.112,4.112,0,0,0-1.934-1.59,11.766,11.766,0,0,0-3.976-.477Z" transform="translate(4047.063 -1561.798)" fill="#fff"/>
      <path id="Trazado_348" data-name="Trazado 348" d="M-4261.53,1561.889h-.663l-12.771,27.032h3.014l10.08-21.289,10.03,21.289h2.917Z" transform="translate(4294.625 -1561.86)" fill="#fff"/>
      <path id="Trazado_349" data-name="Trazado 349" d="M-4056.125,1561.889h-.666l-12.772,27.033h3.016l10.08-21.289,10.03,21.289h2.915Z" transform="translate(4136.382 -1561.86)" fill="#fff"/>
      <path id="Trazado_350" data-name="Trazado 350" d="M-4349.824,1702.817l-.872.669a4.758,4.758,0,0,0-1.727-1.422,5.061,5.061,0,0,0-2.21-.484,4.891,4.891,0,0,0-2.447.634,4.552,4.552,0,0,0-1.745,1.7,4.7,4.7,0,0,0-.618,2.4,4.511,4.511,0,0,0,1.382,3.368,4.806,4.806,0,0,0,3.492,1.349,4.914,4.914,0,0,0,3.88-1.821l.87.66a5.574,5.574,0,0,1-2.061,1.625,6.462,6.462,0,0,1-2.754.573,5.728,5.728,0,0,1-4.569-1.928,5.81,5.81,0,0,1-1.4-3.931,5.456,5.456,0,0,1,1.7-4.078,5.851,5.851,0,0,1,4.255-1.655,6.258,6.258,0,0,1,2.792.612A5.428,5.428,0,0,1-4349.824,1702.817Z" transform="translate(4360.607 -1668.634)" fill="#fff"/>
      <path id="Trazado_351" data-name="Trazado 351" d="M-4307.422,1700.52a5.72,5.72,0,0,1,4.2,1.673,5.8,5.8,0,0,1,.032,8.2,5.8,5.8,0,0,1-4.139,1.715,5.642,5.642,0,0,1-4.142-1.679,5.514,5.514,0,0,1-1.691-4.067,5.88,5.88,0,0,1,.769-2.947,5.687,5.687,0,0,1,4.974-2.9Zm.051,1.073a4.717,4.717,0,0,0-4.035,2.358,4.8,4.8,0,0,0-.614,2.411,4.64,4.64,0,0,0,4.6,4.682h.05a4.721,4.721,0,0,0,2.377-.623,4.481,4.481,0,0,0,1.707-1.7,4.774,4.774,0,0,0,.611-2.4,4.66,4.66,0,0,0-.611-2.377,4.583,4.583,0,0,0-1.723-1.7,4.679,4.679,0,0,0-2.367-.645Z" transform="translate(4324.058 -1668.662)" fill="#fff"/>
      <path id="Trazado_352" data-name="Trazado 352" d="M-4259.393,1712.774v-11.035h.241l7.343,8.455v-8.455h1.09v11.035h-.25l-7.286-8.357v8.357Z" transform="translate(4282.629 -1669.603)" fill="#fff"/>
      <path id="Trazado_353" data-name="Trazado 353" d="M-4217.928,1702.82v-1.081h6.045v1.081h-2.455v9.955h-1.127v-9.955Z" transform="translate(4250.685 -1669.603)" fill="#fff"/>
      <path id="Trazado_354" data-name="Trazado 354" d="M-4186.215,1701.714h2.2a13.355,13.355,0,0,1,2.491.15,2.84,2.84,0,0,1,1.6.966,2.759,2.759,0,0,1,.616,1.821,2.955,2.955,0,0,1-.423,1.586,2.664,2.664,0,0,1-1.211,1.033,5.6,5.6,0,0,1-2.176.356l3.968,5.124h-1.364l-3.968-5.124h-.624v5.124h-1.1Zm1.1,1.081v3.75l1.9.014a4.7,4.7,0,0,0,1.634-.209,1.7,1.7,0,0,0,.827-.67,1.861,1.861,0,0,0,.3-1.031,1.787,1.787,0,0,0-.3-1.009,1.7,1.7,0,0,0-.79-.651,4.8,4.8,0,0,0-1.623-.2Z" transform="translate(4226.251 -1669.578)" fill="#fff"/>
      <path id="Trazado_355" data-name="Trazado 355" d="M-4146.914,1700.52a5.73,5.73,0,0,1,4.2,1.673,5.8,5.8,0,0,1,.029,8.2,5.79,5.79,0,0,1-4.138,1.715,5.645,5.645,0,0,1-4.142-1.679,5.514,5.514,0,0,1-1.691-4.067,5.865,5.865,0,0,1,.769-2.947,5.683,5.683,0,0,1,4.973-2.9Zm.051,1.073a4.525,4.525,0,0,0-2.319.639,4.594,4.594,0,0,0-1.717,1.719,4.781,4.781,0,0,0-.614,2.41,4.642,4.642,0,0,0,4.6,4.682h.052a4.722,4.722,0,0,0,2.376-.623,4.465,4.465,0,0,0,1.708-1.7,4.8,4.8,0,0,0,.612-2.4,4.679,4.679,0,0,0-.612-2.376,4.57,4.57,0,0,0-1.724-1.7,4.673,4.673,0,0,0-2.362-.644Z" transform="translate(4200.399 -1668.662)" fill="#fff"/>
      <path id="Trazado_356" data-name="Trazado 356" d="M-4096.544,1701.739h1.1v9.97h4.246v1.066h-5.348Z" transform="translate(4157.168 -1669.603)" fill="#fff"/>
      <path id="Trazado_357" data-name="Trazado 357" d="M-4043.646,1702.82v-1.081h6.046v1.081h-2.461v9.955h-1.125v-9.955Z" transform="translate(4116.414 -1669.603)" fill="#fff"/>
      <path id="Trazado_358" data-name="Trazado 358" d="M-4013.33,1700.52a5.726,5.726,0,0,1,4.2,1.673,5.8,5.8,0,0,1,.031,8.2,5.8,5.8,0,0,1-4.14,1.715,5.646,5.646,0,0,1-4.142-1.679,5.529,5.529,0,0,1-1.691-4.067,5.88,5.88,0,0,1,.769-2.947,5.685,5.685,0,0,1,4.973-2.9Zm.051,1.073a4.537,4.537,0,0,0-2.321.639,4.6,4.6,0,0,0-1.714,1.719,4.792,4.792,0,0,0-.616,2.41,4.641,4.641,0,0,0,4.6,4.682h.052a4.721,4.721,0,0,0,2.377-.623,4.466,4.466,0,0,0,1.707-1.7,4.806,4.806,0,0,0,.614-2.4,4.7,4.7,0,0,0-.614-2.376,4.568,4.568,0,0,0-1.723-1.7,4.663,4.663,0,0,0-2.364-.644Z" transform="translate(4097.484 -1668.662)" fill="#fff"/>
      <path id="Trazado_359" data-name="Trazado 359" d="M-3968.2,1702.82v-1.081h6.046v1.081h-2.459v9.955h-1.132v-9.955Z" transform="translate(4058.29 -1669.603)" fill="#fff"/>
      <path id="Trazado_360" data-name="Trazado 360" d="M-3939.987,1701.739l5.147,11.035h-1.192l-1.735-3.631h-4.752l-1.72,3.631h-1.23l5.214-11.035Zm-.139,2.342-1.891,3.994h3.772Z" transform="translate(4040.777 -1669.603)" fill="#fff"/>
      <path id="Trazado_361" data-name="Trazado 361" d="M-3893.541,1701.739h1.1v9.97h4.245v1.066h-5.35Z" transform="translate(4000.771 -1669.603)" fill="#fff"/>
    </g>
    <g id="Grupo_545" data-name="Grupo 545">
      <path id="Trazado_362" data-name="Trazado 362" d="M-4801.886,1509.524a47.23,47.23,0,0,0-10.39-20.57,48.305,48.305,0,0,0-8.529-7.7,47.365,47.365,0,0,0-10.079-5.368,46.708,46.708,0,0,0-11.015-2.731,47.826,47.826,0,0,0-11.265.028,45.38,45.38,0,0,0-20.646,8.017,46.524,46.524,0,0,0-8.158,7.442,46.135,46.135,0,0,0-6.069,9.137,44.883,44.883,0,0,0-3.642,10.276,45.654,45.654,0,0,0-1.022,10.315h0l.429,16.781.5-15.844h0l.018-.483a44.308,44.308,0,0,1,1.587-10.395,42.947,42.947,0,0,1,4.033-9.626,42.263,42.263,0,0,1,14.211-14.785,41.374,41.374,0,0,1,19.206-6.244,42.956,42.956,0,0,1,10.058.55,40.48,40.48,0,0,1,18,8.1,41.641,41.641,0,0,1,6.916,7.006,40.853,40.853,0,0,1,4.967,8.4,39.976,39.976,0,0,1,2.744,9.284,40.905,40.905,0,0,1,.4,9.613,39.711,39.711,0,0,1-1.923,9.34,39.025,39.025,0,0,1-4.109,8.516,39.8,39.8,0,0,1-6.018,7.213l7.6,7.6a50.278,50.278,0,0,0,7.107-9.6,48.172,48.172,0,0,0,6.243-22.647A49.5,49.5,0,0,0-4801.886,1509.524Z" transform="translate(4903.247 -1462.156)" fill="#afd625"/>
      <path id="Trazado_363" data-name="Trazado 363" d="M-4777.554,1547.149a36.5,36.5,0,0,0-14.726-21.8,36.477,36.477,0,0,0-7.8-4.106,35.987,35.987,0,0,0-8.5-2.056,36.811,36.811,0,0,0-8.672.063,35.64,35.64,0,0,0-8.339,2.148,35.319,35.319,0,0,0-7.5,4.088,35.615,35.615,0,0,0-6.233,5.74,35.158,35.158,0,0,0-4.613,7.024,34.262,34.262,0,0,0-2.745,7.876,34.876,34.876,0,0,0-.735,8.237l.027.973h0l.935,26.245.941-27.217.031-.911h0a32.529,32.529,0,0,1,1.17-6.74,31.532,31.532,0,0,1,3.016-7.053,30.942,30.942,0,0,1,10.492-10.771,30.9,30.9,0,0,1,6.788-3.113,30.634,30.634,0,0,1,7.276-1.347,31.265,31.265,0,0,1,7.327.454,29.324,29.324,0,0,1,18.018,11.1,29.51,29.51,0,0,1,3.545,6.114,28.691,28.691,0,0,1,1.928,6.718,29.49,29.49,0,0,1,.234,6.932,28.773,28.773,0,0,1-1.438,6.705,27.939,27.939,0,0,1-3,6.084,28.45,28.45,0,0,1-4.354,5.131l7.6,7.6a38.964,38.964,0,0,0,5.492-7.485,37.387,37.387,0,0,0,4.777-17.6A38.4,38.4,0,0,0-4777.554,1547.149Z" transform="translate(4868.368 -1497.688)" fill="#afd625"/>
      <path id="Trazado_364" data-name="Trazado 364" d="M-4767.946,1601.151a16.677,16.677,0,0,0,5.413-10.295,17.338,17.338,0,0,0-2.731-11.788,17.893,17.893,0,0,0-10.128-7.435,18.8,18.8,0,0,0-13,1.019,19.617,19.617,0,0,0-9.494,9.6l-.341.809a6.716,6.716,0,0,0-.323.818l-.52,1.691-.349,1.736c-.1.585-.13,1.179-.194,1.769l-.044.446-.025.479-.041.967-.084,1.929-.167,3.862-1.343,30.893-1.345-30.9-.169-3.861-.085-1.931-.042-.967-.017-.485v-.52c.016-.692-.011-1.39.047-2.082l.233-2.081.438-2.055a8.859,8.859,0,0,1,.3-1.009l.324-1.005a24.347,24.347,0,0,1,10.751-12.867c.64-.336,1.273-.692,1.93-1l2.022-.83c.693-.225,1.393-.426,2.1-.634a9.054,9.054,0,0,1,1.07-.241l1.082-.208a25.675,25.675,0,0,1,8.807.108,25.294,25.294,0,0,1,15.116,9.208,26.1,26.1,0,0,1,5.618,17.273,26.771,26.771,0,0,1-7.2,17.2Z" transform="translate(4834.115 -1532.886)" fill="#afd625"/>
      <path id="Trazado_365" data-name="Trazado 365" d="M-4938.491,1488.429l-.079-3.427c-.03-1.142-.059-2.281-.048-3.427a53.9,53.9,0,0,1,3.876-20.225,55.89,55.89,0,0,1,41.663-34.091,57.721,57.721,0,0,1,14.19-.821c.6.02,1.188.091,1.781.151l1.777.188,1.77.272.893.139c.294.05.587.118.877.176l1.758.363c.584.13,1.159.293,1.738.438,1.172.276,2.3.657,3.45,1.012.578.167,1.129.4,1.692.6s1.13.4,1.683.637c1.1.475,2.223.91,3.295,1.458a58.618,58.618,0,0,1,6.311,3.512l1.5,1.014.748.509.725.542,1.448,1.086,1.4,1.152.7.578c.23.2.45.4.676.607l1.339,1.221c.438.419.861.853,1.289,1.28s.861.855,1.261,1.311l1.222,1.348c.4.455.777.931,1.168,1.4.792.923,1.492,1.915,2.226,2.887a59.219,59.219,0,0,1,6.946,12.827l.629,1.725c.1.288.214.574.31.866l.272.877.541,1.757.461,1.789a58.053,58.053,0,0,1,1.723,14.608c.021,1.234-.075,2.465-.132,3.7-.019.618-.1,1.229-.161,1.846s-.119,1.231-.2,1.844l-.286,1.836-.143.917-.189.91-.376,1.822c-.145.6-.31,1.2-.461,1.8a58.576,58.576,0,0,1-5.6,13.8c-.289.554-.624,1.081-.946,1.615s-.645,1.072-.984,1.593c-.709,1.028-1.375,2.09-2.145,3.075l-1.132,1.5-1.2,1.447-.6.722-.632.695-1.267,1.389-7.61-7.6,1.1-1.09.548-.543.52-.57,1.04-1.142.992-1.19c.682-.781,1.266-1.633,1.9-2.451.3-.419.584-.853.878-1.281s.592-.852.852-1.3a48.731,48.731,0,0,0,5.245-11.283c.153-.5.317-.994.465-1.495l.389-1.516.2-.759.16-.767.317-1.538c.1-.52.164-1.034.247-1.551s.178-1.041.217-1.561c.1-1.04.241-2.082.27-3.139a49.686,49.686,0,0,0-.859-12.591l-.316-1.554-.391-1.538-.2-.77c-.068-.26-.154-.506-.231-.761l-.469-1.519a51.846,51.846,0,0,0-5.512-11.479c-.6-.881-1.17-1.789-1.833-2.633-.321-.427-.631-.866-.967-1.282l-1.02-1.242c-.333-.423-.692-.817-1.055-1.212s-.713-.8-1.084-1.192l-1.137-1.142c-.191-.189-.376-.384-.57-.57l-.6-.543-1.193-1.088-1.243-1.029-.624-.521-.651-.485-1.293-.973a52.962,52.962,0,0,0-5.5-3.419c-.937-.541-1.929-.98-2.9-1.461-.486-.241-.994-.43-1.49-.65s-.992-.444-1.508-.616c-1.02-.371-2.031-.769-3.075-1.069-.521-.156-1.042-.335-1.562-.476l-1.58-.408c-.262-.065-.527-.142-.793-.2l-.8-.164-1.6-.331-1.619-.25c-.54-.081-1.08-.176-1.623-.217a53.357,53.357,0,0,0-13.128.127,52.482,52.482,0,0,0-24.323,9.942,53.611,53.611,0,0,0-16.741,20.7,55.145,55.145,0,0,0-4.035,12.93,55.945,55.945,0,0,0-.747,6.774c-.069,1.136-.1,2.279-.119,3.421Z" transform="translate(4938.62 -1426.314)" fill="#afd625"/>
      <path id="Trazado_366" data-name="Trazado 366" d="M-4757.977,1672.618l-2.687-45.863-.17-2.862c-.019-.212-.017-.538-.015-.837s0-.606.015-.91a14.382,14.382,0,0,1,.24-1.811c.064-.3.122-.6.2-.9l.272-.881a7.688,7.688,0,0,1,.327-.864c.125-.283.237-.571.375-.848a14.512,14.512,0,0,1,.94-1.6c.177-.26.341-.52.537-.762l.6-.722a14.118,14.118,0,0,1,2.838-2.472,14.563,14.563,0,0,1,1.65-.952c.285-.146.582-.26.878-.384a7.933,7.933,0,0,1,.9-.336,14.908,14.908,0,0,1,11.394.878,14.268,14.268,0,0,1,1.707,1.023,14.81,14.81,0,0,1,1.573,1.235,15.3,15.3,0,0,1,2.6,3.07l.278.426.248.446.476.9.39.945.191.477.152.49.291.99.205,1.012.093.509.052.511.09,1.031a15.907,15.907,0,0,1-.359,4.144,16.157,16.157,0,0,1-3.9,7.427l-7.605-7.6a5.678,5.678,0,0,0,1.754-2.4,5.91,5.91,0,0,0,.361-1.528c0-.13.01-.266.019-.4l.016-.2-.016-.2c-.009-.13-.013-.269-.015-.406-.023-.13-.042-.26-.064-.4l-.027-.2-.052-.2c-.036-.13-.07-.26-.1-.4q-.077-.2-.145-.39l-.069-.2-.1-.187a6.437,6.437,0,0,0-.91-1.44,6.859,6.859,0,0,0-.606-.623,6.38,6.38,0,0,0-.685-.553,6.474,6.474,0,0,0-1.58-.808,6.983,6.983,0,0,0-3.662-.277,2.654,2.654,0,0,0-.463.108c-.152.046-.31.071-.46.13a7.563,7.563,0,0,0-.888.372,7.212,7.212,0,0,0-1.637,1.085l-.368.34a4.6,4.6,0,0,0-.335.371,8,8,0,0,0-.622.8c-.1.141-.17.292-.261.436a3.019,3.019,0,0,0-.241.451l-.217.466-.168.486a8.175,8.175,0,0,0-.273,1.006c-.03.171-.041.347-.071.52a5.958,5.958,0,0,0-.062.6l-.165,2.862Z" transform="translate(4801.663 -1566.96)" fill="#afd625"/>
    </g>
  </g>
</svg>
