<svg xmlns="http://www.w3.org/2000/svg" width="108.786" height="67.29" viewBox="0 0 108.786 67.29">
  <g id="Grupo_528" data-name="Grupo 528" transform="translate(0)">
    <g id="Grupo_325" data-name="Grupo 325" transform="translate(0 0)">
      <path id="Trazado_271" data-name="Trazado 271" d="M361.92,441.074V426.632h-5.96v14.442Z" transform="translate(-270.257 -374.26)" fill="#aeaeae"/>
      <path id="Trazado_272" data-name="Trazado 272" d="M303.246,435.213v-8.227h-5.777v6.289a11.755,11.755,0,0,1-.183,2.816,3.12,3.12,0,0,1-3.217,1.9c-1.974,0-2.888-.768-3.254-1.974a7.209,7.209,0,0,1-.183-1.28c-.037-.475,0-.987,0-1.536v-6.216h-5.85v8.263a5.493,5.493,0,0,0,1.645,4.2c1.755,1.718,4.717,2.23,7.459,2.23,3.327,0,5.887-.475,7.714-2.267a5.355,5.355,0,0,0,1.646-4.2Z" transform="translate(-243.138 -374.395)" fill="#aeaeae"/>
      <path id="Trazado_273" data-name="Trazado 273" d="M257.049,430.791a4.9,4.9,0,0,0-.877-.073H249.59a5.255,5.255,0,0,0-.877.073,5.722,5.722,0,0,0,.548-.621l2.961-4.9a8.312,8.312,0,0,0,.658-1.28,10.089,10.089,0,0,0,.658,1.317l3.035,4.936a3.9,3.9,0,0,0,.475.548Zm11.042,7.02-13.163-19.744h-7.386l1.938,2.3a.821.821,0,0,0,.183.11.8.8,0,0,0-.183.11L238,437.811h6.654l1.791-2.961a.977.977,0,0,0,.11-.366,3.527,3.527,0,0,0,.439.073h11.883a.977.977,0,0,0,.4-.073.49.49,0,0,0,.074.293l1.864,3.034Z" transform="translate(-225.313 -370.997)" fill="#aeaeae"/>
      <path id="Trazado_274" data-name="Trazado 274" d="M339.52,430.389c0-1.609-.658-3.474-2.706-6.07l-4.936-6.252H325l3.912,4.387a13.6,13.6,0,0,0,1.5,1.39,6.511,6.511,0,0,0-3.108-.768,13.626,13.626,0,0,0-6.618,1.609,6.568,6.568,0,0,0-3.656,5.887,6.8,6.8,0,0,0,2.084,4.826c2.633,2.633,7.422,2.888,9.178,2.888,2.6,0,6.654-.585,8.958-2.669a6.859,6.859,0,0,0,2.267-5.228Zm-5.7.183a3.7,3.7,0,0,1-2.23,3.254,7.029,7.029,0,0,1-3.291.695,7.713,7.713,0,0,1-3.328-.731,3.722,3.722,0,0,1-2.194-3.144,3.972,3.972,0,0,1,2.633-3.437,6.967,6.967,0,0,1,2.779-.548,8.388,8.388,0,0,1,2.888.475,4.007,4.007,0,0,1,2.742,3.437Z" transform="translate(-255.426 -370.997)" fill="#aeaeae"/>
      <path id="Trazado_275" data-name="Trazado 275" d="M307.272,342.023a18.932,18.932,0,0,0-11.792,4.1,19.017,19.017,0,0,0-23.583,0,19.018,19.018,0,0,0-23.584,0,19.017,19.017,0,1,0,0,29.841,19.018,19.018,0,0,0,23.584,0,19.017,19.017,0,0,0,23.583,0,19.018,19.018,0,1,0,11.792-33.938ZM245.2,372.854a14.661,14.661,0,1,1,0-23.627,19.017,19.017,0,0,0,0,23.627Zm3.111-3.1a14.661,14.661,0,0,1,0-17.422,14.656,14.656,0,0,1,0,17.422Zm20.472,3.1a14.673,14.673,0,0,1-17.361,0,19.017,19.017,0,0,0,0-23.627,14.673,14.673,0,0,1,17.361,0,19.02,19.02,0,0,0,0,23.627Zm3.112-3.1a14.659,14.659,0,0,1,0-17.422,14.659,14.659,0,0,1,0,17.422Zm20.472,3.1a14.672,14.672,0,0,1-17.36,0,19.02,19.02,0,0,0,0-23.627,14.672,14.672,0,0,1,17.36,0,19.02,19.02,0,0,0,0,23.627Zm3.112-3.1a14.659,14.659,0,0,1,0-17.422,14.659,14.659,0,0,1,0,17.422Zm11.792,5.95a14.759,14.759,0,0,1-8.68-2.847,19.017,19.017,0,0,0,0-23.627,14.661,14.661,0,1,1,8.68,26.475Z" transform="translate(-217.504 -342.023)" fill="#aeaeae"/>
    </g>
  </g>
</svg>
