<svg xmlns="http://www.w3.org/2000/svg" width="128.001" height="123.71" viewBox="0 0 128.001 123.71">
  <g id="Grupo_493" data-name="Grupo 493" transform="translate(0 1.631)">
    <g id="Grupo_211" data-name="Grupo 211">
      <g id="Grupo_207" data-name="Grupo 207">
        <path id="Trazado_178" data-name="Trazado 178" d="M-1076.453,321.712V370.7a11.235,11.235,0,0,0,5.615,9.726l42.423,24.495a11.228,11.228,0,0,0,11.239,0l42.423-24.495a11.229,11.229,0,0,0,5.62-9.726V321.712a11.237,11.237,0,0,0-5.62-9.731l-42.423-24.495a11.253,11.253,0,0,0-11.239,0l-42.423,24.495A11.243,11.243,0,0,0-1076.453,321.712Z" transform="translate(1095.635 -285.983)" fill="#fff" stroke="#a9af93" stroke-width="3"/>
        <ellipse id="Elipse_15" data-name="Elipse 15" cx="20.716" cy="20.716" rx="20.716" ry="20.716" transform="translate(0 8.898)" fill="#89aa14"/>
        <text id="_03" data-name="03" transform="translate(21 38.447)" fill="#fff" font-size="25" font-family="SegoeUI-Bold, Segoe UI" font-weight="700" letter-spacing="-0.036em"><tspan x="-13" y="0">03</tspan></text>
      </g>
    </g>
    <g id="Grupo_215" data-name="Grupo 215" transform="translate(45.22 31.387)">
      <g id="Grupo_214" data-name="Grupo 214">
        <path id="Trazado_197" data-name="Trazado 197" d="M141.446,501.232a4.956,4.956,0,0,0,1.239-3.281v-.508a4.978,4.978,0,0,0-9.956,0v.508a4.958,4.958,0,0,0,1.239,3.281A8.383,8.383,0,0,0,130,504.679a8.383,8.383,0,0,0-3.969-3.447,4.956,4.956,0,0,0,1.239-3.281v-.508a4.978,4.978,0,0,0-9.956,0v.508a4.958,4.958,0,0,0,1.239,3.281,8.383,8.383,0,0,0-3.969,3.447,8.383,8.383,0,0,0-3.969-3.447,4.956,4.956,0,0,0,1.239-3.281v-.508a4.978,4.978,0,0,0-9.956,0v.508a4.958,4.958,0,0,0,1.239,3.281,8.346,8.346,0,0,0-5.137,7.7v1a1.168,1.168,0,0,0,1.168,1.168h46.247a1.168,1.168,0,0,0,1.168-1.168v-1a8.346,8.346,0,0,0-5.137-7.7Zm-6.381-3.789a2.642,2.642,0,0,1,5.285,0v.508a2.642,2.642,0,0,1-5.285,0Zm-15.416,0a2.642,2.642,0,0,1,5.285,0v.508a2.642,2.642,0,0,1-5.285,0Zm-15.416,0a2.642,2.642,0,0,1,5.285,0v.508a2.642,2.642,0,0,1-5.285,0Zm-3.9,11.318a6.005,6.005,0,0,1,6-5.832h1.083a6,6,0,0,1,6,5.832Zm15.416,0a6.005,6.005,0,0,1,6-5.832h1.083a6,6,0,0,1,6,5.832Zm15.416,0a6.005,6.005,0,0,1,6-5.832h1.083a6,6,0,0,1,6,5.832Zm0,0" transform="translate(-95.548 -451.302)" fill="#afd625"/>
        <path id="Trazado_198" data-name="Trazado 198" d="M129.32,140H78.168A1.168,1.168,0,0,0,77,141.168v5.606a1.168,1.168,0,0,0,1.168,1.168h.467V176.9a1.168,1.168,0,0,0,1.168,1.168h47.882a1.168,1.168,0,0,0,1.168-1.168V147.941h.467a1.168,1.168,0,0,0,1.168-1.168v-5.606A1.168,1.168,0,0,0,129.32,140Zm-49.984,2.336h48.816v3.27H79.336Zm47.181,33.4H80.971V147.941h45.546Zm0,0" transform="translate(-77 -140)" fill="#afd625"/>
        <path id="Trazado_199" data-name="Trazado 199" d="M141.145,261.406h2.168v.573a1.168,1.168,0,0,0,2.336,0v-.573h9.214v.573a1.168,1.168,0,0,0,2.336,0v-.573h2.168a1.168,1.168,0,0,0,1.168-1.168v-4.712a3.256,3.256,0,0,0-1.189-2.517l.3-.3a1.168,1.168,0,0,0-1.651-1.652l-.083.084-.65-2.646a3.4,3.4,0,0,0-3.3-2.591h-7.4a3.4,3.4,0,0,0-3.305,2.591l-.65,2.646-.083-.084a1.168,1.168,0,0,0-1.652,1.652l.3.3a3.258,3.258,0,0,0-1.189,2.517v4.712a1.168,1.168,0,0,0,1.168,1.168ZM158.2,259.07H142.313v-3.545a.928.928,0,0,1,.927-.927h14.034a.928.928,0,0,1,.925.927Zm-11.643-10.833h7.4a1.065,1.065,0,0,1,1.036.813l.789,3.213H144.729l.789-3.213a1.066,1.066,0,0,1,1.037-.813Zm0,0" transform="translate(-132.622 -233.534)" fill="#afd625"/>
        <path id="Trazado_200" data-name="Trazado 200" d="M172.546,329.52a1.169,1.169,0,1,0,.825.342,1.173,1.173,0,0,0-.825-.342Zm0,0" transform="translate(-160.357 -307.387)" fill="#afd625"/>
        <path id="Trazado_201" data-name="Trazado 201" d="M265.77,329.52a1.167,1.167,0,1,0,.826.341,1.174,1.174,0,0,0-.826-.341Zm0,0" transform="translate(-242.693 -307.387)" fill="#afd625"/>
        <path id="Trazado_202" data-name="Trazado 202" d="M344.168,248.238h6.117a1.168,1.168,0,0,0,0-2.336h-6.117a1.168,1.168,0,0,0,0,2.336Zm0,0" transform="translate(-311.935 -233.534)" fill="#afd625"/>
        <path id="Trazado_203" data-name="Trazado 203" d="M344.168,312.836h6.117a1.168,1.168,0,0,0,0-2.336h-6.117a1.168,1.168,0,0,0,0,2.336Zm0,0" transform="translate(-311.935 -290.588)" fill="#afd625"/>
        <path id="Trazado_204" data-name="Trazado 204" d="M436.547,248.234a1.168,1.168,0,1,0-.826-.342,1.179,1.179,0,0,0,.826.342Zm0,0" transform="translate(-393.526 -233.531)" fill="#afd625"/>
        <path id="Trazado_205" data-name="Trazado 205" d="M436.547,312.836a1.168,1.168,0,1,0-.826-.342,1.179,1.179,0,0,0,.826.342Zm0,0" transform="translate(-393.526 -290.588)" fill="#afd625"/>
        <path id="Trazado_206" data-name="Trazado 206" d="M344.168,377.434h6.117a1.168,1.168,0,1,0,0-2.336h-6.117a1.168,1.168,0,1,0,0,2.336Zm0,0" transform="translate(-311.935 -347.642)" fill="#afd625"/>
        <path id="Trazado_207" data-name="Trazado 207" d="M436.547,377.438a1.168,1.168,0,1,0-.826-.342,1.179,1.179,0,0,0,.826.342Zm0,0" transform="translate(-393.526 -347.646)" fill="#afd625"/>
      </g>
    </g>
  </g>
</svg>
