<svg xmlns="http://www.w3.org/2000/svg" width="129.313" height="124.961" viewBox="0 0 129.313 124.961">
  <g id="Grupo_492" data-name="Grupo 492" transform="translate(0 1.632)">
    <g id="Grupo_514" data-name="Grupo 514" transform="translate(0)">
      <g id="Grupo_210" data-name="Grupo 210" transform="translate(0)">
        <g id="Grupo_207" data-name="Grupo 207">
          <path id="Trazado_178" data-name="Trazado 178" d="M-1076.453,322.083v49.5a11.351,11.351,0,0,0,5.673,9.827l42.863,24.749a11.345,11.345,0,0,0,11.356,0l42.863-24.749a11.345,11.345,0,0,0,5.678-9.827v-49.5a11.353,11.353,0,0,0-5.678-9.832l-42.863-24.749a11.37,11.37,0,0,0-11.356,0l-42.863,24.749A11.359,11.359,0,0,0-1076.453,322.083Z" transform="translate(1095.833 -285.983)" fill="#fff" stroke="#a9af93" stroke-width="3"/>
          <ellipse id="Elipse_15" data-name="Elipse 15" cx="20.931" cy="20.931" rx="20.931" ry="20.931" transform="translate(0 8.99)" fill="#89aa14"/>
          <text id="_02" data-name="02" transform="translate(21 38.855)" fill="#fff" font-size="25" font-family="SegoeUI-Bold, Segoe UI" font-weight="700" letter-spacing="-0.036em"><tspan x="-13" y="0">02</tspan></text>
        </g>
      </g>
      <g id="Grupo_213" data-name="Grupo 213" transform="translate(41.371 34.782)">
        <path id="Trazado_191" data-name="Trazado 191" d="M728.009,474.937l0-.012,0-.015-.005-.025v0a1.357,1.357,0,0,0-.145-.381l0-.008,0,0a1.36,1.36,0,0,0-.362-.408l-.006,0-.015-.011-.014-.01-.006,0a1.366,1.366,0,0,0-.811-.245H696.459a1.365,1.365,0,0,0-.232.015h0l-.012,0a1.355,1.355,0,0,0-.587.246l-.006,0-.014.011-.015.011-.005,0a1.363,1.363,0,0,0-.338.391h0l-.006.011a1.357,1.357,0,0,0-.144.378v0l-.005.025,0,.015,0,.012a1.373,1.373,0,0,0-.02.266V485.89a1.374,1.374,0,0,0,.02.266l0,.012,0,.015.005.025v0a1.354,1.354,0,0,0,.124.341l0,0,.01.019a1.358,1.358,0,0,0,.405.456l.007.005.014.01.014.009h0a1.361,1.361,0,0,0,.493.2l.013,0,.013,0a1.358,1.358,0,0,0,.238.021h30.233a1.354,1.354,0,0,0,.238-.021l.017,0,.008,0a1.358,1.358,0,0,0,.537-.233l.007,0,.014-.011a1.359,1.359,0,0,0,.365-.412l.008-.015.005-.01a1.353,1.353,0,0,0,.137-.366v0l.005-.025,0-.015,0-.012a1.377,1.377,0,0,0,.02-.266V475.2A1.364,1.364,0,0,0,728.009,474.937ZM697.8,477.108l9.672,3.437-9.672,3.437Zm6.556-.569h14.389l-7.194,2.557ZM711.547,482l7.194,2.557H704.353Zm4.079-1.45,9.672-3.437v6.875Z" transform="translate(-685.685 -439.749)" fill="#afd625"/>
        <path id="Trazado_192" data-name="Trazado 192" d="M696.432,448.553h16.574a1.366,1.366,0,1,0,0-2.732H696.432a1.366,1.366,0,0,0,0,2.732Z" transform="translate(-685.686 -416.863)" fill="#afd625"/>
        <path id="Trazado_193" data-name="Trazado 193" d="M821.484,445.821h-9.106a1.366,1.366,0,0,0,0,2.732h9.106a1.366,1.366,0,0,0,0-2.732Z" transform="translate(-780.506 -416.863)" fill="#afd625"/>
        <path id="Trazado_194" data-name="Trazado 194" d="M771.4,423.565h16.574a1.366,1.366,0,0,0,0-2.732H771.4a1.366,1.366,0,0,0,0,2.732Z" transform="translate(-746.992 -396.428)" fill="#afd625"/>
        <path id="Trazado_195" data-name="Trazado 195" d="M696.432,423.565h8.56a1.366,1.366,0,1,0,0-2.732h-8.56a1.366,1.366,0,0,0,0,2.732Z" transform="translate(-685.686 -396.428)" fill="#afd625"/>
        <path id="Trazado_196" data-name="Trazado 196" d="M713.476,294.375a1.366,1.366,0,0,0-1.133-.6H694.032l-.076,0-2.54-2.54a2.808,2.808,0,0,0-3.972,0l-.965.964a.082.082,0,0,1-.1.009,16.623,16.623,0,0,0-2.573-1.064.081.081,0,0,1-.06-.075V289.7a2.812,2.812,0,0,0-2.809-2.809h-4.4a2.812,2.812,0,0,0-2.809,2.809v1.365a.08.08,0,0,1-.06.074,16.645,16.645,0,0,0-2.573,1.064.081.081,0,0,1-.1-.009l-.964-.964a2.808,2.808,0,0,0-3.973,0l-2.559,2.559a1.366,1.366,0,0,0-.239-.021H644.955a1.366,1.366,0,0,0-1.266,1.88l4.6,11.327c0,.014,0,.027,0,.041v29.06a2.951,2.951,0,0,0,2.948,2.947H706.06a2.951,2.951,0,0,0,2.948-2.947v-29.06c0-.014,0-.027,0-.041l4.6-11.327A1.366,1.366,0,0,0,713.476,294.375ZM668,293.165a.077.077,0,0,1,.109,0l.964.964a2.8,2.8,0,0,0,3.282.505,13.885,13.885,0,0,1,2.149-.888,2.8,2.8,0,0,0,1.964-2.678V289.7a.077.077,0,0,1,.077-.077h4.4a.077.077,0,0,1,.077.077v1.365a2.8,2.8,0,0,0,1.964,2.678,13.864,13.864,0,0,1,2.148.888,2.8,2.8,0,0,0,3.281-.5l.965-.964a.072.072,0,0,1,.055-.023.072.072,0,0,1,.054.023l2.749,2.749-3.413,8.259h0a10.474,10.474,0,0,0-20.463,1.48h-7.01v-.833a.077.077,0,0,1,.077-.077h1.365a2.8,2.8,0,0,0,2.678-1.964q.044-.139.091-.277c.028-.082.057-.163.086-.245l.022-.06a13.862,13.862,0,0,1,.689-1.567l.005-.01.01-.02a2.8,2.8,0,0,0-.52-3.251l-.509-.509-.01-.01-.445-.445h0a.077.077,0,0,1-.017-.079l0-.013a.069.069,0,0,1,.013-.017Zm18.363,12.488H671.12a7.741,7.741,0,0,1,15.239,0Zm-24.224-9.15a2.784,2.784,0,0,0,.278,1.057v0l.026.051.007.014.021.039.012.022.013.023.021.036.011.019.023.038.011.017.024.038.011.016.023.035.012.017.023.033.013.019.024.033.012.016.027.035.014.017.027.033.016.019.026.03.019.022.021.023.024.027.017.018.03.031.015.016.016.016.2.2.052.052.51,1.233-.013.028-.034.072-.03.064-.032.069-.019.042-.044.1-.02.044-.043.1-.016.037-.036.083-.017.039-.044.1-.016.038-.044.107-.01.024-.037.093-.014.036-.042.107-.013.034-.039.1-.012.033-.036.1-.012.032-.04.109-.013.035-.038.107-.008.022-.037.108-.009.027-.038.116-.009.026-.039.122a.081.081,0,0,1-.075.06h-1.365a2.812,2.812,0,0,0-2.809,2.809v.833H650.7l-3.717-9.15Zm-11.114,39.575V308.385h36.942v27.909H651.238A.216.216,0,0,1,651.022,336.079Zm55.254,0a.216.216,0,0,1-.216.215H690.7V308.385h15.58v27.694Zm.321-30.426H691.164l3.781-9.15h15.368Z" transform="translate(-643.589 -286.894)" fill="#afd625"/>
      </g>
    </g>
  </g>
</svg>
