<svg id="Grupo_527" data-name="Grupo 527" xmlns="http://www.w3.org/2000/svg" width="85.389" height="68.049" viewBox="0 0 85.389 68.049">
  <g id="Grupo_323" data-name="Grupo 323" transform="translate(0 56.321)">
    <g id="Grupo_322" data-name="Grupo 322" transform="translate(0 0)">
      <g id="Grupo_321" data-name="Grupo 321">
        <path id="Trazado_269" data-name="Trazado 269" d="M415.746,109V112.7H403.957v-1.026c0-1.608.26-2.679,2.144-2.679Zm-10.365-2.281c-3.093,0-4.517,1.654-4.517,4.287v7.426h3.093v-3.414h11.789v3.414h3.108V106.715Zm17.255,0V109h7.273v9.416H433V109h7.288v-2.281Zm-41.63,7.2c0,1.638.337,2.22,2.143,2.22h12.922v2.281H382.43c-3.093,0-4.532-1.393-4.532-4.027V106.7h18.19v2.281H381.021v2.3h14.454v2.235H381.021v.4Zm-22.14-3.123c-.949-.077-1.118-.413-1.118-.98,0-.536.291-.827,1.011-.827h14.27v-2.251H358.407c-2.082,0-3.506.8-3.506,3.139s1.072,3.139,3.445,3.322l11.575.965c.888.077,1.133.383,1.133,1.011,0,.612-.276.98-1.057.98H355.483v2.281h14.775c2.541,0,3.659-1.011,3.659-3.414,0-2.189-1.01-3.062-3.491-3.261Z" transform="translate(-354.901 -106.7)" fill="#aeaeae"/>
      </g>
    </g>
  </g>
  <path id="Trazado_270" data-name="Trazado 270" d="M-80.3-108.923l31.643,5.4a4.2,4.2,0,0,1-1.829.289c-1.479.03-3.292.046-5.548.046-8,0-24.266-.594-24.266-.594s.32,6.615.427,8.566c.168,2.454.244,2.927.854,3.338a4.347,4.347,0,0,0,2.256.564,277.435,277.435,0,0,0,35.576.457c4.664-.244,6.615-.61,8.292-2.088,1.219-1.082,1.829-2.866,1.936-5.807s.244-8.49.244-8.49l-49.584-8.81Zm19.815-13c1.479-.03,3.292-.046,5.548-.046,8,0,24.266.594,24.266.594s-.3-6.615-.442-8.582c-.168-2.454-.244-2.927-.854-3.338a4.347,4.347,0,0,0-2.256-.564,277.431,277.431,0,0,0-35.576-.457c-4.664.244-6.615.61-8.292,2.088-1.219,1.082-1.829,2.866-1.936,5.807s-.244,8.49-.244,8.49l49.584,8.81h.015v-7.133l-31.643-5.381A4.2,4.2,0,0,1-60.485-121.925Z" transform="translate(98.207 134.69)" fill="#aeaeae"/>
</svg>
