<svg id="Grupo_531" data-name="Grupo 531" xmlns="http://www.w3.org/2000/svg" width="99.64" height="66.784" viewBox="0 0 99.64 66.784">
  <g id="Grupo_328" data-name="Grupo 328" transform="translate(0 0)">
    <path id="Trazado_283" data-name="Trazado 283" d="M340.37,360.238s-4.13,1.2-12.133,6.115c-7.189,4.419-10.007,7.388-10.007,7.388l-22.141-15.3s9.317-6.852,17.1-1.6L323.633,364l1.272-.838-28.817-20.187s4.144-1.2,12.148-6.117c7.189-4.419,9.992-7.39,9.992-7.39l22.154,15.306s-9.317,6.853-17.1,1.6l-10.441-7.162-1.272.834,28.8,20.191" transform="translate(-268.49 -329.466)" fill="#aeaeae"/>
    <path id="Trazado_284" data-name="Trazado 284" d="M320.612,367.607H303.753v3.747h8.138l-8.424,7.87v3.14h17.118V378.6h-8.518l8.544-7.85v-3.145" transform="translate(-265.876 -315.957)" fill="#aeaeae"/>
    <path id="Trazado_285" data-name="Trazado 285" d="M298.563,382.741c6.742,0,8.476-1.72,8.476-5.516v-9.619h-5.349v9.043c0,1.518-1.3,2.423-3.127,2.423-1.9,0-3.116-.909-3.116-2.446v-9.02H290.1v9.619c0,3.8,1.732,5.516,8.464,5.516" transform="translate(-270.611 -315.957)" fill="#aeaeae"/>
    <path id="Trazado_286" data-name="Trazado 286" d="M325.563,382.741c6.742,0,8.476-1.72,8.476-5.516v-9.619h-5.349v9.043c0,1.518-1.3,2.423-3.127,2.423-1.9,0-3.116-.909-3.116-2.446v-9.02H317.1v9.619c0,3.8,1.732,5.516,8.464,5.516" transform="translate(-261.048 -315.957)" fill="#aeaeae"/>
    <path id="Trazado_287" data-name="Trazado 287" d="M350.743,367.607h-5.565v14.758h5.565V367.607" transform="translate(-251.103 -315.957)" fill="#aeaeae"/>
    <path id="Trazado_288" data-name="Trazado 288" d="M349.485,367.607h-7.341l-5.917,5.091v-5.091h-5.579v14.758h5.579v-5.234l5.5,5.234h7.489l-8.153-7.572,8.424-7.186" transform="translate(-256.249 -315.957)" fill="#aeaeae"/>
    <path id="Trazado_289" data-name="Trazado 289" d="M282.032,371.8c0-1.142,1.693-1.178,2.261-1.178a3.221,3.221,0,0,1,2.735,1.664h6.3c0-2.779-2.627-4.99-9.005-4.99-7.1,0-8.3,3.108-8.3,4.893,0,3.293,2.559,4.258,8.1,4.848.475.05,3.358-.085,3.358,1.3,0,1.031-1.625,1.1-2.206,1.1a2.824,2.824,0,0,1-2.628-1.728h-6.933c0,3.239,2.18,5.112,9.548,5.112,6.771,0,8.571-2.767,8.571-4.871,0-2.043-1.393-4.121-7.177-4.86-2.409-.313-4.618-.444-4.618-1.288" transform="translate(-275.708 -316.068)" fill="#aeaeae"/>
  </g>
</svg>
