<svg id="Grupo_2883" data-name="Grupo 2883" xmlns="http://www.w3.org/2000/svg" width="122" height="52.553" viewBox="0 0 122 52.553">
  <g id="Grupo_2833" data-name="Grupo 2833" transform="translate(0 0)">
    <g id="Grupo_544" data-name="Grupo 544" transform="translate(66.004 15.467)">
      <path id="Trazado_345" data-name="Trazado 345" d="M-4352.1,1561.818h2.678a16.246,16.246,0,0,1,3.035.183,3.461,3.461,0,0,1,1.947,1.177,3.355,3.355,0,0,1,.75,2.219,3.6,3.6,0,0,1-.517,1.931,3.223,3.223,0,0,1-1.477,1.258,6.773,6.773,0,0,1-2.653.436l4.834,6.243h-1.663l-5.594-7.56v7.56h-1.344Zm1.343,1.316v4.571l2.317.019a5.76,5.76,0,0,0,1.991-.259,2.077,2.077,0,0,0,1.008-.818,2.269,2.269,0,0,0,.361-1.257,2.183,2.183,0,0,0-.366-1.229,2.045,2.045,0,0,0-.962-.791,5.848,5.848,0,0,0-1.977-.237Z" transform="translate(4353.073 -1561.804)" fill="#fff"/>
      <path id="Trazado_346" data-name="Trazado 346" d="M-4158.735,1575.223v-13.446h2.789a14.243,14.243,0,0,1,4.377.485,5.854,5.854,0,0,1,3.058,2.377,7.227,7.227,0,0,1,1.1,4.031,7.067,7.067,0,0,1-.873,3.555,5.594,5.594,0,0,1-2.266,2.265,8.538,8.538,0,0,1-3.907.731Zm1.288-1.271h1.553a14.46,14.46,0,0,0,3.867-.347,4.454,4.454,0,0,0,2.385-1.776,5.463,5.463,0,0,0,.869-3.137,5.766,5.766,0,0,0-.941-3.325,4.749,4.749,0,0,0-2.625-1.891,15.871,15.871,0,0,0-4.158-.384h-.951Z" transform="translate(4181.787 -1561.762)" fill="#fff"/>
      <path id="Trazado_347" data-name="Trazado 347" d="M-3953.628,1561.818h2.678a16.241,16.241,0,0,1,3.035.183,3.463,3.463,0,0,1,1.947,1.177,3.348,3.348,0,0,1,.75,2.219,3.586,3.586,0,0,1-.517,1.931,3.219,3.219,0,0,1-1.477,1.258,6.77,6.77,0,0,1-2.652.436l4.834,6.243h-1.663l-5.593-7.56v7.56h-1.344Zm1.344,1.316v4.571l2.316.019a5.767,5.767,0,0,0,1.991-.259,2.068,2.068,0,0,0,1.007-.818,2.265,2.265,0,0,0,.362-1.257,2.179,2.179,0,0,0-.366-1.229,2.044,2.044,0,0,0-.961-.791,5.852,5.852,0,0,0-1.978-.237Z" transform="translate(4000.103 -1561.804)" fill="#fff"/>
      <path id="Trazado_348" data-name="Trazado 348" d="M-4268.282,1561.889h-.331l-6.352,13.445h1.5l5.014-10.589,4.989,10.589h1.451Z" transform="translate(4284.743 -1561.875)" fill="#fff"/>
      <path id="Trazado_349" data-name="Trazado 349" d="M-4062.878,1561.889h-.332l-6.353,13.446h1.5l5.013-10.589,4.989,10.589h1.45Z" transform="translate(4102.798 -1561.875)" fill="#fff"/>
      <path id="Trazado_350" data-name="Trazado 350" d="M-4355.244,1701.643l-.434.333a2.359,2.359,0,0,0-.859-.707,2.513,2.513,0,0,0-1.1-.241,2.432,2.432,0,0,0-1.217.315,2.259,2.259,0,0,0-.868.847,2.338,2.338,0,0,0-.308,1.2,2.247,2.247,0,0,0,.687,1.675,2.393,2.393,0,0,0,1.737.671,2.445,2.445,0,0,0,1.93-.906l.433.328a2.783,2.783,0,0,1-1.025.808,3.213,3.213,0,0,1-1.37.285,2.85,2.85,0,0,1-2.272-.959,2.886,2.886,0,0,1-.7-1.955,2.713,2.713,0,0,1,.846-2.029,2.909,2.909,0,0,1,2.116-.823,3.112,3.112,0,0,1,1.388.3A2.7,2.7,0,0,1-4355.244,1701.643Z" transform="translate(4360.607 -1684.641)" fill="#fff"/>
      <path id="Trazado_351" data-name="Trazado 351" d="M-4310.31,1700.519a2.845,2.845,0,0,1,2.087.832,2.884,2.884,0,0,1,.016,4.08,2.884,2.884,0,0,1-2.058.853,2.811,2.811,0,0,1-2.061-.835,2.745,2.745,0,0,1-.84-2.023,2.92,2.92,0,0,1,.382-1.466,2.829,2.829,0,0,1,2.474-1.44Zm.025.534a2.346,2.346,0,0,0-2.007,1.173,2.381,2.381,0,0,0-.306,1.2,2.308,2.308,0,0,0,2.289,2.329h.025a2.347,2.347,0,0,0,1.182-.31,2.228,2.228,0,0,0,.85-.848,2.366,2.366,0,0,0,.3-1.2,2.317,2.317,0,0,0-.3-1.182,2.273,2.273,0,0,0-.857-.845,2.32,2.32,0,0,0-1.177-.321Z" transform="translate(4318.584 -1684.673)" fill="#fff"/>
      <path id="Trazado_352" data-name="Trazado 352" d="M-4259.393,1707.228v-5.489h.12l3.652,4.205v-4.205h.542v5.489h-.124l-3.624-4.156v4.156Z" transform="translate(4270.95 -1685.755)" fill="#fff"/>
      <path id="Trazado_353" data-name="Trazado 353" d="M-4217.928,1702.277v-.538h3.006v.538h-1.22v4.952h-.562v-4.952Z" transform="translate(4234.221 -1685.755)" fill="#fff"/>
      <path id="Trazado_354" data-name="Trazado 354" d="M-4186.215,1701.71h1.094a6.66,6.66,0,0,1,1.238.075,1.412,1.412,0,0,1,.795.481,1.374,1.374,0,0,1,.306.906,1.468,1.468,0,0,1-.21.789,1.329,1.329,0,0,1-.6.514,2.782,2.782,0,0,1-1.083.177l1.974,2.548h-.679l-1.974-2.548h-.311v2.548h-.548Zm.547.538v1.866l.946.007a2.331,2.331,0,0,0,.813-.1.844.844,0,0,0,.412-.333.92.92,0,0,0,.147-.513.884.884,0,0,0-.15-.5.84.84,0,0,0-.392-.323,2.383,2.383,0,0,0-.808-.1Z" transform="translate(4206.129 -1685.726)" fill="#fff"/>
      <path id="Trazado_355" data-name="Trazado 355" d="M-4149.8,1700.519a2.851,2.851,0,0,1,2.088.832,2.884,2.884,0,0,1,.013,4.08,2.88,2.88,0,0,1-2.058.853,2.809,2.809,0,0,1-2.06-.835,2.743,2.743,0,0,1-.84-2.023,2.915,2.915,0,0,1,.381-1.466,2.828,2.828,0,0,1,2.473-1.44Zm.025.534a2.252,2.252,0,0,0-1.154.318,2.29,2.29,0,0,0-.854.855,2.388,2.388,0,0,0-.3,1.2,2.309,2.309,0,0,0,2.288,2.329h.026a2.341,2.341,0,0,0,1.181-.31,2.221,2.221,0,0,0,.851-.848,2.391,2.391,0,0,0,.3-1.2,2.33,2.33,0,0,0-.3-1.182,2.285,2.285,0,0,0-.857-.846,2.323,2.323,0,0,0-1.175-.32Z" transform="translate(4176.404 -1684.673)" fill="#fff"/>
      <path id="Trazado_356" data-name="Trazado 356" d="M-4096.545,1701.739h.549v4.959h2.112v.53h-2.659Z" transform="translate(4126.699 -1685.755)" fill="#fff"/>
      <path id="Trazado_357" data-name="Trazado 357" d="M-4043.647,1702.277v-.538h3.008v.538h-1.223v4.952h-.56v-4.952Z" transform="translate(4079.841 -1685.755)" fill="#fff"/>
      <path id="Trazado_358" data-name="Trazado 358" d="M-4016.218,1700.519a2.847,2.847,0,0,1,2.088.832,2.886,2.886,0,0,1,.016,4.08,2.889,2.889,0,0,1-2.06.853,2.809,2.809,0,0,1-2.06-.835,2.753,2.753,0,0,1-.841-2.023,2.925,2.925,0,0,1,.382-1.466,2.829,2.829,0,0,1,2.474-1.44Zm.025.534a2.258,2.258,0,0,0-1.155.318,2.28,2.28,0,0,0-.852.855,2.38,2.38,0,0,0-.307,1.2,2.309,2.309,0,0,0,2.288,2.329h.026a2.35,2.35,0,0,0,1.182-.31,2.215,2.215,0,0,0,.848-.848,2.388,2.388,0,0,0,.306-1.2,2.332,2.332,0,0,0-.306-1.182,2.265,2.265,0,0,0-.856-.846,2.321,2.321,0,0,0-1.176-.32Z" transform="translate(4058.075 -1684.673)" fill="#fff"/>
      <path id="Trazado_359" data-name="Trazado 359" d="M-3968.2,1702.277v-.538h3.007v.538h-1.223v4.952h-.563v-4.952Z" transform="translate(4013.011 -1685.755)" fill="#fff"/>
      <path id="Trazado_360" data-name="Trazado 360" d="M-3942.743,1701.739l2.56,5.489h-.593l-.863-1.806H-3944l-.855,1.806h-.611l2.593-5.489Zm-.07,1.165-.94,1.987h1.876Z" transform="translate(3992.875 -1685.755)" fill="#fff"/>
      <path id="Trazado_361" data-name="Trazado 361" d="M-3893.542,1701.739h.549v4.959h2.112v.53h-2.661Z" transform="translate(3946.877 -1685.755)" fill="#fff"/>
    </g>
    <g id="Grupo_545" data-name="Grupo 545">
      <path id="Trazado_362" data-name="Trazado 362" d="M-4847.534,1491.085a23.494,23.494,0,0,0-5.167-10.231,24.06,24.06,0,0,0-4.242-3.83,23.563,23.563,0,0,0-5.013-2.67,23.226,23.226,0,0,0-5.479-1.358,23.805,23.805,0,0,0-5.6.014,22.577,22.577,0,0,0-10.269,3.987,23.149,23.149,0,0,0-4.058,3.7,22.955,22.955,0,0,0-3.019,4.545,22.363,22.363,0,0,0-1.812,5.111,22.705,22.705,0,0,0-.508,5.131h0l.213,8.346.249-7.881h0l.009-.24a22.054,22.054,0,0,1,.789-5.17,21.369,21.369,0,0,1,2.006-4.788,21.022,21.022,0,0,1,7.068-7.354,20.58,20.58,0,0,1,9.553-3.106,21.368,21.368,0,0,1,5,.273,20.135,20.135,0,0,1,8.956,4.03,20.733,20.733,0,0,1,3.439,3.485,20.3,20.3,0,0,1,2.47,4.18,19.86,19.86,0,0,1,1.365,4.618,20.3,20.3,0,0,1,.2,4.781,19.761,19.761,0,0,1-.956,4.646,19.42,19.42,0,0,1-2.044,4.236,19.758,19.758,0,0,1-2.993,3.588l3.783,3.782a25.044,25.044,0,0,0,3.535-4.773,23.962,23.962,0,0,0,3.105-11.264A24.635,24.635,0,0,0-4847.534,1491.085Z" transform="translate(4897.95 -1467.524)" fill="#afd625"/>
      <path id="Trazado_363" data-name="Trazado 363" d="M-4812.678,1532.98a18.146,18.146,0,0,0-7.324-10.845,18.141,18.141,0,0,0-3.882-2.042,17.905,17.905,0,0,0-4.226-1.023,18.329,18.329,0,0,0-4.313.032,17.709,17.709,0,0,0-4.147,1.068,17.574,17.574,0,0,0-3.731,2.033,17.719,17.719,0,0,0-3.1,2.855,17.477,17.477,0,0,0-2.3,3.494,17.054,17.054,0,0,0-1.365,3.918,17.308,17.308,0,0,0-.366,4.1l.013.484h0l.464,13.054.469-13.537.016-.453h0a16.163,16.163,0,0,1,.582-3.352,15.644,15.644,0,0,1,1.5-3.508,15.384,15.384,0,0,1,5.218-5.357,15.363,15.363,0,0,1,3.376-1.548,15.229,15.229,0,0,1,3.62-.67,15.542,15.542,0,0,1,3.644.226,14.587,14.587,0,0,1,8.962,5.522,14.69,14.69,0,0,1,1.763,3.041,14.272,14.272,0,0,1,.959,3.341,14.685,14.685,0,0,1,.116,3.448,14.276,14.276,0,0,1-.715,3.335,13.906,13.906,0,0,1-1.494,3.026,14.169,14.169,0,0,1-2.166,2.552l3.782,3.782a19.333,19.333,0,0,0,2.731-3.723,18.6,18.6,0,0,0,2.376-8.756A19.076,19.076,0,0,0-4812.678,1532.98Z" transform="translate(4857.847 -1508.378)" fill="#afd625"/>
      <path id="Trazado_364" data-name="Trazado 364" d="M-4785.551,1582.8a8.288,8.288,0,0,0,2.692-5.12,8.619,8.619,0,0,0-1.358-5.863,8.9,8.9,0,0,0-5.037-3.7,9.348,9.348,0,0,0-6.465.507,9.753,9.753,0,0,0-4.722,4.774l-.17.4a3.265,3.265,0,0,0-.16.407l-.26.841-.173.864c-.05.291-.065.586-.1.88l-.021.222-.013.238-.019.481-.042.96-.083,1.921-.668,15.366-.669-15.369-.084-1.921-.042-.96-.021-.481-.008-.241v-.259c.007-.344-.005-.691.023-1.035l.116-1.035.217-1.022a4.493,4.493,0,0,1,.147-.5l.161-.5a12.112,12.112,0,0,1,5.348-6.4c.318-.167.633-.344.96-.5l1.006-.413c.344-.112.693-.212,1.042-.315a4.492,4.492,0,0,1,.532-.12l.538-.1a12.77,12.77,0,0,1,4.38.054,12.581,12.581,0,0,1,7.519,4.58,12.987,12.987,0,0,1,2.794,8.591,13.32,13.32,0,0,1-3.58,8.553Z" transform="translate(4818.462 -1548.849)" fill="#afd625"/>
      <path id="Trazado_365" data-name="Trazado 365" d="M-4938.556,1457.209l-.039-1.7c-.015-.568-.03-1.135-.024-1.7a26.811,26.811,0,0,1,1.928-10.06,27.8,27.8,0,0,1,20.723-16.956,28.717,28.717,0,0,1,7.058-.409c.3.01.591.046.886.075l.884.093.88.135.443.069c.146.025.292.058.437.088l.875.181c.291.065.577.146.864.218.583.137,1.146.327,1.716.5.287.083.561.2.841.3s.563.2.837.317c.549.236,1.106.453,1.639.725a29.177,29.177,0,0,1,3.139,1.747l.745.5.372.253.36.27.721.54.7.573.347.287c.115.1.224.2.336.3l.667.608c.218.208.429.424.642.637s.428.425.626.652l.608.67c.2.226.387.463.582.695.394.459.742.953,1.107,1.436a29.468,29.468,0,0,1,3.455,6.38l.313.858c.051.143.107.286.154.431l.136.436.269.874.229.89a28.85,28.85,0,0,1,.857,7.266c.011.614-.038,1.226-.065,1.839-.009.307-.052.611-.08.918s-.059.612-.1.917l-.142.913-.071.456-.094.453-.187.906c-.072.3-.154.6-.229.9a29.168,29.168,0,0,1-2.787,6.865c-.144.275-.31.538-.471.8s-.32.533-.489.793c-.354.511-.684,1.04-1.066,1.529l-.563.745-.6.719-.3.359-.314.346-.63.691-3.786-3.782.546-.542.272-.27.259-.284.517-.568.494-.592c.339-.388.63-.812.945-1.219.151-.208.291-.424.437-.637s.294-.424.424-.647a24.241,24.241,0,0,0,2.608-5.612c.076-.248.158-.494.231-.744l.194-.754.1-.378.08-.382.157-.765c.048-.259.082-.514.123-.771s.088-.518.108-.776c.05-.518.12-1.035.133-1.561a24.673,24.673,0,0,0-.427-6.262l-.157-.773-.194-.765-.1-.383c-.033-.129-.076-.252-.114-.378l-.233-.755a25.82,25.82,0,0,0-2.742-5.71c-.3-.438-.582-.89-.911-1.31-.16-.212-.314-.431-.481-.638l-.507-.618c-.166-.21-.345-.406-.525-.6s-.355-.4-.539-.593l-.565-.568c-.095-.094-.187-.191-.284-.283l-.3-.27-.593-.541-.618-.512-.31-.259-.324-.241-.643-.484a26.326,26.326,0,0,0-2.737-1.7c-.466-.269-.96-.488-1.442-.727-.242-.12-.5-.214-.741-.323s-.493-.221-.75-.307c-.507-.185-1.011-.382-1.53-.532-.259-.078-.518-.167-.777-.237l-.786-.2c-.13-.032-.262-.071-.395-.1l-.4-.082-.8-.164-.806-.124c-.268-.04-.536-.087-.808-.108a26.532,26.532,0,0,0-6.529.063,26.107,26.107,0,0,0-12.1,4.945,26.673,26.673,0,0,0-8.327,10.293,27.436,27.436,0,0,0-2.005,6.431,27.789,27.789,0,0,0-.373,3.37c-.034.565-.047,1.134-.059,1.7Z" transform="translate(4938.621 -1426.314)" fill="#afd625"/>
      <path id="Trazado_366" data-name="Trazado 366" d="M-4759.422,1640.578l-1.336-22.812-.084-1.423c-.01-.105-.008-.268-.007-.416s0-.3.007-.453a7.077,7.077,0,0,1,.119-.9c.032-.15.061-.3.1-.447l.136-.438a3.838,3.838,0,0,1,.163-.43c.062-.141.118-.284.187-.422a7.187,7.187,0,0,1,.467-.8c.088-.13.169-.259.267-.379l.3-.359a7.034,7.034,0,0,1,1.412-1.23,7.279,7.279,0,0,1,.82-.473c.142-.073.29-.129.438-.191a3.915,3.915,0,0,1,.447-.167,7.415,7.415,0,0,1,5.667.437,7.093,7.093,0,0,1,.849.509,7.347,7.347,0,0,1,.783.614,7.6,7.6,0,0,1,1.294,1.527l.138.212.124.222.237.45.194.47.1.238.076.244.145.492.1.5.047.253.026.255.044.512a7.883,7.883,0,0,1-.178,2.061,8.04,8.04,0,0,1-1.94,3.694l-3.783-3.782a2.823,2.823,0,0,0,.872-1.192,2.945,2.945,0,0,0,.18-.76c0-.065,0-.132.009-.2l.008-.1-.008-.1c0-.065-.006-.134-.007-.2s-.021-.129-.031-.2l-.014-.1-.026-.1c-.018-.064-.035-.129-.048-.2s-.05-.129-.072-.194l-.034-.1-.048-.093a3.2,3.2,0,0,0-.452-.716,3.379,3.379,0,0,0-.3-.31,3.054,3.054,0,0,0-.341-.275,3.2,3.2,0,0,0-.785-.4,3.471,3.471,0,0,0-1.822-.138,1.342,1.342,0,0,0-.23.053c-.076.023-.155.036-.229.065a3.754,3.754,0,0,0-.441.185,3.585,3.585,0,0,0-.814.54l-.184.169a2.245,2.245,0,0,0-.166.185,3.852,3.852,0,0,0-.31.4c-.048.07-.085.145-.129.217a1.417,1.417,0,0,0-.12.224l-.108.232-.083.242a4.039,4.039,0,0,0-.136.5c-.015.085-.02.173-.036.259s-.025.2-.031.3l-.082,1.423Z" transform="translate(4781.15 -1588.025)" fill="#afd625"/>
    </g>
  </g>
</svg>
