<svg id="Grupo_526" data-name="Grupo 526" xmlns="http://www.w3.org/2000/svg" width="69.946" height="69.946" viewBox="0 0 69.946 69.946">
  <g id="Grupo_21" data-name="Grupo 21">
    <path id="Trazado_1" data-name="Trazado 1" d="M1582.728,70.6a34.973,34.973,0,1,0,35.058,35.032A34.9,34.9,0,0,0,1582.728,70.6Zm10.433,5.023c-3.4,7.633-6.774,15.2-10.146,22.773l-.394.012c-3.363-7.543-6.725-15.084-10.152-22.767A30.535,30.535,0,0,1,1593.161,75.623ZM1567.566,77.8c1.544,3.441,3.054,6.809,4.566,10.177,2.287,5.1,4.584,10.187,6.852,15.292a1.317,1.317,0,0,0,1.4.923c1.528-.043,3.06-.062,4.586.006a1.6,1.6,0,0,0,1.764-1.128q5.421-12.192,10.915-24.353c.131-.289.279-.572.441-.907a32.85,32.85,0,0,1,11.34,10.671q-8.153,16.422-16.288,32.811c-.695-.049-.7-.57-.855-.921-1.882-4.282-3.761-8.561-5.6-12.861a1.4,1.4,0,0,0-1.534-1.009c-1.593.062-3.189.051-4.781,0a1.284,1.284,0,0,0-1.387.927c-1.815,4.239-3.669,8.46-5.525,12.681a2.47,2.47,0,0,1-.788,1.263c-.5-.642-15.782-31.326-16.43-32.948A32.587,32.587,0,0,1,1567.566,77.8Zm34.847,52.626a31.59,31.59,0,0,1-49.2-35.805l3.87,7.8q7.266,14.619,14.53,29.238c.256.515.548,1.015,1.2.993.677-.021.972-.535,1.224-1.1q4.113-9.256,8.247-18.5c.115-.26.256-.507.375-.736.558.049.582.478.714.779q4,8.937,7.972,17.88c.105.236.221.47.322.71.211.5.492.937,1.1.962.658.029.964-.418,1.224-.943q3.706-7.468,7.424-14.927c3.655-7.351,7.3-14.7,11.011-22.166A31.5,31.5,0,0,1,1602.413,130.423Z" transform="translate(-1547.84 -70.6)" fill="#aeaeae"/>
  </g>
</svg>
