<svg xmlns="http://www.w3.org/2000/svg" width="128.688" height="124.365" viewBox="0 0 128.688 124.365">
  <g id="Grupo_494" data-name="Grupo 494" transform="translate(0 1.632)">
    <g id="Grupo_515" data-name="Grupo 515">
      <g id="Grupo_212" data-name="Grupo 212">
        <g id="Grupo_207" data-name="Grupo 207">
          <path id="Trazado_178" data-name="Trazado 178" d="M-1076.453,321.906v49.255a11.3,11.3,0,0,0,5.646,9.779l42.653,24.628a11.289,11.289,0,0,0,11.3,0L-974.2,380.94a11.29,11.29,0,0,0,5.65-9.779V321.906a11.3,11.3,0,0,0-5.65-9.784l-42.653-24.628a11.314,11.314,0,0,0-11.3,0l-42.653,24.628A11.3,11.3,0,0,0-1076.453,321.906Z" transform="translate(1095.739 -285.983)" fill="#fff" stroke="#a9af93" stroke-width="3"/>
          <ellipse id="Elipse_15" data-name="Elipse 15" cx="20.828" cy="20.828" rx="20.828" ry="20.828" transform="translate(0 8.946)" fill="#89aa14"/>
          <text id="_04" data-name="04" transform="translate(20.675 36.946)" fill="#fff" stroke="#fff" stroke-width="1" font-size="26" font-family="SegoeUI-Bold, Segoe UI" font-weight="700"><tspan x="-14" y="0">04</tspan></text>
        </g>
      </g>
      <g id="Grupo_216" data-name="Grupo 216" transform="translate(36.737 27.147)">
        <path id="Trazado_208" data-name="Trazado 208" d="M-681.92,169.522l-2.431,4.318c-1.176,0-3.788,0-5.23,0-2.369,0-4.294,1.186-4.9,3.019A10.664,10.664,0,0,0-695,179.44a1.019,1.019,0,0,0,.288.76,1.032,1.032,0,0,0,.755.314h0l3.621.006a6.882,6.882,0,0,0-2.594,5.53,1.16,1.16,0,0,0,.008.135l1.676,13.288a3.959,3.959,0,0,0,3.254,3.8v4.255a2.531,2.531,0,0,0,2.495,2.523h4.371a2.563,2.563,0,0,0,2.531-2.523v-4.189h37.372A11.466,11.466,0,0,0-644.1,213.2a11.469,11.469,0,0,0,6.176,8.211,1.079,1.079,0,0,0,1.032-.047,1.064,1.064,0,0,0,.511-.889v-5.43l3.554-2.377,3.649,2.56-.022,5.25a1.041,1.041,0,0,0,.491.891,1.041,1.041,0,0,0,1.016.049,11.492,11.492,0,0,0,6.338-10.54,11.493,11.493,0,0,0-6.822-10.234V175.6a11.485,11.485,0,0,0,6.821-10.23,11.485,11.485,0,0,0-6.34-10.535,1.053,1.053,0,0,0-1.021.045,1.053,1.053,0,0,0-.5.889V161.2l-3.554,2.377-3.65-2.559.022-5.251a1.04,1.04,0,0,0-.49-.891,1.041,1.041,0,0,0-1.016-.049,11.38,11.38,0,0,0-6.24,8.489,6.73,6.73,0,0,0-1.055-.1h-28.651c-3.227,0-6.091,2.254-8.067,6.311Zm-10.834,8.924a8.632,8.632,0,0,1,.249-.927,2.926,2.926,0,0,1,2.924-1.588c1.063,0,2.763,0,4.053.005l-1.412,2.5Zm12.073,29.078a.476.476,0,0,1-.443.435h-4.37a.443.443,0,0,1-.407-.435v-4.189h5.221Zm-6.635-6.277a1.84,1.84,0,0,1-1.835-1.839,1.024,1.024,0,0,0-.009-.134l-1.68-13.28a4.336,4.336,0,0,1,3.806-4.578,1.074,1.074,0,0,0,.178-.008h49.282v5.973a4.222,4.222,0,0,0-2.82,3.842,4.222,4.222,0,0,0,2.82,3.842v5.575a7.117,7.117,0,0,0-1.071.606Zm36.094-21.926a5,5,0,0,1,4.848-4.076,5,5,0,0,1,4.848,4.076Zm13.648,10.388v3.03a2.55,2.55,0,0,1-.732-1.515,2.545,2.545,0,0,1,.732-1.515Zm-.928-32.074-.008,3.92a1.043,1.043,0,0,0,.448.859l4.69,3.281a1.042,1.042,0,0,0,1.178.013l4.612-3.082a1.028,1.028,0,0,0,.449-.869v-4.115a9.157,9.157,0,0,1,3.712,7.475,9.466,9.466,0,0,1-6.137,8.805,1.073,1.073,0,0,0-.708.978v26.44a1.079,1.079,0,0,0,.716.977,9.459,9.459,0,0,1,6.127,8.806,9.333,9.333,0,0,1-3.7,7.483l.018-3.921a1.042,1.042,0,0,0-.443-.859l-4.688-3.281a1.042,1.042,0,0,0-1.176-.013l-4.612,3.082a1.027,1.027,0,0,0-.449.869V218.6a9.159,9.159,0,0,1-3.713-7.476,9.444,9.444,0,0,1,4.339-7.923.954.954,0,0,0,.116-.077,8.907,8.907,0,0,1,1.6-.805,1.008,1.008,0,0,0,.64-.977V174.9a1.01,1.01,0,0,0-.641-.978,9.4,9.4,0,0,1-5.991-7.444,9.4,9.4,0,0,1,3.617-8.844Zm-5.816,7.778a11.744,11.744,0,0,0,6.743,10.188v3.721h-1.843a7.008,7.008,0,0,0-6.957-6.164,7.008,7.008,0,0,0-6.958,6.164h-31.737l4.982-8.8c.01-.019.021-.046.03-.066.932-1.921,2.976-5.151,6.2-5.151H-645.2a4.114,4.114,0,0,1,.886.113Zm0,0" transform="translate(695 -154.717)" fill="#afd625"/>
        <path id="Trazado_209" data-name="Trazado 209" d="M-637.644,372.133a4.027,4.027,0,0,0-4.028,4.028,4.028,4.028,0,0,0,4.028,4.027,4.027,4.027,0,0,0,4.027-4.027,4.031,4.031,0,0,0-4.027-4.028Zm0,5.966a1.938,1.938,0,0,1-1.939-1.938,1.939,1.939,0,0,1,1.939-1.939,1.939,1.939,0,0,1,1.939,1.939,1.94,1.94,0,0,1-1.939,1.938Zm0,0" transform="translate(649.639 -339.653)" fill="#afd625"/>
        <path id="Trazado_210" data-name="Trazado 210" d="M-556.784,370.951h27.629a1.09,1.09,0,0,0,.85-.467,1.09,1.09,0,0,0,.139-.959l-.953-2.774a5.312,5.312,0,0,0-4.793-3.407H-552.1a5.238,5.238,0,0,0-4.764,3.422l-.911,2.773a1.087,1.087,0,0,0,.148.96,1.066,1.066,0,0,0,.845.453Zm1.9-3.507a3.207,3.207,0,0,1,2.778-2.012h18.191a3.274,3.274,0,0,1,2.816,2.014l.483,1.417h-24.733Zm0,0" transform="translate(578.32 -332.177)" fill="#afd625"/>
        <path id="Trazado_211" data-name="Trazado 211" d="M-541.453,424.25H-575.53a1.044,1.044,0,0,0-1.044,1.044,1.044,1.044,0,0,0,1.044,1.044h34.077a1.044,1.044,0,0,0,1.044-1.044,1.044,1.044,0,0,0-1.044-1.044Zm0,0" transform="translate(594.266 -383.985)" fill="#afd625"/>
      </g>
    </g>
  </g>
</svg>
