<svg id="Grupo_2" data-name="Grupo 2" xmlns="http://www.w3.org/2000/svg" xmlns:xlink="http://www.w3.org/1999/xlink" width="128.347" height="140.584" viewBox="0 0 128.347 140.584">
  <defs>
    <clipPath id="clip-path">
      <rect id="Rectángulo_491" data-name="Rectángulo 491" width="128.347" height="140.584" fill="#aeaeae"/>
    </clipPath>
  </defs>
  <g id="Grupo_537" data-name="Grupo 537" clip-path="url(#clip-path)">
    <path id="Trazado_343" data-name="Trazado 343" d="M74.12,0c3.407.2,6.814.419,10.222.612a352.735,352.735,0,0,1,38.685,4.374q2.133.359,4.262.732a3.089,3.089,0,0,1,.554.244c.144,4.5.338,9.03.425,13.566a236.645,236.645,0,0,1-1.515,35.383c-2.8,21.392-10.063,40.9-24.189,57.517a104.891,104.891,0,0,1-37.428,27.995,2.768,2.768,0,0,1-2.05-.078c-31.447-14.733-51.37-38.876-59.24-72.8A150.59,150.59,0,0,1,.274,39.6C.242,38.8.094,38.018,0,37.229V17.01C.19,13.3.379,9.593.576,5.729,5.705,4.945,10.743,4,15.823,3.436c9.438-1.054,18.9-1.92,28.356-2.8,3.34-.31,6.7-.43,10.048-.637ZM3.834,9.182c0,4.919.048,9.672-.009,14.423-.178,14.685.507,29.3,3.9,43.655C15.2,98.93,33.79,121.725,62.91,136.025a3.044,3.044,0,0,0,2.327.09c20.323-9.7,36.028-24.29,46.489-44.326,8.2-15.7,11.6-32.669,12.364-50.169.455-10.351.079-20.739.122-31.11,0-1.108-.394-1.431-1.444-1.569-6.3-.83-12.583-1.814-18.889-2.6a327.8,327.8,0,0,0-40.962-2.3A349.374,349.374,0,0,0,20.218,6.8c-5.293.66-10.559,1.528-16.383,2.381" transform="translate(0 -0.001)" fill="#aeaeae"/>
    <path id="Trazado_344" data-name="Trazado 344" d="M34.479,40.771a349.88,349.88,0,0,1,116.04-.036c0,2.406-.041,4.745.007,7.083.29,14.075.054,28.117-2.452,42.028-6.014,33.389-23.924,57.948-54.3,73.281a2.47,2.47,0,0,1-2.51-.049C63.275,148.97,45.518,126.763,38.327,96.2c-3.067-13.036-3.863-26.3-3.849-39.64.005-5.235,0-10.469,0-15.789M98.82,145.088c.453-.767.813-1.286,1.082-1.848a16.244,16.244,0,0,1,4.578-5.679q7.48-6.041,14.862-12.2a5.187,5.187,0,0,0,1.712-2.371A65.692,65.692,0,0,0,123,102.022a8.063,8.063,0,0,0-1.863-4.983c-2.8-3.3-5.539-6.644-8.345-9.935a14.2,14.2,0,0,0-2.033-1.577c.2.956.319,1.417.393,1.886.849,5.36,1.95,10.6,6.539,14.25a2.319,2.319,0,0,1,.658.9c.482,1.166,1.285,2.35,1.3,3.533.046,5.123-.139,10.247-.255,15.371a3.847,3.847,0,0,1-1.646,2.943c-6.189,5.21-12.64,10.136-18.009,16.213a10.873,10.873,0,0,1-.321-8.116c.747-2.573,1.422-5.166,2.129-7.75l-.433-.151c-1.655,4.206-3.325,8.407-4.941,12.628a2.153,2.153,0,0,0,.077,1.4c.788,2.081,1.64,4.137,2.571,6.454M88.7,148.463l.342-.552a24.769,24.769,0,0,1-3.124-2.407,124.724,124.724,0,0,1-15.033-19.136,4.824,4.824,0,0,1-.756-2.384c-.04-3.006.513-5.681,3.151-7.8a22.082,22.082,0,0,0,5.379-6.053c2.157-3.79,3.587-7.986,5.6-11.866,1.7-3.269.128-6.029-.761-8.953a3.06,3.06,0,0,0-.057,1.637,9.173,9.173,0,0,1-1.828,8.533q-6.067,7.768-11.874,15.737a12.6,12.6,0,0,0-1.8,3.979,33.459,33.459,0,0,0-.459,3.974,5.053,5.053,0,0,0,1.139,4.191c4.848,5.83,9.61,11.737,14.636,17.411,1.408,1.589,3.606,2.478,5.442,3.688M91.214,66.2l.026.481c.4,0,.793.012,1.189,0,2.565-.09,5.137-.095,7.691-.308a12.332,12.332,0,0,1,6.194,1.2c1.781.792,3.67,1.768,5.541,1.836a17.89,17.89,0,0,1,9.281,3.059c1.347.868,2.71,1.714,4.093,2.523a15.269,15.269,0,0,0,1.755.762l.234-.373c-2.014-1.821-3.813-3.994-6.09-5.385-4.091-2.5-8.454-4.559-12.739-6.731a7.543,7.543,0,0,0-2.751-.739,143.98,143.98,0,0,0-24.19.1,2.3,2.3,0,0,0-1.589.837c-1.924,3.184-5.012,5.053-7.868,7.19-.6.45-1.215.883-1.822,1.324a2.968,2.968,0,0,0,1.535-.452c3.952-2.123,7.888-4.277,11.864-6.352a6.175,6.175,0,0,1,2.58-.729c6.09-.17,12.182-.267,18.274-.345a9.081,9.081,0,0,1,1.935.4l-.045.238L91.214,66.2M68.721,75.04C66,76.555,62.971,77.561,61.1,80.316A14.012,14.012,0,0,1,58.26,83.08c-2.646,2.159-5.364,4.229-8.017,6.379-.957.776-1.157,1.708,0,2.9l4.124-3.721c.029,2.162-1.62,3.154-2.641,4.526-.331.445-.9,1.219-.759,1.429,1.01,1.479,2.179,2.851,3.3,4.257a5.632,5.632,0,0,0,.942-2.458c.123-1.606.951-2.269,2.515-2.507,2.771-.421,5.511-1.039,8.422-1.606-2.063-2.7-4.092-5.1-7.96-4.69a4.449,4.449,0,0,1,1.532-.984c3.287-1.26,6.6-2.461,9.861-3.777a13.944,13.944,0,0,0,2.373-1.564l-.232-.426c-3.306,2.9-7.511,1.534-11.3,2.36,1.093-.731,2.306-1.211,3.422-1.858.513-.3,1.174-.916,1.183-1.4a4.523,4.523,0,0,1,2.535-3.95,10.963,10.963,0,0,0,1.162-.945M125,112.045c.269-.215.424-.285.5-.4,2.46-4.118,4.927-8.233,7.343-12.377a3.307,3.307,0,0,0,.374-1.7c-.169-4.74-.344-9.481-.643-14.214a2.812,2.812,0,0,0-1.19-1.918c-4.561-2.756-9.18-5.417-13.8-8.068a2.383,2.383,0,0,0-1.66-.4c-2.809,1.017-5.572,2.162-8.351,3.264l.212.711c1.741-.317,3.513-.523,5.216-.984a4.053,4.053,0,0,1,3.989.861c3.577,2.944,7.078,6,11.624,7.5a2.977,2.977,0,0,1,1.555,1.971c.553,2.713.85,5.478,1.284,8.218.81,5.108-2.043,8.967-4.787,12.606-1.2,1.6-1.894,2.881-1.658,4.942m-32.611-5.881c-.182.2-.334.293-.378.424-2.373,7.07-4.789,14.125-7.04,21.234a5.053,5.053,0,0,0,.347,3.373c2.668,5.575,5.485,11.079,8.262,16.6a10.258,10.258,0,0,0,.672,1.023,6.433,6.433,0,0,0-.486-2.769c-1.508-3.873-3.1-7.713-4.543-11.611a6.862,6.862,0,0,1-.377-3.279c.8-5.216,1.815-10.4,2.626-15.614.476-3.06,2.134-6.008.917-9.383m-7.7-36.809c-4.84-.513-8.424,1.877-12.171,3.725-.267.132-.435.461-.655.694-1.489,1.576-2.98,3.15-4.341,4.587,4.364.566,8.712-1.025,13.07-2.544a1.238,1.238,0,0,0,.6-.5c1.139-1.909,2.254-3.832,3.5-5.96m-17.389,24.5-.12.416c1.777.659,3.559,1.3,5.328,1.982,1.46.56,1.879,1.526,1.11,2.864-.929,1.616-2,3.147-3,4.727a5.488,5.488,0,0,1-3.251,2.4c-2.268.677-4.552,2.019-6.431-1a9.134,9.134,0,0,0-.082,2.907c.544,2.22,1.225,4.408,1.908,6.591a1.7,1.7,0,0,0,.793,1.041c.834.283,3.649-1.1,4.185-1.948l-3.632.617c-.239-1.251-.388-2.3-.651-3.328s-.01-1.575,1.058-1.888c1.89-.555,3.769-1.175,5.6-1.9a3.894,3.894,0,0,0,1.807-1.416c1.425-2.314,2.729-4.7,4.042-7.087a1.954,1.954,0,0,0-.857-2.929c-2.563-.81-5.2-1.382-7.809-2.052m33-4.314.314-.133a17.4,17.4,0,0,0-.463-2.461c-1.063-3.159-1.084-6.059,1.322-8.758,1.189-1.334.45-3.089-.237-4.383-.6-1.136-2.049-1.134-3.334-.862-2.507.531-5.012,1.081-7.539,1.5a2.578,2.578,0,0,0-2.289,2.283,6.275,6.275,0,0,0,4.864-.064,24.071,24.071,0,0,1,4.784-1.8,3.142,3.142,0,0,1,2.319.743,1.47,1.47,0,0,1-.046,2.38c-2.774,2.392-2.577,5.165-1.176,8.153.315.671.439,1.43.723,2.119a9.781,9.781,0,0,0,.759,1.28m1.78-36.223c1.169,0,2.227-.03,3.282.006,2.08.072,4.159.209,6.24.247.357.007.722-.34,1.083-.524a5.808,5.808,0,0,0-1.085-.765,3.354,3.354,0,0,0-1.109-.1c-2.322-.1-4.645-.2-6.95-.3V49.911c2.322,0,4.552.034,6.779-.029.445-.013.879-.4,1.318-.61a9.033,9.033,0,0,0-1.336-.708,3.57,3.57,0,0,0-1.114-.052c-1.888,0-3.776,0-5.639,0v-2.1h9l.279-.306c-.309-.286-.614-.814-.929-.82-3.242-.061-6.485-.037-9.816-.037ZM98.3,48.256H92.583a7.445,7.445,0,0,0,0,.976c1.394.17,2.8.287,4.259.417v2.108c-1.51,0-2.937.025-4.363,0-4.554-.094-3.923.873-4.011-4.108-.022-1.233.529-1.554,1.649-1.523,2.186.061,4.375.016,6.562.047.937.013,1.311-.305.864-1.356-2.782,0-5.6-.04-8.419.02a1.857,1.857,0,0,0-2.01,1.866,29.385,29.385,0,0,0,.045,4.634c.069.584.805,1.537,1.269,1.556,3.269.136,6.547.072,9.866.072Zm-39.065-.742c2.8-.213,5.452-.438,8.11-.6.858-.054,1.354-.24.865-1.415l-10.347.769v8.346c3.344-.236,6.579-.438,9.806-.729.327-.03.607-.591.908-.906l-.331-.417-8.975.553V50.927c2.3-.174,4.537-.309,6.76-.538a4.428,4.428,0,0,0,1.362-.678c-.491-.206-.987-.6-1.471-.585-2.214.068-4.424.251-6.689.4Zm68.633,3.091c0-.693,0-1.386,0-2.079a2.035,2.035,0,0,0-1.851-2.238c-2.589-.3-5.194-.508-7.8-.625-1.273-.057-1.922.761-1.921,2.049,0,1.226-.026,2.453,0,3.678.04,1.742.629,2.386,2.385,2.557,1.7.165,3.4.256,5.1.4,3.9.322,4.1.148,4.084-3.739m-82.79,2.85c.235-.036.643-.112,1.055-.161,2.011-.235,4.033-.4,6.033-.71,1.829-.279,2.364-1.241,2.266-3.557-.056-1.325-.6-2.246-2-2.137-3.009.235-6.007.6-9,.917v8.345c2.253,0,.811-1.857,1.643-2.7m37.448-8.749-.57.4c0,1.757-.055,3.517.019,5.271.051,1.2-.436,1.62-1.586,1.62-1.762,0-3.529.039-5.285.171-1.174.089-1.66-.268-1.607-1.5.075-1.751.019-3.507.019-5.322H72.034c0,1.892-.015,3.7,0,5.508.021,1.985.617,2.665,2.558,2.656,2.189-.009,4.378-.137,6.565-.262a2.148,2.148,0,0,0,2.279-2.346c.012-1.657.073-3.317-.028-4.968-.026-.429-.576-.825-.885-1.236M136.3,55.724l.642-.359V48.66l4.677.47.3-.436c-.311-.308-.591-.843-.937-.89-3.372-.454-6.755-.826-10.135-1.221l-.341.49c.377.331.712.867,1.138.953,1.233.247,2.5.313,3.858.461,0,2.085-.05,4,.037,5.916.02.451.5.882.766,1.322m-71.354,49.9c3.514-.192,4.933-2.258,5.9-4.857l-5.9,4.857m-6.612-7.609-.428-.282-2.257,1.534,2.191,2.515c.2-1.5.345-2.635.494-3.768m8.649-16.926.789.644,1.505-1.581c-.362-.192-.925-.633-1.049-.532a9.145,9.145,0,0,0-1.245,1.469" transform="translate(-28.377 -29.555)" fill="#aeaeae"/>
    <path id="Trazado_345" data-name="Trazado 345" d="M510.248,104.473l-4.454-.357a.957.957,0,0,1-.317-.022c-2.242-1.078-.777-3.068-1.067-4.613-.221-1.178.8-1.1,1.641-1.028,1.854.168,3.713.287,5.565.48.437.045,1.205.279,1.22.471a44.188,44.188,0,0,1,.071,4.724c-.005.161-.583.411-.907.431a12.276,12.276,0,0,1-1.748-.123Z" transform="translate(-414.982 -81.001)" fill="#aeaeae"/>
    <path id="Trazado_346" data-name="Trazado 346" d="M93.012,109.428v-3.046c2.409-.278,4.813-.6,7.227-.779.3-.022.854.662.934,1.086.154.821.2,1.806-1.015,1.954-2.314.282-4.635.513-7.147.786" transform="translate(-76.553 -86.915)" fill="#aeaeae"/>
  </g>
</svg>
