<svg xmlns="http://www.w3.org/2000/svg" xmlns:xlink="http://www.w3.org/1999/xlink" width="128.801" height="142.479" viewBox="0 0 128.801 142.479">
  <defs>
    <filter id="Trazado_48" x="0" y="0" width="128.801" height="142.479" filterUnits="userSpaceOnUse">
      <feOffset dy="3" input="SourceAlpha"/>
      <feGaussianBlur stdDeviation="3" result="blur"/>
      <feFlood flood-opacity="0.161"/>
      <feComposite operator="in" in2="blur"/>
      <feComposite in="SourceGraphic"/>
    </filter>
  </defs>
  <g id="Componente_14_1" data-name="Componente 14 – 1" transform="translate(9.5 6.624)">
    <g id="Grupo_218" data-name="Grupo 218">
      <g id="Grupo_186" data-name="Grupo 186">
        <g transform="matrix(1, 0, 0, 1, -9.5, -6.62)" filter="url(#Trazado_48)">
          <path id="Trazado_48-2" data-name="Trazado 48" d="M-1076.453,322.538V372.66a11.5,11.5,0,0,0,5.745,9.951l43.4,25.061a11.489,11.489,0,0,0,11.5,0l43.4-25.061a11.488,11.488,0,0,0,5.749-9.951V322.538a11.5,11.5,0,0,0-5.749-9.956l-43.4-25.061a11.514,11.514,0,0,0-11.5,0l-43.4,25.061A11.5,11.5,0,0,0-1076.453,322.538Z" transform="translate(1085.95 -279.36)" fill="#022644" stroke="#3f51b5" stroke-width="1" opacity="0.77"/>
        </g>
      </g>
    </g>
    <g id="Grupo_409" data-name="Grupo 409" transform="translate(21.145 32.175)">
      <path id="Trazado_219" data-name="Trazado 219" d="M1637.536,411.918H1616.67a6.628,6.628,0,0,1-6.62-6.62V362.931a6.628,6.628,0,0,1,6.62-6.62h31.776a6.628,6.628,0,0,1,6.62,6.62v18.615a1.324,1.324,0,0,1-2.648,0V362.931a3.977,3.977,0,0,0-3.972-3.972H1616.67a3.977,3.977,0,0,0-3.972,3.972V405.3a3.978,3.978,0,0,0,3.972,3.972h20.866a1.324,1.324,0,0,1,0,2.648Zm0,0" transform="translate(-1610.05 -356.311)" fill="#afd625"/>
      <path id="Trazado_220" data-name="Trazado 220" d="M1657.239,401.522h-26.48a1.324,1.324,0,1,1,0-2.648h26.48a1.324,1.324,0,0,1,0,2.648Zm0,0" transform="translate(-1621.491 -381.432)" fill="#afd625"/>
      <path id="Trazado_221" data-name="Trazado 221" d="M1646.647,418.238h-15.888a1.324,1.324,0,0,1,0-2.648h15.888a1.324,1.324,0,0,1,0,2.648Zm0,0" transform="translate(-1621.491 -391.298)" fill="#afd625"/>
      <path id="Trazado_222" data-name="Trazado 222" d="M1644,384.805h-13.24a1.324,1.324,0,0,1,0-2.648H1644a1.324,1.324,0,0,1,0,2.648Zm0,0" transform="translate(-1621.491 -371.565)" fill="#afd625"/>
      <path id="Trazado_224" data-name="Trazado 224" d="M1701.01,428.832a14.078,14.078,0,1,0,4.11,9.942A14.08,14.08,0,0,0,1701.01,428.832Zm-3.032,16.855a9.79,9.79,0,1,1,2.856-6.913A9.722,9.722,0,0,1,1697.978,445.687Z" transform="translate(-1649.573 -396.688)" fill="#afd625"/>
      <rect id="Rectángulo_223" data-name="Rectángulo 223" width="4.704" height="11.973" rx="2.352" transform="translate(8.71 36.719)" fill="#afd625"/>
      <rect id="Rectángulo_224" data-name="Rectángulo 224" width="4.704" height="15.501" rx="2.352" transform="translate(15.231 33.191)" fill="#afd625"/>
      <rect id="Rectángulo_225" data-name="Rectángulo 225" width="4.704" height="19.563" rx="2.352" transform="translate(21.218 29.128)" fill="#afd625"/>
      <g id="Grupo_222" data-name="Grupo 222" transform="translate(48.455 49.598)">
        <path id="Trazado_225" data-name="Trazado 225" d="M1746.789,495.836h0a3.82,3.82,0,0,1-5.679-.31l-12.818-15.966,2.218-2.218,15.969,12.813A3.821,3.821,0,0,1,1746.789,495.836Z" transform="translate(-1728.292 -477.343)" fill="#afd625"/>
      </g>
    </g>
  </g>
</svg>
