<svg xmlns="http://www.w3.org/2000/svg" xmlns:xlink="http://www.w3.org/1999/xlink" width="127.801" height="141.231" viewBox="0 0 127.801 141.231">
  <defs>
    <filter id="Trazado_48" x="0" y="0" width="127.801" height="141.231" filterUnits="userSpaceOnUse">
      <feOffset dy="3" input="SourceAlpha"/>
      <feGaussianBlur stdDeviation="3" result="blur"/>
      <feFlood flood-opacity="0.161"/>
      <feComposite operator="in" in2="blur"/>
      <feComposite in="SourceGraphic"/>
    </filter>
  </defs>
  <g id="Componente_13_1" data-name="Componente 13 – 1" transform="translate(9 6)">
    <g id="Grupo_185" data-name="Grupo 185">
      <g transform="matrix(1, 0, 0, 1, -9, -6)" filter="url(#Trazado_48)">
        <path id="Trazado_48-2" data-name="Trazado 48" d="M-1076.453,322.538V372.66a11.5,11.5,0,0,0,5.745,9.951l43.4,25.061a11.489,11.489,0,0,0,11.5,0l43.4-25.061a11.488,11.488,0,0,0,5.749-9.951V322.538a11.5,11.5,0,0,0-5.749-9.956l-43.4-25.061a11.514,11.514,0,0,0-11.5,0l-43.4,25.061A11.5,11.5,0,0,0-1076.453,322.538Z" transform="translate(1085.45 -279.98)" fill="#afd625"/>
      </g>
    </g>
    <g id="Grupo_410" data-name="Grupo 410" transform="translate(21.491 39.198)">
      <g id="Grupo_232" data-name="Grupo 232" transform="translate(0)">
        <g id="Grupo_434" data-name="Grupo 434">
          <path id="Trazado_226" data-name="Trazado 226" d="M1426.3,630.233l-1.282-.217c0-.024.008-.049.008-.065s-.008-.04-.008-.064l1.282-.226a1.154,1.154,0,0,0,.935-1.338l-.775-4.409a1.155,1.155,0,0,0-1.346-.935l-1.266.217c-.016-.04-.032-.08-.048-.112l1.12-.645a1.168,1.168,0,0,0,.427-1.588l-2.241-3.87a1.153,1.153,0,0,0-1.58-.427l-1.12.645-.089-.089.838-1a1.153,1.153,0,0,0-.144-1.628l-3.426-2.878a1.153,1.153,0,0,0-1.628.145l-.839.992c-.032-.024-.073-.041-.1-.064l.444-1.217a1.157,1.157,0,0,0-.693-1.483l-4.208-1.532a1.165,1.165,0,0,0-1.484.693l-.443,1.217a.6.6,0,0,0-.121-.016v-1.3a1.156,1.156,0,0,0-1.161-1.161h-4.474a1.154,1.154,0,0,0-1.152,1.161v1.3a.777.777,0,0,0-.129.016l-.443-1.217a1.161,1.161,0,0,0-1.484-.693l-4.2,1.532a1.157,1.157,0,0,0-.693,1.483l.443,1.217-.112.064-.83-.992a1.154,1.154,0,0,0-1.628-.145l-3.434,2.878a1.16,1.16,0,0,0-.137,1.628l.83,1c-.025.032-.057.057-.08.089l-1.121-.645a1.15,1.15,0,0,0-1.579.427l-2.241,3.87a1.162,1.162,0,0,0,.427,1.588l1.113.645c-.016.032-.023.073-.04.112l-1.274-.217a1.152,1.152,0,0,0-1.338.935l-.782,4.409a1.165,1.165,0,0,0,.944,1.338l1.273.226v.129l-1.273.217a1.174,1.174,0,0,0-.944,1.346l.782,4.41a1.154,1.154,0,0,0,1.338.935l1.274-.226c.016.039.024.08.04.121l-1.113.645a1.154,1.154,0,0,0-.427,1.579l2.241,3.877a1.157,1.157,0,0,0,1.579.428l1.121-.654c.024.033.056.065.08.1l-.83.992a1.169,1.169,0,0,0,.137,1.636l3.434,2.869a1.152,1.152,0,0,0,1.628-.137l.83-.991c.041.016.073.04.112.056l-.443,1.218a1.166,1.166,0,0,0,.693,1.491l4.2,1.524a1.15,1.15,0,0,0,1.484-.685l.443-1.226.129.025v1.3a1.159,1.159,0,0,0,1.152,1.161h4.474a1.161,1.161,0,0,0,1.161-1.161v-1.3l.121-.025.443,1.226a1.153,1.153,0,0,0,1.484.685l4.208-1.524a1.165,1.165,0,0,0,.693-1.491l-.444-1.218.1-.056.839.991a1.151,1.151,0,0,0,1.628.137l3.426-2.869a1.161,1.161,0,0,0,.144-1.636l-.838-.992c.032-.032.057-.064.089-.1l1.12.654a1.16,1.16,0,0,0,1.58-.428l2.241-3.877a1.16,1.16,0,0,0-.427-1.579l-1.12-.645.048-.121,1.266.226a1.157,1.157,0,0,0,1.346-.935l.775-4.41A1.162,1.162,0,0,0,1426.3,630.233Zm-21.184,12.873a13.155,13.155,0,1,1,13.155-13.156A13.154,13.154,0,0,1,1405.118,643.106Z" transform="translate(-1382.975 -596.857)" fill="#fff"/>
          <g id="Grupo_231" data-name="Grupo 231" transform="translate(10.726 21.684)">
            <ellipse id="Elipse_19" data-name="Elipse 19" cx="2.617" cy="2.617" rx="2.617" ry="2.617" transform="translate(8.708 8.79)" fill="#fff"/>
            <path id="Trazado_227" data-name="Trazado 227" d="M1408.6,620.219l-1.872,5.1a.678.678,0,0,1-1.272,0l-1.854-5.049a.684.684,0,0,1,.525-.9,11.5,11.5,0,0,1,3.938-.055A.683.683,0,0,1,1408.6,620.219Z" transform="translate(-1394.844 -619.168)" fill="#fff"/>
            <path id="Trazado_228" data-name="Trazado 228" d="M1401.549,627.479l-4.83-2.232a.683.683,0,0,1-.268-1.012,11.375,11.375,0,0,1,2.725-2.787.683.683,0,0,1,1.024.261l2.249,4.871A.677.677,0,0,1,1401.549,627.479Z" transform="translate(-1394.442 -619.287)" fill="#fff"/>
            <path id="Trazado_229" data-name="Trazado 229" d="M1400.4,631.81l-4.986,1.827a.683.683,0,0,1-.906-.53,11.48,11.48,0,0,1-.175-2,11.355,11.355,0,0,1,.156-1.872.684.684,0,0,1,.907-.534l5,1.833A.678.678,0,0,1,1400.4,631.81Z" transform="translate(-1394.331 -619.695)" fill="#fff"/>
            <path id="Trazado_230" data-name="Trazado 230" d="M1402.555,635.656l-2.242,4.852a.685.685,0,0,1-1.018.265,11.532,11.532,0,0,1-2.759-2.749.682.682,0,0,1,.263-1.019l4.857-2.248A.677.677,0,0,1,1402.555,635.656Z" transform="translate(-1394.446 -620.03)" fill="#fff"/>
            <path id="Trazado_231" data-name="Trazado 231" d="M1408.751,641.872a.683.683,0,0,1-.534.907,11.67,11.67,0,0,1-3.937-.009.683.683,0,0,1-.533-.906l1.865-5.075a.678.678,0,0,1,1.272,0Z" transform="translate(-1394.852 -620.122)" fill="#fff"/>
            <path id="Trazado_232" data-name="Trazado 232" d="M1415.967,637.961a11.45,11.45,0,0,1-2.816,2.816.684.684,0,0,1-1.018-.264l-2.3-4.968a.677.677,0,0,1,.9-.9l4.968,2.3A.684.684,0,0,1,1415.967,637.961Z" transform="translate(-1395.188 -620.024)" fill="#fff"/>
            <path id="Trazado_233" data-name="Trazado 233" d="M1418.108,631.1a11.267,11.267,0,0,1-.163,1.921.683.683,0,0,1-.906.533l-5.178-1.9a.677.677,0,0,1,0-1.272l5.147-1.887a.685.685,0,0,1,.905.526A11.246,11.246,0,0,1,1418.108,631.1Z" transform="translate(-1395.28 -619.684)" fill="#fff"/>
            <path id="Trazado_234" data-name="Trazado 234" d="M1415.606,625.058l-4.983,2.3a.678.678,0,0,1-.9-.9l2.287-4.937a.684.684,0,0,1,1.009-.268,11.431,11.431,0,0,1,2.847,2.779A.684.684,0,0,1,1415.606,625.058Z" transform="translate(-1395.182 -619.277)" fill="#fff"/>
          </g>
        </g>
        <path id="Trazado_235" data-name="Trazado 235" d="M1427.436,615.923h14.456a5.489,5.489,0,0,1,5.489,5.489v7.676a5.489,5.489,0,0,1-5.489,5.49h-10.514" transform="translate(-1385.443 -597.304)" fill="none" stroke="#fff" stroke-linecap="round" stroke-width="2"/>
        <path id="Trazado_236" data-name="Trazado 236" d="M1390.729,610.481a5.5,5.5,0,0,1-.111-1.107V601.7a5.489,5.489,0,0,1,5.489-5.489h43.432a5.489,5.489,0,0,1,5.489,5.489v7.676a5.49,5.49,0,0,1-5.489,5.49h-13.41" transform="translate(-1383.399 -596.209)" fill="none" stroke="#fff" stroke-linecap="round" stroke-width="2"/>
      </g>
    </g>
  </g>
</svg>
