<svg xmlns="http://www.w3.org/2000/svg" xmlns:xlink="http://www.w3.org/1999/xlink" width="127.801" height="141.231" viewBox="0 0 127.801 141.231">
  <defs>
    <filter id="Trazado_47" x="0" y="0" width="127.801" height="141.231" filterUnits="userSpaceOnUse">
      <feOffset dy="3" input="SourceAlpha"/>
      <feGaussianBlur stdDeviation="3" result="blur"/>
      <feFlood flood-opacity="0.161"/>
      <feComposite operator="in" in2="blur"/>
      <feComposite in="SourceGraphic"/>
    </filter>
  </defs>
  <g id="Componente_23_1" data-name="Componente 23 – 1" transform="translate(9 6)">
    <g id="Grupo_171" data-name="Grupo 171">
      <g transform="matrix(1, 0, 0, 1, -9, -6)" filter="url(#Trazado_47)">
        <path id="Trazado_47-2" data-name="Trazado 47" d="M-1076.453,322.538V372.66a11.494,11.494,0,0,0,5.745,9.951l43.4,25.061a11.489,11.489,0,0,0,11.5,0l43.4-25.061a11.489,11.489,0,0,0,5.749-9.951V322.538a11.5,11.5,0,0,0-5.749-9.956l-43.4-25.061a11.514,11.514,0,0,0-11.5,0l-43.4,25.061A11.5,11.5,0,0,0-1076.453,322.538Z" transform="translate(1085.45 -279.98)" fill="#afd625"/>
      </g>
    </g>
    <g id="Grupo_37" data-name="Grupo 37" transform="translate(25.028 31.574)">
      <g id="Grupo_433" data-name="Grupo 433">
        <g id="Grupo_432" data-name="Grupo 432">
          <path id="Trazado_53" data-name="Trazado 53" d="M-1025.2,316.466h-11.892a49.864,49.864,0,0,0-1.122,8.7h13.015Z" transform="translate(1052.564 -297.713)" fill="none" stroke="#fff" stroke-width="1.5"/>
          <path id="Trazado_54" data-name="Trazado 54" d="M-1011.393,316.466h-11.877v8.7h13.014A49.829,49.829,0,0,0-1011.393,316.466Z" transform="translate(1054.987 -297.713)" fill="none" stroke="#fff" stroke-width="1.5"/>
        </g>
        <path id="Trazado_55" data-name="Trazado 55" d="M-1047.681,327.779h7.126a52.165,52.165,0,0,1,1.066-8.7h-5.938a26.733,26.733,0,0,1,2.454-4.348h4.636a37.194,37.194,0,0,1,3.291-7.531,26.555,26.555,0,0,1,8.132-3.314c-2.863,2.235-5.282,6.036-6.946,10.845h10.669V303.313c.718-.058,1.44-.1,2.173-.1s1.455.047,2.175.1v11.422h10.652c-1.654-4.81-4.079-8.613-6.94-10.848a26.624,26.624,0,0,1,8.142,3.317c.144.248.29.493.429.747-.447-.3-.9-.586-1.371-.844.469.267.925.553,1.375.851a38.614,38.614,0,0,1,2.873,6.777h4.62a26.832,26.832,0,0,1,2.456,4.348h-5.953a50.705,50.705,0,0,1,1.08,8.7h7.125v0h2.879a29.649,29.649,0,0,0-29.541-27.454,29.651,29.651,0,0,0-29.542,27.454h2.88Z" transform="translate(1050.562 -300.33)" fill="none" stroke="#fff" stroke-width="1.5"/>
      </g>
      <g id="Grupo_36" data-name="Grupo 36" transform="translate(0 32.629)">
        <path id="Trazado_56" data-name="Trazado 56" d="M-1023.271,337.105h11.891a49.794,49.794,0,0,0,1.123-8.7h-13.014Z" transform="translate(1054.986 -328.405)" fill="#fff"/>
        <path id="Trazado_57" data-name="Trazado 57" d="M-1037.073,337.105h11.877v-8.7h-13.015A49.653,49.653,0,0,0-1037.073,337.105Z" transform="translate(1052.564 -328.405)" fill="#fff"/>
        <path id="Trazado_58" data-name="Trazado 58" d="M-994.358,328.411h-7.126a52.291,52.291,0,0,1-1.065,8.7h5.937a26.633,26.633,0,0,1-2.454,4.348h-4.635a37.293,37.293,0,0,1-3.291,7.532,26.6,26.6,0,0,1-8.133,3.314c2.862-2.236,5.282-6.037,6.946-10.846h-10.667v11.422c-.718.058-1.44.1-2.173.1s-1.456-.046-2.174-.1V341.454h-10.654c1.655,4.811,4.079,8.613,6.942,10.849a26.593,26.593,0,0,1-8.143-3.318c-.144-.246-.289-.492-.429-.746.448.3.9.586,1.371.842-.468-.267-.924-.552-1.375-.849a38.59,38.59,0,0,1-2.873-6.778h-4.62a26.641,26.641,0,0,1-2.454-4.348h5.952a50.617,50.617,0,0,1-1.08-8.7h-7.125v0h-2.88a29.651,29.651,0,0,0,29.542,27.454,29.65,29.65,0,0,0,29.541-27.454h-2.879Z" transform="translate(1050.561 -328.406)" fill="#fff"/>
      </g>
    </g>
  </g>
</svg>
