<svg xmlns="http://www.w3.org/2000/svg" xmlns:xlink="http://www.w3.org/1999/xlink" width="127.801" height="141.231" viewBox="0 0 127.801 141.231">
  <defs>
    <filter id="Trazado_48" x="0" y="0" width="127.801" height="141.231" filterUnits="userSpaceOnUse">
      <feOffset dy="3" input="SourceAlpha"/>
      <feGaussianBlur stdDeviation="3" result="blur"/>
      <feFlood flood-opacity="0.161"/>
      <feComposite operator="in" in2="blur"/>
      <feComposite in="SourceGraphic"/>
    </filter>
  </defs>
  <g id="Componente_10_1" data-name="Componente 10 – 1" transform="translate(9 6)">
    <g transform="matrix(1, 0, 0, 1, -9, -6)" filter="url(#Trazado_48)">
      <path id="Trazado_48-2" data-name="Trazado 48" d="M-1076.453,322.538V372.66a11.5,11.5,0,0,0,5.745,9.951l43.4,25.061a11.489,11.489,0,0,0,11.5,0l43.4-25.061a11.488,11.488,0,0,0,5.749-9.951V322.538a11.5,11.5,0,0,0-5.749-9.956l-43.4-25.061a11.514,11.514,0,0,0-11.5,0l-43.4,25.061A11.5,11.5,0,0,0-1076.453,322.538Z" transform="translate(1085.45 -279.98)" fill="#afd625"/>
    </g>
    <g id="Grupo_35" data-name="Grupo 35" transform="translate(21.877 37.511)">
      <rect id="Rectángulo_197" data-name="Rectángulo 197" width="3.861" height="3.865" transform="translate(17.381 13.516)" fill="none" stroke="#fff" stroke-width="1"/>
      <path id="Trazado_49" data-name="Trazado 49" d="M-83.086,4366.384v2.729h3.861v-3.865h-2.859A3.908,3.908,0,0,1-83.086,4366.384Z" transform="translate(120.167 -4336.284)" fill="none" stroke="#fff" stroke-width="1"/>
      <rect id="Rectángulo_198" data-name="Rectángulo 198" width="3.861" height="3.865" transform="translate(44.805 28.964)" fill="none" stroke="#fff" stroke-width="1"/>
      <rect id="Rectángulo_199" data-name="Rectángulo 199" width="3.86" height="3.865" transform="translate(9.656 13.516)" fill="none" stroke="#fff" stroke-width="1"/>
      <path id="Trazado_50" data-name="Trazado 50" d="M-94.274,4350.816v3.865h2.859a3.863,3.863,0,0,1,1-1.133v-2.732Z" transform="translate(119.378 -4337.301)" fill="none" stroke="#fff" stroke-width="1"/>
      <rect id="Rectángulo_200" data-name="Rectángulo 200" width="3.86" height="3.865" transform="translate(52.531 28.964)" fill="none" stroke="#fff" stroke-width="1"/>
      <path id="Trazado_51" data-name="Trazado 51" d="M-89.762,4355.571h-2.859v-3.864h3.862v2.731a3.838,3.838,0,0,1,2.322-.8H-79.1v-11.585a3.873,3.873,0,0,0-3.862-3.863h-30.9a3.856,3.856,0,0,0-3.843,3.863l-.019,34.759,7.724-7.724h19.7V4357.5A3.845,3.845,0,0,1-89.762,4355.571Zm-14.448,0h-3.86v-3.864h3.86Zm7.724,0h-3.859v-3.864h3.862Z" transform="translate(117.726 -4338.191)" fill="none" stroke="#fff" stroke-width="2"/>
      <path id="Trazado_52" data-name="Trazado 52" d="M-53.5,4356.486a3.858,3.858,0,0,0-3.843-3.863h-30.9a3.841,3.841,0,0,0-2.322.8v1.133h-1a3.843,3.843,0,0,0-.54,1.931v23.167a3.875,3.875,0,0,0,3.866,3.867h27.031l7.726,7.724ZM-78.588,4370h-3.861v-3.866h3.862Zm7.723,0h-3.86l0-3.866h3.862Zm7.724,0H-67v-3.866h3.859Z" transform="translate(119.531 -4337.174)" fill="#fff"/>
    </g>
  </g>
</svg>
