<svg xmlns="http://www.w3.org/2000/svg" xmlns:xlink="http://www.w3.org/1999/xlink" width="128.801" height="142.479" viewBox="0 0 128.801 142.479">
  <defs>
    <filter id="Trazado_47" x="0" y="0" width="128.801" height="142.479" filterUnits="userSpaceOnUse">
      <feOffset dy="3" input="SourceAlpha"/>
      <feGaussianBlur stdDeviation="3" result="blur"/>
      <feFlood flood-opacity="0.161"/>
      <feComposite operator="in" in2="blur"/>
      <feComposite in="SourceGraphic"/>
    </filter>
  </defs>
  <g id="Componente_15_1" data-name="Componente 15 – 1" transform="translate(9.5 6.624)">
    <g id="Grupo_199" data-name="Grupo 199">
      <g id="Grupo_171" data-name="Grupo 171">
        <g transform="matrix(1, 0, 0, 1, -9.5, -6.62)" filter="url(#Trazado_47)">
          <path id="Trazado_47-2" data-name="Trazado 47" d="M-1076.453,322.538V372.66a11.5,11.5,0,0,0,5.745,9.951l43.4,25.061a11.489,11.489,0,0,0,11.5,0l43.4-25.061a11.488,11.488,0,0,0,5.749-9.951V322.538a11.5,11.5,0,0,0-5.749-9.956l-43.4-25.061a11.514,11.514,0,0,0-11.5,0l-43.4,25.061A11.5,11.5,0,0,0-1076.453,322.538Z" transform="translate(1085.95 -279.36)" fill="#022644" stroke="#3f51b5" stroke-width="1" opacity="0.77"/>
        </g>
      </g>
    </g>
    <path id="Trazado_307" data-name="Trazado 307" d="M217.057,111.11h-6.063l-22.863-4.333h5.96a5.643,5.643,0,0,0,0-11.285h-9.866V90.425H188.3a6.166,6.166,0,0,0,6.162-6.158V77.329a6.166,6.166,0,0,0-6.162-6.158H176.63a6.166,6.166,0,0,0-6.162,6.158v6.938a6.166,6.166,0,0,0,6.162,6.158h4.064v5.067h-9.858a5.643,5.643,0,0,0,0,11.285h6.19l-22.521,4.333h-4.488a6.169,6.169,0,0,0-6.162,6.158v6.938a6.166,6.166,0,0,0,6.162,6.158h11.666a6.163,6.163,0,0,0,6.158-6.158v-6.938a6.136,6.136,0,0,0-3.263-5.4l16.634-3.2v2.443H176.63a6.169,6.169,0,0,0-6.162,6.158v6.938a6.166,6.166,0,0,0,6.162,6.158H188.3a6.166,6.166,0,0,0,6.162-6.158v-6.938a6.169,6.169,0,0,0-6.162-6.158h-4.435v-2.447l18.184,3.446a6.151,6.151,0,0,0-2.814,5.159v6.938a6.163,6.163,0,0,0,6.158,6.158h11.666a6.163,6.163,0,0,0,6.158-6.158v-6.938A6.166,6.166,0,0,0,217.057,111.11ZM173.117,84.267V80.235H191.81v4.032a3.515,3.515,0,0,1-3.513,3.51H176.63A3.515,3.515,0,0,1,173.117,84.267Zm15.18,43.449H176.63a3.515,3.515,0,0,1-3.513-3.51v-4.032H191.81v4.032A3.515,3.515,0,0,1,188.3,127.716Zm-20.455-26.581a3,3,0,0,1,2.994-2.994h23.255a2.994,2.994,0,0,1,0,5.989H170.836A3,3,0,0,1,167.842,101.135Zm-6.158,26.581H150.017a3.515,3.515,0,0,1-3.513-3.51v-4.032h18.689v4.032A3.514,3.514,0,0,1,161.684,127.716Zm55.373,0H205.39a3.514,3.514,0,0,1-3.51-3.51v-4.032h18.686v4.032A3.514,3.514,0,0,1,217.057,127.716Z" transform="translate(-128.448 -40.755)" fill="#afd625"/>
  </g>
</svg>
