<svg xmlns="http://www.w3.org/2000/svg" xmlns:xlink="http://www.w3.org/1999/xlink" width="127.801" height="141.231" viewBox="0 0 127.801 141.231">
  <defs>
    <filter id="Trazado_48" x="0" y="0" width="127.801" height="141.231" filterUnits="userSpaceOnUse">
      <feOffset dy="3" input="SourceAlpha"/>
      <feGaussianBlur stdDeviation="3" result="blur"/>
      <feFlood flood-opacity="0.161"/>
      <feComposite operator="in" in2="blur"/>
      <feComposite in="SourceGraphic"/>
    </filter>
  </defs>
  <g id="Componente_22_1" data-name="Componente 22 – 1" transform="translate(9 6)">
    <g id="Grupo_406" data-name="Grupo 406">
      <g id="Grupo_186" data-name="Grupo 186">
        <g transform="matrix(1, 0, 0, 1, -9, -6)" filter="url(#Trazado_48)">
          <path id="Trazado_48-2" data-name="Trazado 48" d="M-1076.453,322.538V372.66a11.5,11.5,0,0,0,5.745,9.951l43.4,25.061a11.489,11.489,0,0,0,11.5,0l43.4-25.061a11.488,11.488,0,0,0,5.749-9.951V322.538a11.5,11.5,0,0,0-5.749-9.956l-43.4-25.061a11.514,11.514,0,0,0-11.5,0l-43.4,25.061A11.5,11.5,0,0,0-1076.453,322.538Z" transform="translate(1085.45 -279.98)" fill="#afd625"/>
        </g>
      </g>
    </g>
    <g id="Grupo_407" data-name="Grupo 407" transform="translate(18.721 31.924)">
      <g id="Grupo_238" data-name="Grupo 238">
        <path id="Trazado_247" data-name="Trazado 247" d="M259.026,1295.961c-8.141,0-14.741-3.071-14.743-6.86v0c0-1.466.987-2.825,2.669-3.939a13.728,13.728,0,0,1,2.59-1.314,26.564,26.564,0,0,1,9.484-1.609c5.068,0,9.537,1.189,12.191,3,1.613,1.1,2.554,2.43,2.554,3.863a3.393,3.393,0,0,1-.029.421" transform="translate(-230.628 -1282.237)" fill="none" stroke="#fff" stroke-linecap="round" stroke-width="2"/>
        <g id="Grupo_237" data-name="Grupo 237" transform="translate(13.654 14.935)">
          <path id="Trazado_248" data-name="Trazado 248" d="M244.278,1400.378h0c0,3.889,6.6,7.041,14.745,7.041" transform="translate(-244.278 -1400.378)" fill="none" stroke="#fff" stroke-linecap="round" stroke-width="2"/>
          <path id="Trazado_249" data-name="Trazado 249" d="M244.278,1464.009h0c0,3.889,6.6,7.041,14.745,7.041" transform="translate(-244.278 -1455.966)" fill="none" stroke="#fff" stroke-linecap="round" stroke-width="2"/>
        </g>
        <path id="Trazado_250" data-name="Trazado 250" d="M244.3,1359.637a2.306,2.306,0,0,1-.016-.258v-22.846" transform="translate(-230.628 -1329.669)" fill="none" stroke="#fff" stroke-linecap="round" stroke-width="2"/>
        <path id="Trazado_251" data-name="Trazado 251" d="M165.761,1543.652a3.418,3.418,0,0,1-.029.421c-.215,1.65-1.685,3.143-3.968,4.274a24.953,24.953,0,0,1-10.748,2.166c-8.141,0-14.741-3.071-14.743-6.859v0c0-1.466.987-2.825,2.669-3.939a13.731,13.731,0,0,1,2.59-1.314,26.562,26.562,0,0,1,9.484-1.609c5.068,0,9.537,1.19,12.191,3C164.82,1540.889,165.761,1542.219,165.761,1543.652Z" transform="translate(-136.272 -1504.611)" fill="none" stroke="#fff" stroke-linecap="round" stroke-width="2"/>
        <path id="Trazado_252" data-name="Trazado 252" d="M136.268,1654.932h0c0,3.889,6.6,7.041,14.745,7.041,7.839,0,14.247-2.922,14.714-6.61a3.417,3.417,0,0,0,.03-.432" transform="translate(-136.268 -1607.818)" fill="none" stroke="#fff" stroke-linecap="round" stroke-width="2"/>
        <path id="Trazado_253" data-name="Trazado 253" d="M165.732,1591.223v7.949a.388.388,0,0,1,.029.138m-29.473.093a.31.31,0,0,1-.016-.093v-2.958h0v-2.627h0v-2.637" transform="translate(-136.272 -1552.043)" fill="none" stroke="#fff" stroke-linecap="round" stroke-width="2"/>
      </g>
      <path id="Trazado_254" data-name="Trazado 254" d="M414.5,1356.014H386.938a4.822,4.822,0,0,0-4.817,4.817v40.438a4.822,4.822,0,0,0,4.817,4.817H414.5a4.822,4.822,0,0,0,4.817-4.817v-40.438A4.822,4.822,0,0,0,414.5,1356.014Zm-12.658,34.047h-2a1.467,1.467,0,0,1-1.467-1.467v-1.39a1.467,1.467,0,0,1,1.467-1.467h2a1.467,1.467,0,0,1,1.467,1.467v1.39A1.467,1.467,0,0,1,401.841,1390.061Zm1.467,5.824v1.39a1.467,1.467,0,0,1-1.467,1.467h-2a1.467,1.467,0,0,1-1.467-1.467v-1.39a1.467,1.467,0,0,1,1.467-1.467h2A1.467,1.467,0,0,1,403.308,1395.886Zm-1.467-14.506H390.19a1.467,1.467,0,0,1-1.467-1.467v-1.39a1.467,1.467,0,0,1,1.467-1.467h11.651a1.467,1.467,0,0,1,1.467,1.467v1.39A1.467,1.467,0,0,1,401.841,1381.38Zm-9.646,8.681h-2a1.467,1.467,0,0,1-1.467-1.467v-1.39a1.467,1.467,0,0,1,1.467-1.467h2a1.467,1.467,0,0,1,1.467,1.467v1.39A1.467,1.467,0,0,1,392.2,1390.061Zm1.467,5.824v1.39a1.467,1.467,0,0,1-1.467,1.467h-2a1.467,1.467,0,0,1-1.467-1.467v-1.39a1.467,1.467,0,0,1,1.467-1.467h2A1.467,1.467,0,0,1,393.662,1395.886ZM390.19,1368.7a1.467,1.467,0,0,1-1.467-1.467v-2.9a1.467,1.467,0,0,1,1.467-1.467h21.057a1.467,1.467,0,0,1,1.467,1.467v2.9a1.467,1.467,0,0,1-1.467,1.467Zm17.826,27.186a1.467,1.467,0,0,1,1.467-1.467h2a1.467,1.467,0,0,1,1.467,1.467v1.39a1.467,1.467,0,0,1-1.467,1.467h-2a1.467,1.467,0,0,1-1.467-1.467Zm3.472-5.824h-2a1.467,1.467,0,0,1-1.467-1.467v-1.39a1.467,1.467,0,0,1,1.467-1.467h2a1.467,1.467,0,0,1,1.467,1.467v1.39A1.467,1.467,0,0,1,411.487,1390.061Zm0-8.681h-2a1.467,1.467,0,0,1-1.467-1.467v-1.39a1.467,1.467,0,0,1,1.467-1.467h2a1.467,1.467,0,0,1,1.467,1.467v1.39A1.467,1.467,0,0,1,411.487,1381.38Z" transform="translate(-351.042 -1346.688)" fill="#fff"/>
    </g>
  </g>
</svg>
