<svg xmlns="http://www.w3.org/2000/svg" xmlns:xlink="http://www.w3.org/1999/xlink" width="128.801" height="142.479" viewBox="0 0 128.801 142.479">
  <defs>
    <filter id="Trazado_47" x="0" y="0" width="128.801" height="142.479" filterUnits="userSpaceOnUse">
      <feOffset dy="3" input="SourceAlpha"/>
      <feGaussianBlur stdDeviation="3" result="blur"/>
      <feFlood flood-opacity="0.161"/>
      <feComposite operator="in" in2="blur"/>
      <feComposite in="SourceGraphic"/>
    </filter>
  </defs>
  <g id="Componente_12_1" data-name="Componente 12 – 1" transform="translate(9.5 6.624)">
    <g id="Grupo_403" data-name="Grupo 403">
      <g id="Grupo_171" data-name="Grupo 171">
        <g transform="matrix(1, 0, 0, 1, -9.5, -6.62)" filter="url(#Trazado_47)">
          <path id="Trazado_47-2" data-name="Trazado 47" d="M-1076.453,322.538V372.66a11.5,11.5,0,0,0,5.745,9.951l43.4,25.061a11.489,11.489,0,0,0,11.5,0l43.4-25.061a11.488,11.488,0,0,0,5.749-9.951V322.538a11.5,11.5,0,0,0-5.749-9.956l-43.4-25.061a11.514,11.514,0,0,0-11.5,0l-43.4,25.061A11.5,11.5,0,0,0-1076.453,322.538Z" transform="translate(1085.95 -279.36)" fill="#022644" stroke="#3f51b5" stroke-width="1" opacity="0.77"/>
        </g>
      </g>
    </g>
    <g id="Grupo_404" data-name="Grupo 404" transform="translate(29.904 37.373)">
      <path id="Trazado_214" data-name="Trazado 214" d="M-283.4,326.37a12.61,12.61,0,0,0-12.3,15.353,12.607,12.607,0,0,0,12.3,9.853,12.6,12.6,0,0,0,12.6-12.6A12.6,12.6,0,0,0-283.4,326.37Zm6.236,14.476h-6.875a1.146,1.146,0,0,1-1.145-1.146v-6.874a1.146,1.146,0,0,1,1.145-1.146,1.146,1.146,0,0,1,1.146,1.146v5.728h5.728a1.146,1.146,0,0,1,1.146,1.146A1.147,1.147,0,0,1-277.161,340.846Z" transform="translate(320.818 -303.091)" fill="#afd625"/>
      <path id="Trazado_215" data-name="Trazado 215" d="M-531.053,125.875a.981.981,0,0,0,.981.981.981.981,0,0,0,.981-.981.981.981,0,0,0-.981-.981A.981.981,0,0,0-531.053,125.875ZM-542.135,109.2h6.178a.981.981,0,0,0,.981-.981.981.981,0,0,0-.981-.981h-6.178a.981.981,0,0,0-.981.981A.981.981,0,0,0-542.135,109.2Zm18.242-1.961h-6.179a.981.981,0,0,0-.981.981.981.981,0,0,0,.981.981h6.179a.981.981,0,0,0,.981-.981A.981.981,0,0,0-523.893,107.242Zm-18.242,7.846h6.178a.981.981,0,0,0,.981-.981.981.981,0,0,0-.981-.981h-6.178a.981.981,0,0,0-.981.981A.981.981,0,0,0-542.135,115.087Zm0,11.769H-534a.981.981,0,0,0,.981-.981.981.981,0,0,0-.981-.981h-8.14a.981.981,0,0,0-.981.981A.981.981,0,0,0-542.135,126.856Zm18.242-13.73h-6.179a.981.981,0,0,0-.981.981.981.981,0,0,0,.981.981h6.179a.981.981,0,0,0,.981-.981A.981.981,0,0,0-523.893,113.126Zm-18.242,7.846h6.178a.981.981,0,0,0,.981-.981.981.981,0,0,0-.981-.981h-6.178a.981.981,0,0,0-.981.981A.981.981,0,0,0-542.135,120.972Zm16.625-1.961h-4.784a.892.892,0,0,0-.759.981.892.892,0,0,0,.759.981h4.784a.892.892,0,0,0,.759-.981A.892.892,0,0,0-525.51,119.01Zm13.385-11.769h-5.884a.981.981,0,0,0-.981.981.981.981,0,0,0,.981.981h5.884a.981.981,0,0,0,.981-.981A.981.981,0,0,0-512.125,107.242Zm3.923-14.319h-2.942v-.981A2.942,2.942,0,0,0-514.086,89a2.946,2.946,0,0,0-2.942,2.942v.981h-8.14v-.981A2.942,2.942,0,0,0-528.111,89a2.946,2.946,0,0,0-2.942,2.942v.981h-8.14v-.981A2.942,2.942,0,0,0-542.135,89a2.946,2.946,0,0,0-2.942,2.942v.981h-.981A2.946,2.946,0,0,0-549,95.865v31.972a2.946,2.946,0,0,0,2.942,2.942h19.585v-1.961h-19.585a.981.981,0,0,1-.981-.981V103.024h39.817v7.863h1.961V95.865A2.946,2.946,0,0,0-508.2,92.923Zm-6.865-.981a.981.981,0,0,1,.981-.981.981.981,0,0,1,.981.981v3.923a.981.981,0,0,1-.981.981.981.981,0,0,1-.981-.981Zm-14.024,0a.981.981,0,0,1,.981-.981.981.981,0,0,1,.981.981v3.923a.981.981,0,0,1-.981.981.981.981,0,0,1-.981-.981Zm-14.024,0a.981.981,0,0,1,.981-.981.981.981,0,0,1,.981.981v3.923a.981.981,0,0,1-.981.981.981.981,0,0,1-.981-.981Zm35.895,9.121h-39.817v-5.2a.981.981,0,0,1,.981-.981h.981v.981a2.946,2.946,0,0,0,2.942,2.942,2.946,2.946,0,0,0,2.942-2.942v-.981h8.14v.981a2.946,2.946,0,0,0,2.942,2.942,2.946,2.946,0,0,0,2.942-2.942v-.981h8.14v.981a2.946,2.946,0,0,0,2.942,2.942,2.946,2.946,0,0,0,2.942-2.942v-.981h2.942a.981.981,0,0,1,.981.981Z" transform="translate(549 -89)" fill="#afd625"/>
    </g>
  </g>
</svg>
