<svg xmlns="http://www.w3.org/2000/svg" width="21.328" height="21.328" viewBox="0 0 21.328 21.328">
  <g id="Grupo_1088" data-name="Grupo 1088" transform="translate(-185 -7279.561)">
    <g id="Componente_2" data-name="Componente 2" transform="translate(185 7279.561)">
      <path id="Trazado_3" data-name="Trazado 3" d="M10.664,1.9a32.7,32.7,0,0,1,4.266.118,5.5,5.5,0,0,1,2.014.355,4.161,4.161,0,0,1,2.014,2.014A5.5,5.5,0,0,1,19.314,6.4c0,1.066.118,1.422.118,4.266a32.7,32.7,0,0,1-.118,4.266,5.5,5.5,0,0,1-.355,2.014,4.161,4.161,0,0,1-2.014,2.014,5.5,5.5,0,0,1-2.014.355c-1.066,0-1.422.118-4.266.118A32.7,32.7,0,0,1,6.4,19.314a5.5,5.5,0,0,1-2.014-.355A4.161,4.161,0,0,1,2.37,16.944a5.5,5.5,0,0,1-.355-2.014c0-1.066-.118-1.422-.118-4.266A32.7,32.7,0,0,1,2.014,6.4,5.5,5.5,0,0,1,2.37,4.384,4.256,4.256,0,0,1,3.2,3.2,2,2,0,0,1,4.384,2.37,5.5,5.5,0,0,1,6.4,2.014,32.7,32.7,0,0,1,10.664,1.9m0-1.9A35.01,35.01,0,0,0,6.28.118,7.315,7.315,0,0,0,3.673.592a4.638,4.638,0,0,0-1.9,1.185,4.638,4.638,0,0,0-1.185,1.9A5.4,5.4,0,0,0,.118,6.28,35.01,35.01,0,0,0,0,10.664a35.01,35.01,0,0,0,.118,4.384,7.315,7.315,0,0,0,.474,2.607,4.638,4.638,0,0,0,1.185,1.9,4.638,4.638,0,0,0,1.9,1.185,7.315,7.315,0,0,0,2.607.474,35.01,35.01,0,0,0,4.384.118,35.01,35.01,0,0,0,4.384-.118,7.315,7.315,0,0,0,2.607-.474,4.971,4.971,0,0,0,3.081-3.081,7.315,7.315,0,0,0,.474-2.607c0-1.185.118-1.54.118-4.384a35.01,35.01,0,0,0-.118-4.384,7.315,7.315,0,0,0-.474-2.607,4.638,4.638,0,0,0-1.185-1.9,4.638,4.638,0,0,0-1.9-1.185A7.315,7.315,0,0,0,15.048.118,35.01,35.01,0,0,0,10.664,0m0,5.213a5.363,5.363,0,0,0-5.45,5.45,5.45,5.45,0,1,0,5.45-5.45m0,9.005a3.491,3.491,0,0,1-3.555-3.555,3.491,3.491,0,0,1,3.555-3.555,3.491,3.491,0,0,1,3.555,3.555,3.491,3.491,0,0,1-3.555,3.555M16.351,3.673a1.3,1.3,0,1,0,1.3,1.3,1.315,1.315,0,0,0-1.3-1.3" fill="#afd625" fill-rule="evenodd"/>
    </g>
  </g>
</svg>
