<svg id="Grupo_1089" data-name="Grupo 1089" xmlns="http://www.w3.org/2000/svg" width="34.88" height="34.88" viewBox="0 0 34.88 34.88">
  <g id="Instagram_1" data-name="Instagram – 1" transform="translate(0)">
    <path id="Trazado_3" data-name="Trazado 3" d="M17.44,3.1a53.475,53.475,0,0,1,6.976.194,8.988,8.988,0,0,1,3.294.581A6.805,6.805,0,0,1,31,7.17a8.988,8.988,0,0,1,.581,3.294c0,1.744.194,2.325.194,6.976a53.475,53.475,0,0,1-.194,6.976A8.988,8.988,0,0,1,31,27.71,6.805,6.805,0,0,1,27.71,31a8.988,8.988,0,0,1-3.294.581c-1.744,0-2.325.194-6.976.194a53.475,53.475,0,0,1-6.976-.194A8.988,8.988,0,0,1,7.17,31,6.805,6.805,0,0,1,3.876,27.71a8.988,8.988,0,0,1-.581-3.294c0-1.744-.194-2.325-.194-6.976a53.475,53.475,0,0,1,.194-6.976A8.988,8.988,0,0,1,3.876,7.17,6.96,6.96,0,0,1,5.232,5.232,3.276,3.276,0,0,1,7.17,3.876a8.988,8.988,0,0,1,3.294-.581A53.475,53.475,0,0,1,17.44,3.1m0-3.1a57.256,57.256,0,0,0-7.17.194A11.963,11.963,0,0,0,6.007.969a7.586,7.586,0,0,0-3.1,1.938,7.586,7.586,0,0,0-1.938,3.1A8.829,8.829,0,0,0,.194,10.27,57.256,57.256,0,0,0,0,17.44a57.256,57.256,0,0,0,.194,7.17,11.963,11.963,0,0,0,.775,4.263,7.586,7.586,0,0,0,1.938,3.1,7.586,7.586,0,0,0,3.1,1.938,11.963,11.963,0,0,0,4.263.775,57.256,57.256,0,0,0,7.17.194,57.256,57.256,0,0,0,7.17-.194,11.963,11.963,0,0,0,4.263-.775,8.13,8.13,0,0,0,5.038-5.038,11.963,11.963,0,0,0,.775-4.263c0-1.938.194-2.519.194-7.17a57.256,57.256,0,0,0-.194-7.17,11.963,11.963,0,0,0-.775-4.263,7.586,7.586,0,0,0-1.938-3.1,7.586,7.586,0,0,0-3.1-1.938A11.963,11.963,0,0,0,24.61.194,57.256,57.256,0,0,0,17.44,0m0,8.526A8.77,8.77,0,0,0,8.526,17.44,8.914,8.914,0,1,0,17.44,8.526m0,14.727a5.71,5.71,0,0,1-5.813-5.813,5.71,5.71,0,0,1,5.813-5.813,5.71,5.71,0,0,1,5.813,5.813,5.71,5.71,0,0,1-5.813,5.813m9.3-17.246a2.132,2.132,0,1,0,2.132,2.132,2.15,2.15,0,0,0-2.132-2.132" fill="#fff" fill-rule="evenodd"/>
  </g>
</svg>
