<svg xmlns="http://www.w3.org/2000/svg" xmlns:xlink="http://www.w3.org/1999/xlink" width="21" height="21" viewBox="0 0 21 21">
  <defs>
    <clipPath id="clip-path">
      <rect id="Rect치ngulo_588" data-name="Rect치ngulo 588" width="12.178" height="12.145" transform="translate(0 0)" fill="#afd625"/>
    </clipPath>
  </defs>
  <g id="Grupo_1086" data-name="Grupo 1086" transform="translate(-260 -7281)">
    <g id="Grupo_1085" data-name="Grupo 1085" transform="translate(265.411 7285.31)">
      <g id="Grupo_1084" data-name="Grupo 1084" transform="translate(-1 0.118)" clip-path="url(#clip-path)">
        <path id="Trazado_78154" data-name="Trazado 78154" d="M30.708,26.478c.169-.19.308-.382.481-.545a2.64,2.64,0,0,1,1.9-.749,4.391,4.391,0,0,1,1.194.145,2.334,2.334,0,0,1,1.657,1.743,7.3,7.3,0,0,1,.221,2c0,1.42,0,2.839,0,4.258,0,.133-.037.168-.168.167q-1.1-.009-2.194,0c-.129,0-.156-.039-.156-.16q.006-2.026,0-4.052a3.64,3.64,0,0,0-.118-1.006,1.131,1.131,0,0,0-1.244-.882,1.359,1.359,0,0,0-1.429,1.357,5.065,5.065,0,0,0-.039.634c0,1.313,0,2.627,0,3.941,0,.131-.032.17-.166.169q-1.1-.01-2.21,0c-.118,0-.152-.031-.152-.15q0-3.9,0-7.8c0-.129.042-.158.164-.158q1.049.008,2.1,0c.129,0,.162.04.159.162-.007.311,0,.622,0,.933" transform="translate(-23.983 -21.35)" fill="#afd625"/>
        <path id="Trazado_78155" data-name="Trazado 78155" d="M3.8,30.562c0,1.287,0,2.573,0,3.86,0,.143-.035.186-.183.184-.731-.008-1.462-.006-2.193,0-.117,0-.152-.028-.152-.149q.005-3.907,0-7.815c0-.108.026-.146.141-.146.741,0,1.483.006,2.225,0,.142,0,.162.054.161.176q-.005,1.946,0,3.891" transform="translate(-1.078 -22.462)" fill="#afd625"/>
        <path id="Trazado_78156" data-name="Trazado 78156" d="M2.92,1.453A1.46,1.46,0,1,1,1.462,0,1.465,1.465,0,0,1,2.92,1.453" transform="translate(0 0)" fill="#afd625"/>
      </g>
    </g>
    <g id="Rect치ngulo_590" data-name="Rect치ngulo 590" transform="translate(260 7281)" fill="none" stroke="#afd625" stroke-width="2">
      <rect width="21" height="21" rx="5" stroke="none"/>
      <rect x="1" y="1" width="19" height="19" rx="4" fill="none"/>
    </g>
  </g>
</svg>
