<svg xmlns="http://www.w3.org/2000/svg" width="38.335" height="36.361" viewBox="0 0 38.335 36.361">
  <g id="Grupo_689" data-name="Grupo 689" transform="translate(0 0)">
    <g id="Grupo_591" data-name="Grupo 591" transform="translate(0.694 0.01)">
      <path id="Trazado_78049" data-name="Trazado 78049" d="M2232.679,479.478a.857.857,0,0,1-.119-.009,18.361,18.361,0,0,1,0-36.338.835.835,0,0,1,.236,1.651,16.691,16.691,0,0,0,0,33.033.835.835,0,0,1-.117,1.661Z" transform="translate(-2216.842 -443.127)" fill="#0a3b64"/>
    </g>
    <g id="Grupo_592" data-name="Grupo 592" transform="translate(0 7.333)">
      <ellipse id="Elipse_308" data-name="Elipse 308" cx="3.333" cy="3.338" rx="3.333" ry="3.338" fill="#0a3b64"/>
    </g>
    <g id="Grupo_593" data-name="Grupo 593" transform="translate(20.933)">
      <path id="Trazado_78050" data-name="Trazado 78050" d="M2243.5,479.475a.835.835,0,0,1-.115-1.661,16.692,16.692,0,0,0,0-33.033.835.835,0,0,1,.153-1.663.752.752,0,0,1,.083.012,18.361,18.361,0,0,1,0,36.339A.88.88,0,0,1,2243.5,479.475Z" transform="translate(-2242.628 -443.114)" fill="#0a3b64"/>
    </g>
    <g id="Grupo_594" data-name="Grupo 594" transform="translate(31.669 22.357)">
      <ellipse id="Elipse_309" data-name="Elipse 309" cx="3.333" cy="3.338" rx="3.333" ry="3.338" fill="#0a3b64"/>
    </g>
    <ellipse id="Elipse_310" data-name="Elipse 310" cx="6.14" cy="6.15" rx="6.14" ry="6.15" transform="translate(12.965 6.198)" fill="#0a3b64"/>
    <path id="Trazado_78114" data-name="Trazado 78114" d="M2237.208,479.552a14.855,14.855,0,0,0,11.279-5.184c-2.307-2.534-8.055-3.809-11.279-3.809s-8.972,1.275-11.279,3.809A14.856,14.856,0,0,0,2237.208,479.552Z" transform="translate(-2218.103 -448.986)" fill="#0a3b64"/>
  </g>
</svg>
