<svg xmlns="http://www.w3.org/2000/svg" xmlns:xlink="http://www.w3.org/1999/xlink" width="40" height="40" viewBox="0 0 40 40">
  <defs>
    <clipPath id="clip-path">
      <rect id="Rectángulo_557" data-name="Rectángulo 557" width="21.688" height="17.757" fill="#3f51b5"/>
    </clipPath>
  </defs>
  <g id="Grupo_1077" data-name="Grupo 1077" transform="translate(-426.9 -1841.275)">
    <g id="Grupo_1071" data-name="Grupo 1071" transform="translate(-984.8 935.575)">
      <g id="Elipse_28" data-name="Elipse 28" transform="translate(1411.7 905.7)" fill="none" stroke="#3f51b5" stroke-width="1">
        <circle cx="20" cy="20" r="20" stroke="none"/>
        <circle cx="20" cy="20" r="19.5" fill="none"/>
      </g>
    </g>
    <g id="Grupo_1075" data-name="Grupo 1075" transform="translate(436.056 1852.397)">
      <g id="Grupo_1074" data-name="Grupo 1074" clip-path="url(#clip-path)">
        <path id="Trazado_884" data-name="Trazado 884" d="M21.2,2.049a8.221,8.221,0,0,1-1.049.382,4.637,4.637,0,0,0,.944-1.66A.35.35,0,0,0,20.58.364a8.255,8.255,0,0,1-2.44.964,4.658,4.658,0,0,0-7.915,3.328,4.749,4.749,0,0,0,.038.6A11.92,11.92,0,0,1,2.082.917a.35.35,0,0,0-.573.045,4.663,4.663,0,0,0,.477,5.359,3.944,3.944,0,0,1-.623-.278.35.35,0,0,0-.52.3c0,.021,0,.041,0,.062a4.672,4.672,0,0,0,2.279,4c-.118-.012-.237-.029-.354-.051a.35.35,0,0,0-.4.45A4.654,4.654,0,0,0,5.78,13.926a8.237,8.237,0,0,1-4.4,1.257,8.423,8.423,0,0,1-.986-.058.35.35,0,0,0-.23.642,12.556,12.556,0,0,0,6.79,1.99,12.079,12.079,0,0,0,9.358-4.11,13.028,13.028,0,0,0,3.243-8.491c0-.128,0-.257-.006-.385a9.051,9.051,0,0,0,2.083-2.206.35.35,0,0,0-.433-.514" transform="translate(0 0)" fill="#3f51b5"/>
      </g>
    </g>
  </g>
</svg>
