<svg xmlns="http://www.w3.org/2000/svg" xmlns:xlink="http://www.w3.org/1999/xlink" width="40" height="40" viewBox="0 0 40 40">
  <defs>
    <clipPath id="clip-path">
      <rect id="Rectángulo_556" data-name="Rectángulo 556" width="20.778" height="20.778" fill="#3f51b5"/>
    </clipPath>
  </defs>
  <g id="Grupo_1076" data-name="Grupo 1076" transform="translate(-492.801 -1841.275)">
    <g id="Grupo_1072" data-name="Grupo 1072" transform="translate(-918.899 935.575)">
      <g id="Elipse_28" data-name="Elipse 28" transform="translate(1411.7 905.7)" fill="none" stroke="#3f51b5" stroke-width="1">
        <circle cx="20" cy="20" r="20" stroke="none"/>
        <circle cx="20" cy="20" r="19.5" fill="none"/>
      </g>
      <g id="Grupo_1073" data-name="Grupo 1073" transform="translate(1421.311 914.822)">
        <g id="Grupo_1073-2" data-name="Grupo 1073" transform="translate(0 0)" clip-path="url(#clip-path)">
          <path id="Trazado_883" data-name="Trazado 883" d="M20.778,10.122A10.219,10.219,0,0,1,5.647,18.985L0,20.778l1.841-5.432A10.019,10.019,0,0,1,.378,10.121a10.2,10.2,0,0,1,20.4,0m-10.2-8.508A8.552,8.552,0,0,0,2,10.124a8.418,8.418,0,0,0,1.634,4.988L2.565,18.271l3.294-1.047a8.586,8.586,0,0,0,13.294-7.1,8.551,8.551,0,0,0-8.576-8.508m5.152,10.839c-.064-.1-.23-.165-.48-.289s-1.48-.724-1.708-.806-.4-.125-.564.123-.644.807-.791.974-.291.187-.541.064a6.893,6.893,0,0,1-2.012-1.231A7.464,7.464,0,0,1,8.242,9.57c-.147-.248-.015-.382.109-.505s.25-.29.375-.436a1.654,1.654,0,0,0,.25-.413.462.462,0,0,0-.021-.436c-.062-.125-.562-1.344-.771-1.841s-.416-.414-.562-.414-.312-.02-.479-.02a.915.915,0,0,0-.666.309A2.776,2.776,0,0,0,5.6,7.884a4.8,4.8,0,0,0,1.02,2.566A10.24,10.24,0,0,0,10.895,14.2c2.543.993,2.543.661,3,.619a2.522,2.522,0,0,0,1.687-1.178,2.061,2.061,0,0,0,.146-1.183" transform="translate(0 0)" fill="#3f51b5"/>
        </g>
      </g>
    </g>
  </g>
</svg>
