<svg xmlns="http://www.w3.org/2000/svg" width="29.353" height="29.353" viewBox="0 0 29.353 29.353">
  <path id="account_circle_FILL1_wght400_GRAD0_opsz48_1_" data-name="account_circle_FILL1_wght400_GRAD0_opsz48 (1)" d="M85.21,198.932a20.871,20.871,0,0,1,4.568-2.22,15.4,15.4,0,0,1,4.9-.752,15.572,15.572,0,0,1,4.917.752,20.725,20.725,0,0,1,4.586,2.22,12.88,12.88,0,0,0,2.293-4,13.26,13.26,0,0,0,.679-4.256,12.476,12.476,0,1,0-24.95,0,12.943,12.943,0,0,0,.7,4.256A13.2,13.2,0,0,0,85.21,198.932Zm9.46-7.155a4.961,4.961,0,1,1,3.577-1.449A4.841,4.841,0,0,1,94.67,191.777Zm-.008,13.576a14.339,14.339,0,0,1-5.734-1.156,14.621,14.621,0,0,1-7.79-7.828A14.431,14.431,0,0,1,80,190.658a14.233,14.233,0,0,1,1.156-5.711,14.685,14.685,0,0,1,3.155-4.654,15.063,15.063,0,0,1,4.672-3.137,14.689,14.689,0,0,1,11.423,0,14.669,14.669,0,0,1,7.791,7.8,14.682,14.682,0,0,1,0,11.42,15.073,15.073,0,0,1-3.137,4.67A14.653,14.653,0,0,1,100.4,204.2,14.339,14.339,0,0,1,94.662,205.353Z" transform="translate(-80 -176)" fill="#fff"/>
</svg>
