<svg xmlns="http://www.w3.org/2000/svg" xmlns:xlink="http://www.w3.org/1999/xlink" width="90.997" height="99.926" viewBox="0 0 90.997 99.926">
  <defs>
    <filter id="Trazado_47" x="0" y="0" width="90.997" height="99.926" filterUnits="userSpaceOnUse">
      <feOffset dy="3" input="SourceAlpha"/>
      <feGaussianBlur stdDeviation="3" result="blur"/>
      <feFlood flood-opacity="0.161"/>
      <feComposite operator="in" in2="blur"/>
      <feComposite in="SourceGraphic"/>
    </filter>
  </defs>
  <g id="Grupo_716" data-name="Grupo 716" transform="translate(9 6)">
    <g id="Grupo_614" data-name="Grupo 614" transform="translate(0 0)">
      <g id="Grupo_171" data-name="Grupo 171">
        <g transform="matrix(1, 0, 0, 1, -9, -6)" filter="url(#Trazado_47)">
          <path id="Trazado_47-2" data-name="Trazado 47" d="M-1076.453,310.285v33.322a7.642,7.642,0,0,0,3.819,6.615l28.855,16.661a7.638,7.638,0,0,0,7.645,0l28.855-16.661a7.638,7.638,0,0,0,3.822-6.615V310.285a7.643,7.643,0,0,0-3.822-6.619l-28.855-16.661a7.655,7.655,0,0,0-7.645,0l-28.855,16.661A7.647,7.647,0,0,0-1076.453,310.285Z" transform="translate(1085.45 -279.98)" fill="#022644"/>
        </g>
      </g>
    </g>
    <g id="Grupo_695" data-name="Grupo 695" transform="translate(12.434 16.972)">
      <g id="Trazado_226" data-name="Trazado 226" transform="translate(0 0)">
        <path id="Trazado_78120" data-name="Trazado 78120" d="M2194.181,421.482h-4.615a2.433,2.433,0,0,1-1.781-.792,2.4,2.4,0,0,1-1.959.123l-4.319-1.568a2.435,2.435,0,0,1-1.409-1.353c-.04.006-.081.01-.122.014a2.408,2.408,0,0,1-1.759-.569l-3.535-2.954a2.449,2.449,0,0,1-.854-1.751,2.414,2.414,0,0,1-1.575-1.159l-2.288-3.956c-.009-.016-.02-.032-.028-.048a4.062,4.062,0,0,0-1.287-3.541l-.807-4.542a3.969,3.969,0,0,0,0-3.773l.809-4.559a2.4,2.4,0,0,1,1-1.563c.026-.018.054-.037.082-.054a2.425,2.425,0,0,1,.212-1.941l2.313-3.993a2.408,2.408,0,0,1,1.48-1.136l.09-.022a2.407,2.407,0,0,1,.848-1.741l3.548-2.975.028-.023a2.4,2.4,0,0,1,1.742-.533c.034,0,.068.006.1.011.013-.033.028-.065.044-.1a2.4,2.4,0,0,1,1.367-1.251l4.329-1.579a2.436,2.436,0,0,1,1.949.133,2.408,2.408,0,0,1,1.781-.787h4.616a2.4,2.4,0,0,1,1.723.716c.023.022.045.045.068.07a2.422,2.422,0,0,1,1.927-.135l4.349,1.584a2.412,2.412,0,0,1,1.4,1.338,2.444,2.444,0,0,1,1.87.556l3.534,2.969a4.118,4.118,0,0,0,2.444,2.911l2.306,3.983a2.431,2.431,0,0,1,.206,1.942,2.406,2.406,0,0,1,1.088,1.621l.792,4.5.007.042h0a2.419,2.419,0,0,1-.46,1.887c.023.031.046.063.068.1a2.408,2.408,0,0,1,.389,1.816l-.8,4.533a2.422,2.422,0,0,1-1,1.568c-.027.017-.053.036-.081.053a2.408,2.408,0,0,1-.206,1.923l-2.313,4.007a4.095,4.095,0,0,0-2.439,2.9l-3.535,2.962a2.444,2.444,0,0,1-1.77.561l-.095-.01a2.423,2.423,0,0,1-1.4,1.349l-4.34,1.572-.006,0h0a4.107,4.107,0,0,0-3.725.658Zm-5.938-5.017a1.29,1.29,0,0,1,.236.022l.133.026a1.229,1.229,0,0,1,.994,1.206v1.338l4.575-.031-.031-1.3a1.229,1.229,0,0,1,.975-1.2l.122-.026a1.227,1.227,0,0,1,1.408.785l.443,1.223,4.313-1.562-.479-1.219a1.228,1.228,0,0,1,.576-1.5,1.372,1.372,0,0,1,1.625.235l.839,1,3.507-2.944-.862-.979a1.225,1.225,0,0,1,.072-1.658l.084-.093a1.226,1.226,0,0,1,1.495-.2l1.154.674,2.258-4-1.146-.616a1.229,1.229,0,0,1-.523-1.53l.051-.123a1.228,1.228,0,0,1,1.352-.743l1.306.233.758-4.491-1.28-.216a1.227,1.227,0,0,1-1.023-1.211c0-.017,0-.038,0-.061s0-.048,0-.072a1.23,1.23,0,0,1,1.014-1.209l1.284-.226-.787-4.476-1.283.223a1.3,1.3,0,0,1-.869-2.389l1.157-.666-2.321-3.951-1.109.674a1.23,1.23,0,0,1-1.481-.2l-.092-.093a1.226,1.226,0,0,1-.077-1.654l.86-1.031-3.5-2.9-.839,1a1.225,1.225,0,0,1-1.682.188c.017.02-.03-.01-.091-.054a1.227,1.227,0,0,1-.429-1.411l.458-1.256-4.321-1.536-.415,1.236a1.23,1.23,0,0,1-1.426.777,1.122,1.122,0,0,1-1.078-1.213v-1.338l-4.585.032.041,1.306a1.229,1.229,0,0,1-1.195,1.228,1.135,1.135,0,0,1-1.32-.792l-.457-1.256-4.291,1.6.475,1.213a1.227,1.227,0,0,1-.538,1.482l-.115.066a1.231,1.231,0,0,1-1.556-.273l-.841-1-3.512,2.949.873.984a1.228,1.228,0,0,1,.016,1.553c-.026.033-.095.108-.124.139a1.13,1.13,0,0,1-1.532.25l-1.156-.666-2.267,3.983,1.142.626a1.23,1.23,0,0,1,.518,1.536c-.015.042-.032.092-.042.115a1.225,1.225,0,0,1-1.338.737l-1.314-.223-.773,4.512,1.293.19a1.227,1.227,0,0,1,1.014,1.208v.134a1.228,1.228,0,0,1-1.021,1.211l-1.315.224.836,4.507,1.271-.263a1.227,1.227,0,0,1,1.348.735c.016.041.05.139.062.179a1.137,1.137,0,0,1-.538,1.478l-1.122.651,2.294,3.967,1.1-.679a1.227,1.227,0,0,1,1.613.341,1.305,1.305,0,0,1,.03,1.611l-.86,1.023,3.531,2.915.813-1.011a1.23,1.23,0,0,1,1.395-.35c.047.018.152.07.2.095a1.17,1.17,0,0,1,.616,1.523l-.457,1.256,4.312,1.537.415-1.234A1.226,1.226,0,0,1,2188.243,416.465Zm3.63-4.176h-.005a14.8,14.8,0,1,1,.005,0Zm-.005-27.141a12.342,12.342,0,0,0,0,24.685h.005a12.342,12.342,0,0,0-.005-24.685Z" transform="translate(-2167.808 -373.5)" fill="#0a3b64"/>
      </g>
      <g id="Grupo_231" data-name="Grupo 231" transform="translate(12.287 12.223)">
        <g id="Elipse_19" data-name="Elipse 19" transform="translate(8.984 9.068)">
          <ellipse id="Elipse_311" data-name="Elipse 311" cx="2.7" cy="2.7" rx="2.7" ry="2.7" fill="#0a3b64"/>
        </g>
        <g id="Trazado_227" data-name="Trazado 227" transform="translate(8.999)">
          <path id="Trazado_78121" data-name="Trazado 78121" d="M2190.343,384.538l-1.931,5.261a.7.7,0,0,1-1.312,0l-1.913-5.209a.71.71,0,0,1,.541-.932,11.874,11.874,0,0,1,4.062-.057.7.7,0,0,1,.587.8A.721.721,0,0,1,2190.343,384.538Z" transform="translate(-2185.144 -383.454)" fill="#0a3b64"/>
        </g>
        <g id="Trazado_228" data-name="Trazado 228" transform="translate(1.945 2.091)">
          <path id="Trazado_78122" data-name="Trazado 78122" d="M2184.787,391.515l-4.983-2.3a.7.7,0,0,1-.337-.937.774.774,0,0,1,.061-.107,11.726,11.726,0,0,1,2.811-2.874.7.7,0,0,1,.985.151.735.735,0,0,1,.071.118l2.319,5.024a.7.7,0,0,1-.927.927Z" transform="translate(-2179.399 -385.158)" fill="#0a3b64"/>
        </g>
        <g id="Trazado_229" data-name="Trazado 229" transform="translate(0 9.252)">
          <path id="Trazado_78123" data-name="Trazado 78123" d="M2184.073,394.234l-5.144,1.885a.7.7,0,0,1-.9-.424.589.589,0,0,1-.032-.123,11.843,11.843,0,0,1-.181-2.06,11.691,11.691,0,0,1,.161-1.931.706.706,0,0,1,.811-.582.808.808,0,0,1,.125.032l5.157,1.891a.7.7,0,0,1,0,1.313Z" transform="translate(-2177.815 -390.989)" fill="#0a3b64"/>
        </g>
        <g id="Trazado_230" data-name="Trazado 230" transform="translate(2.021 15.125)">
          <path id="Trazado_78124" data-name="Trazado 78124" d="M2185.805,396.764l-2.313,5a.706.706,0,0,1-.939.339.633.633,0,0,1-.111-.065,11.846,11.846,0,0,1-2.846-2.836.7.7,0,0,1,.154-.982.8.8,0,0,1,.117-.069l5.011-2.318a.7.7,0,0,1,.927.927Z" transform="translate(-2179.461 -395.773)" fill="#0a3b64"/>
        </g>
        <g id="Trazado_231" data-name="Trazado 231" transform="translate(9.137 16.736)">
          <path id="Trazado_78125" data-name="Trazado 78125" d="M2190.458,402.784a.7.7,0,0,1-.42.9.606.606,0,0,1-.13.033,12.021,12.021,0,0,1-4.061-.01.7.7,0,0,1-.549-.934l1.924-5.234a.7.7,0,0,1,1.313,0Z" transform="translate(-2185.257 -397.084)" fill="#0a3b64"/>
        </g>
        <g id="Trazado_232" data-name="Trazado 232" transform="translate(15.047 15.02)">
          <path id="Trazado_78126" data-name="Trazado 78126" d="M2196.457,399.17a11.834,11.834,0,0,1-2.905,2.906.707.707,0,0,1-.985-.165.74.74,0,0,1-.064-.108l-2.369-5.125a.7.7,0,0,1,.927-.927l5.125,2.371a.7.7,0,0,1,.335.938A.639.639,0,0,1,2196.457,399.17Z" transform="translate(-2190.069 -395.687)" fill="#0a3b64"/>
        </g>
        <g id="Trazado_233" data-name="Trazado 233" transform="translate(16.647 9.048)">
          <path id="Trazado_78127" data-name="Trazado 78127" d="M2198.274,393.549a11.567,11.567,0,0,1-.167,1.982.705.705,0,0,1-.809.583.731.731,0,0,1-.125-.033l-5.341-1.958a.7.7,0,0,1,0-1.311l5.309-1.946a.705.705,0,0,1,.9.426.772.772,0,0,1,.031.117A11.626,11.626,0,0,1,2198.274,393.549Z" transform="translate(-2191.373 -390.823)" fill="#0a3b64"/>
        </g>
        <g id="Trazado_234" data-name="Trazado 234" transform="translate(14.936 1.915)">
          <path id="Trazado_78128" data-name="Trazado 78128" d="M2196.112,389.063l-5.14,2.376a.7.7,0,0,1-.927-.928l2.359-5.092a.7.7,0,0,1,.938-.336.744.744,0,0,1,.1.06,11.8,11.8,0,0,1,2.936,2.866.7.7,0,0,1-.155.986A.726.726,0,0,1,2196.112,389.063Z" transform="translate(-2189.979 -385.015)" fill="#0a3b64"/>
        </g>
      </g>
    </g>
  </g>
</svg>
