<svg xmlns="http://www.w3.org/2000/svg" xmlns:xlink="http://www.w3.org/1999/xlink" width="89.997" height="98.926" viewBox="0 0 89.997 98.926">
  <defs>
    <filter id="Trazado_47" x="0" y="0" width="89.997" height="98.926" filterUnits="userSpaceOnUse">
      <feOffset dy="3" input="SourceAlpha"/>
      <feGaussianBlur stdDeviation="3" result="blur"/>
      <feFlood flood-opacity="0.161"/>
      <feComposite operator="in" in2="blur"/>
      <feComposite in="SourceGraphic"/>
    </filter>
  </defs>
  <g id="Grupo_714" data-name="Grupo 714" transform="translate(9 6)">
    <g id="Grupo_713" data-name="Grupo 713" transform="translate(0 0)">
      <g id="Grupo_588" data-name="Grupo 588">
        <g transform="matrix(1, 0, 0, 1, -9, -6)" filter="url(#Trazado_47)">
          <path id="Trazado_47-2" data-name="Trazado 47" d="M-1076.453,309.989V342.9a7.551,7.551,0,0,0,3.767,6.535l28.46,16.458a7.524,7.524,0,0,0,7.541,0l28.46-16.458a7.546,7.546,0,0,0,3.77-6.535V309.989a7.552,7.552,0,0,0-3.77-6.538l-28.46-16.457a7.54,7.54,0,0,0-7.541,0l-28.46,16.457A7.556,7.556,0,0,0-1076.453,309.989Z" transform="translate(1085.45 -279.98)" fill="#022644"/>
        </g>
      </g>
      <g id="find_replace_black_24dp" transform="translate(9.672 14.137)">
        <path id="Trazado_78096" data-name="Trazado 78096" d="M0,0H54.326V54.326H0Z" fill="none"/>
        <path id="Trazado_78097" data-name="Trazado 78097" d="M19.845,8.527a11.367,11.367,0,0,1,8.013,3.3l-5.75,5.75H35.69V4L31.05,8.64A15.831,15.831,0,0,0,4.181,17.582H8.754A11.319,11.319,0,0,1,19.845,8.527ZM32.612,29.216a15.594,15.594,0,0,0,2.9-7.108H30.937a11.336,11.336,0,0,1-19.1,5.75l5.75-5.75H4V35.69l4.64-4.64a15.828,15.828,0,0,0,20.576,1.562l11,10.978,3.373-3.373Z" transform="translate(5.054 5.054)" fill="#0a3b64"/>
      </g>
    </g>
  </g>
</svg>
