<svg xmlns="http://www.w3.org/2000/svg" xmlns:xlink="http://www.w3.org/1999/xlink" width="90.997" height="99.926" viewBox="0 0 90.997 99.926">
  <defs>
    <filter id="Trazado_47" x="0" y="0" width="90.997" height="99.926" filterUnits="userSpaceOnUse">
      <feOffset dy="3" input="SourceAlpha"/>
      <feGaussianBlur stdDeviation="3" result="blur"/>
      <feFlood flood-opacity="0.161"/>
      <feComposite operator="in" in2="blur"/>
      <feComposite in="SourceGraphic"/>
    </filter>
  </defs>
  <g id="Componente_44_2" data-name="Componente 44 – 2" transform="translate(9 6)">
    <g id="Grupo_588" data-name="Grupo 588" transform="translate(0)">
      <g transform="matrix(1, 0, 0, 1, -9, -6)" filter="url(#Trazado_47)">
        <path id="Trazado_47-2" data-name="Trazado 47" d="M-1076.453,310.285v33.322a7.642,7.642,0,0,0,3.819,6.615l28.855,16.661a7.638,7.638,0,0,0,7.645,0l28.855-16.661a7.637,7.637,0,0,0,3.822-6.615V310.285a7.643,7.643,0,0,0-3.822-6.619l-28.855-16.661a7.655,7.655,0,0,0-7.645,0l-28.855,16.661A7.647,7.647,0,0,0-1076.453,310.285Z" transform="translate(1085.45 -279.98)" fill="#022644"/>
      </g>
    </g>
    <g id="Grupo_689" data-name="Grupo 689" transform="translate(-2203.321 -422.174)">
      <g id="Grupo_591" data-name="Grupo 591" transform="translate(2216.822 443.127)">
        <path id="Trazado_78049" data-name="Trazado 78049" d="M2236.558,488.312a1.071,1.071,0,0,1-.148-.011,22.818,22.818,0,0,1,0-45.17,1.038,1.038,0,0,1,.293,2.052,20.743,20.743,0,0,0,0,41.061,1.038,1.038,0,0,1-.146,2.065Z" transform="translate(-2216.842 -443.127)" fill="#afd625"/>
      </g>
      <g id="Grupo_592" data-name="Grupo 592" transform="translate(2215.958 452.229)">
        <circle id="Elipse_308" data-name="Elipse 308" cx="4.15" cy="4.15" r="4.15" fill="#afd625"/>
      </g>
      <g id="Grupo_593" data-name="Grupo 593" transform="translate(2242.017 443.114)">
        <path id="Trazado_78050" data-name="Trazado 78050" d="M2243.714,488.311a1.038,1.038,0,0,1-.144-2.065,20.744,20.744,0,0,0,0-41.061,1.038,1.038,0,0,1,.19-2.067.934.934,0,0,1,.1.015,22.818,22.818,0,0,1,0,45.17A1.1,1.1,0,0,1,2243.714,488.311Z" transform="translate(-2242.628 -443.114)" fill="#afd625"/>
      </g>
      <g id="Grupo_594" data-name="Grupo 594" transform="translate(2255.383 470.904)">
        <circle id="Elipse_309" data-name="Elipse 309" cx="4.15" cy="4.15" r="4.15" fill="#afd625"/>
      </g>
      <circle id="Elipse_310" data-name="Elipse 310" cx="7.644" cy="7.644" r="7.644" transform="translate(2232.098 450.819)" fill="#afd625"/>
      <path id="Trazado_78114" data-name="Trazado 78114" d="M2239.971,481.738a18.505,18.505,0,0,0,14.042-6.444c-2.873-3.15-10.028-4.735-14.042-4.735s-11.169,1.585-14.042,4.735A18.506,18.506,0,0,0,2239.971,481.738Z" transform="translate(-0.228 -0.629)" fill="#afd625"/>
    </g>
  </g>
</svg>
