<svg xmlns="http://www.w3.org/2000/svg" xmlns:xlink="http://www.w3.org/1999/xlink" width="90.997" height="99.926" viewBox="0 0 90.997 99.926">
  <defs>
    <filter id="Trazado_47" x="0" y="0" width="90.997" height="99.926" filterUnits="userSpaceOnUse">
      <feOffset dy="3" input="SourceAlpha"/>
      <feGaussianBlur stdDeviation="3" result="blur"/>
      <feFlood flood-opacity="0.161"/>
      <feComposite operator="in" in2="blur"/>
      <feComposite in="SourceGraphic"/>
    </filter>
  </defs>
  <g id="Componente_49_1" data-name="Componente 49 – 1" transform="translate(9 6)">
    <g id="Grupo_614" data-name="Grupo 614" transform="translate(0 0)">
      <g id="Grupo_171" data-name="Grupo 171" transform="translate(0 0)">
        <g transform="matrix(1, 0, 0, 1, -9, -6)" filter="url(#Trazado_47)">
          <path id="Trazado_47-2" data-name="Trazado 47" d="M-1076.453,310.285v33.322a7.642,7.642,0,0,0,3.819,6.615l28.855,16.661a7.638,7.638,0,0,0,7.645,0l28.855-16.661a7.638,7.638,0,0,0,3.822-6.615V310.285a7.643,7.643,0,0,0-3.822-6.619l-28.855-16.661a7.654,7.654,0,0,0-7.645,0l-28.855,16.661A7.647,7.647,0,0,0-1076.453,310.285Z" transform="translate(1085.45 -279.98)" fill="#022644"/>
        </g>
      </g>
    </g>
    <g id="Grupo_635" data-name="Grupo 635" transform="translate(52.778 -74.684)">
      <g id="Grupo_631" data-name="Grupo 631" transform="translate(-31.224 101.101)">
        <path id="Trazado_78078" data-name="Trazado 78078" d="M-20.163,127.109a14.961,14.961,0,0,1-14.944-14.944,1.839,1.839,0,0,1,1.84-1.84,1.839,1.839,0,0,1,1.84,1.84,11.277,11.277,0,0,0,11.265,11.265A11.28,11.28,0,0,0-8.893,112.165,11.281,11.281,0,0,0-20.163,100.9,1.84,1.84,0,0,1-22,99.058a1.84,1.84,0,0,1,1.84-1.84A14.965,14.965,0,0,1-5.214,112.165,14.964,14.964,0,0,1-20.163,127.109Z" transform="translate(35.107 -97.218)" fill="#0a3b64"/>
      </g>
      <g id="Grupo_632" data-name="Grupo 632" transform="translate(-37.779 94.546)">
        <path id="Trazado_78079" data-name="Trazado 78079" d="M-21.841,136.749a1.915,1.915,0,0,1-.52-.074,21.621,21.621,0,0,1-15.418-20.628,21.524,21.524,0,0,1,21.5-21.5,21.526,21.526,0,0,1,21.5,21.5,21.587,21.587,0,0,1-10.713,18.6,1.842,1.842,0,0,1-2.517-.667,1.84,1.84,0,0,1,.667-2.514,17.9,17.9,0,0,0,8.883-15.42A17.842,17.842,0,0,0-16.28,98.226,17.839,17.839,0,0,0-34.1,116.047a17.917,17.917,0,0,0,12.778,17.1,1.841,1.841,0,0,1,1.244,2.286A1.841,1.841,0,0,1-21.841,136.749Z" transform="translate(37.779 -94.546)" fill="#0a3b64"/>
      </g>
      <g id="Grupo_634" data-name="Grupo 634" transform="translate(-21.795 107.638)">
        <g id="Grupo_633" data-name="Grupo 633">
          <path id="Trazado_78080" data-name="Trazado 78080" d="M-21.129,110.954a3.2,3.2,0,0,1-1.16,2.578,5.764,5.764,0,0,1-3.25,1.168v2.068h-1.384v-2.029a11.249,11.249,0,0,1-4.32-.868v-2.664a11.732,11.732,0,0,0,2.115.768,11.323,11.323,0,0,0,2.205.392v-3.128l-.675-.262a7.543,7.543,0,0,1-2.831-1.712,3.277,3.277,0,0,1-.834-2.284,2.989,2.989,0,0,1,1.146-2.409,5.836,5.836,0,0,1,3.194-1.146V99.883h1.384v1.5a11.425,11.425,0,0,1,4.178.927l-.947,2.362a11,11,0,0,0-3.231-.787v2.978a15.6,15.6,0,0,1,2.8,1.312,3.855,3.855,0,0,1,1.222,1.222A3.039,3.039,0,0,1-21.129,110.954Zm-7.094-5.973a.954.954,0,0,0,.307.731,3.679,3.679,0,0,0,.994.589v-2.37C-27.789,104.058-28.224,104.406-28.224,104.98Zm4.057,6.125a.908.908,0,0,0-.343-.716,4.478,4.478,0,0,0-1.03-.606V112.3C-24.625,112.141-24.166,111.746-24.166,111.106Z" transform="translate(31.263 -99.883)" fill="#0a3b64"/>
        </g>
      </g>
    </g>
  </g>
</svg>
