<svg xmlns="http://www.w3.org/2000/svg" xmlns:xlink="http://www.w3.org/1999/xlink" width="90.997" height="99.926" viewBox="0 0 90.997 99.926">
  <defs>
    <filter id="Trazado_47" x="0" y="0" width="90.997" height="99.926" filterUnits="userSpaceOnUse">
      <feOffset dy="3" input="SourceAlpha"/>
      <feGaussianBlur stdDeviation="3" result="blur"/>
      <feFlood flood-opacity="0.161"/>
      <feComposite operator="in" in2="blur"/>
      <feComposite in="SourceGraphic"/>
    </filter>
  </defs>
  <g id="Componente_48_2" data-name="Componente 48 – 2" transform="translate(9 6)">
    <g id="Grupo_614" data-name="Grupo 614" transform="translate(0 0)">
      <g id="Grupo_171" data-name="Grupo 171" transform="translate(0 0)">
        <g transform="matrix(1, 0, 0, 1, -9, -6)" filter="url(#Trazado_47)">
          <path id="Trazado_47-2" data-name="Trazado 47" d="M-1076.453,310.285v33.322a7.642,7.642,0,0,0,3.819,6.615l28.855,16.661a7.638,7.638,0,0,0,7.645,0l28.855-16.661a7.638,7.638,0,0,0,3.822-6.615V310.285a7.643,7.643,0,0,0-3.822-6.619l-28.855-16.661a7.654,7.654,0,0,0-7.645,0l-28.855,16.661A7.647,7.647,0,0,0-1076.453,310.285Z" transform="translate(1085.45 -279.98)" fill="#022644"/>
        </g>
      </g>
    </g>
    <g id="Grupo_630" data-name="Grupo 630" transform="translate(-297.961 -95.219)">
      <g id="Grupo_625" data-name="Grupo 625" transform="translate(332.059 139.008)">
        <path id="Trazado_78073" data-name="Trazado 78073" d="M349.309,161.1" transform="translate(-349.309 -161.098)" fill="#afd625"/>
      </g>
      <g id="Grupo_626" data-name="Grupo 626" transform="translate(328.061 116.915)">
        <path id="Trazado_78074" data-name="Trazado 78074" d="M358.314,140.109a1.809,1.809,0,0,1-1.279-3.088l5.348-5.348a5.685,5.685,0,0,0-8.04-8.041l-7.492,7.492a5.714,5.714,0,0,0-1.157,6.375A1.809,1.809,0,1,1,342.4,139a9.347,9.347,0,0,1,1.892-10.431l7.492-7.492a9.3,9.3,0,0,1,13.156,13.156l-5.348,5.348A1.8,1.8,0,0,1,358.314,140.109Z" transform="translate(-341.573 -118.35)" fill="#afd625"/>
      </g>
      <g id="Grupo_627" data-name="Grupo 627" transform="translate(314.671 134.276)">
        <path id="Trazado_78075" data-name="Trazado 78075" d="M324.964,173.7a9.3,9.3,0,0,1-6.578-15.882l5.348-5.348a1.809,1.809,0,0,1,2.558,2.558l-5.348,5.348a5.685,5.685,0,0,0,8.041,8.04l7.492-7.492a5.712,5.712,0,0,0,1.157-6.375,1.809,1.809,0,1,1,3.293-1.5,9.346,9.346,0,0,1-1.892,10.431l-7.492,7.492A9.241,9.241,0,0,1,324.964,173.7Z" transform="translate(-315.666 -151.942)" fill="#afd625"/>
      </g>
      <g id="Grupo_628" data-name="Grupo 628" transform="translate(313.607 115.379)">
        <path id="Trazado_78076" data-name="Trazado 78076" d="M315.416,135.536a1.809,1.809,0,0,1-1.809-1.809,18.369,18.369,0,0,1,18.348-18.348c.612,0,1.227.031,1.829.09a1.809,1.809,0,0,1-.359,3.6c-.482-.048-.977-.072-1.47-.072a14.747,14.747,0,0,0-14.73,14.73A1.809,1.809,0,0,1,315.416,135.536Z" transform="translate(-313.607 -115.379)" fill="#afd625"/>
      </g>
      <g id="Grupo_629" data-name="Grupo 629" transform="translate(333.505 136.828)">
        <path id="Trazado_78077" data-name="Trazado 78077" d="M355.566,177.036c-.607,0-1.221-.031-1.827-.09a1.809,1.809,0,0,1,.355-3.6c.488.049.984.073,1.472.073a14.747,14.747,0,0,0,14.73-14.73,1.809,1.809,0,1,1,3.618,0A18.369,18.369,0,0,1,355.566,177.036Z" transform="translate(-352.107 -156.879)" fill="#afd625"/>
      </g>
    </g>
  </g>
</svg>
