<svg xmlns="http://www.w3.org/2000/svg" xmlns:xlink="http://www.w3.org/1999/xlink" width="90.997" height="99.926" viewBox="0 0 90.997 99.926">
  <defs>
    <filter id="Trazado_47" x="0" y="0" width="90.997" height="99.926" filterUnits="userSpaceOnUse">
      <feOffset dy="3" input="SourceAlpha"/>
      <feGaussianBlur stdDeviation="3" result="blur"/>
      <feFlood flood-opacity="0.161"/>
      <feComposite operator="in" in2="blur"/>
      <feComposite in="SourceGraphic"/>
    </filter>
  </defs>
  <g id="Grupo_725" data-name="Grupo 725" transform="translate(9 6)">
    <g id="Grupo_614" data-name="Grupo 614" transform="translate(0)">
      <g id="Grupo_171" data-name="Grupo 171">
        <g transform="matrix(1, 0, 0, 1, -9, -6)" filter="url(#Trazado_47)">
          <path id="Trazado_47-2" data-name="Trazado 47" d="M-1076.453,310.285v33.322a7.642,7.642,0,0,0,3.819,6.615l28.855,16.661a7.638,7.638,0,0,0,7.645,0l28.855-16.661a7.638,7.638,0,0,0,3.822-6.615V310.285a7.643,7.643,0,0,0-3.822-6.619l-28.855-16.661a7.655,7.655,0,0,0-7.645,0l-28.855,16.661A7.647,7.647,0,0,0-1076.453,310.285Z" transform="translate(1085.45 -279.98)" fill="#022644"/>
        </g>
      </g>
    </g>
    <g id="Grupo_646" data-name="Grupo 646" transform="translate(20.01 18.988)">
      <g id="Grupo_638" data-name="Grupo 638" transform="translate(0)">
        <path id="Trazado_78098" data-name="Trazado 78098" d="M17.5,341.3H5.035a3.625,3.625,0,0,1-3.622-3.622V300.186a3.625,3.625,0,0,1,3.622-3.621H26.224l9.695,9.695v12.031a1.278,1.278,0,1,1-2.556,0V307.318l-8.2-8.2H5.035a1.067,1.067,0,0,0-1.066,1.065v37.488a1.067,1.067,0,0,0,1.066,1.066H17.5a1.278,1.278,0,0,1,0,2.556Z" transform="translate(-1.413 -296.565)" fill="#afd625"/>
      </g>
      <g id="Grupo_639" data-name="Grupo 639" transform="translate(22.365 1.279)">
        <path id="Trazado_78099" data-name="Trazado 78099" d="M29.776,307.789H18.913V297.565h2.556v7.668h8.307Z" transform="translate(-18.913 -297.565)" fill="#afd625"/>
      </g>
      <g id="Grupo_640" data-name="Grupo 640" transform="translate(14.808 22.282)">
        <path id="Trazado_78100" data-name="Trazado 78100" d="M25.141,338.282a12.141,12.141,0,1,1,12.141-12.141A12.155,12.155,0,0,1,25.141,338.282Zm0-21.726a9.585,9.585,0,1,0,9.585,9.585A9.6,9.6,0,0,0,25.141,316.556Z" transform="translate(-13 -314)" fill="#afd625"/>
      </g>
      <g id="Grupo_643" data-name="Grupo 643" transform="translate(23.191 28.428)">
        <g id="Grupo_642" data-name="Grupo 642">
          <g id="Grupo_641" data-name="Grupo 641">
            <path id="Trazado_78101" data-name="Trazado 78101" d="M27.375,327.349a2.47,2.47,0,0,1-.9,1.99,4.445,4.445,0,0,1-2.506.9v1.6H22.906v-1.564a8.668,8.668,0,0,1-3.332-.67v-2.055a9.034,9.034,0,0,0,1.631.592,8.691,8.691,0,0,0,1.7.3v-2.413l-.521-.2A5.833,5.833,0,0,1,20.2,324.5a2.538,2.538,0,0,1-.642-1.764,2.3,2.3,0,0,1,.883-1.857A4.5,4.5,0,0,1,22.906,320v-1.191h1.067v1.16a8.827,8.827,0,0,1,3.223.716l-.732,1.821a8.411,8.411,0,0,0-2.491-.607v2.3a12.024,12.024,0,0,1,2.16,1.012,2.946,2.946,0,0,1,.942.942A2.329,2.329,0,0,1,27.375,327.349ZM21.9,322.74a.739.739,0,0,0,.238.565,2.821,2.821,0,0,0,.767.455v-1.829Q21.9,322.079,21.9,322.74Zm3.13,4.726a.7.7,0,0,0-.265-.553,3.467,3.467,0,0,0-.794-.466v1.937Q25.031,328.206,25.031,327.466Z" transform="translate(-19.559 -318.809)" fill="#afd625"/>
          </g>
        </g>
      </g>
      <g id="Grupo_644" data-name="Grupo 644" transform="translate(7.14 14.614)">
        <rect id="Rect치ngulo_513" data-name="Rect치ngulo 513" width="21.726" height="2.556" fill="#afd625"/>
      </g>
      <g id="Grupo_645" data-name="Grupo 645" transform="translate(7.14 19.726)">
        <rect id="Rect치ngulo_514" data-name="Rect치ngulo 514" width="12.78" height="2.556" fill="#afd625"/>
      </g>
    </g>
  </g>
</svg>
