<svg xmlns="http://www.w3.org/2000/svg" xmlns:xlink="http://www.w3.org/1999/xlink" width="90.997" height="99.926" viewBox="0 0 90.997 99.926">
  <defs>
    <filter id="Trazado_47" x="0" y="0" width="90.997" height="99.926" filterUnits="userSpaceOnUse">
      <feOffset dy="3" input="SourceAlpha"/>
      <feGaussianBlur stdDeviation="3" result="blur"/>
      <feFlood flood-opacity="0.161"/>
      <feComposite operator="in" in2="blur"/>
      <feComposite in="SourceGraphic"/>
    </filter>
  </defs>
  <g id="Grupo_717" data-name="Grupo 717" transform="translate(9 6)">
    <g id="Grupo_614" data-name="Grupo 614" transform="translate(0 0)">
      <g id="Grupo_171" data-name="Grupo 171">
        <g transform="matrix(1, 0, 0, 1, -9, -6)" filter="url(#Trazado_47)">
          <path id="Trazado_47-2" data-name="Trazado 47" d="M-1076.453,310.285v33.322a7.642,7.642,0,0,0,3.819,6.615l28.855,16.661a7.638,7.638,0,0,0,7.645,0l28.855-16.661a7.638,7.638,0,0,0,3.822-6.615V310.285a7.643,7.643,0,0,0-3.822-6.619l-28.855-16.661a7.655,7.655,0,0,0-7.645,0l-28.855,16.661A7.647,7.647,0,0,0-1076.453,310.285Z" transform="translate(1085.45 -279.98)" fill="#022644"/>
        </g>
      </g>
    </g>
    <g id="Grupo_707" data-name="Grupo 707" transform="translate(15.537 21.007)">
      <g id="Grupo_702" data-name="Grupo 702" transform="translate(2.011 12.349)">
        <g id="Grupo_701" data-name="Grupo 701">
          <g id="Grupo_700" data-name="Grupo 700">
            <path id="Trazado_78129" data-name="Trazado 78129" d="M167.642,165.739h-33.4a2.23,2.23,0,0,1-2.228-2.228v-24.6a.731.731,0,0,1,.731-.731h36.392a.731.731,0,0,1,.731.731v24.6A2.23,2.23,0,0,1,167.642,165.739Zm-34.164-26.1v23.874a.777.777,0,0,0,.766.766h33.4a.777.777,0,0,0,.766-.766V139.638Zm23.546,10.946H144.862a2.23,2.23,0,0,1-2.228-2.228v-3.04a2.23,2.23,0,0,1,2.228-2.228h12.162a2.23,2.23,0,0,1,2.228,2.228v3.04A2.23,2.23,0,0,1,157.024,150.583Zm-12.162-6.034a.777.777,0,0,0-.766.766v3.04a.777.777,0,0,0,.766.766h12.162a.777.777,0,0,0,.766-.766v-3.04a.777.777,0,0,0-.766-.766Z" transform="translate(-132.016 -138.176)" fill="#0a3b64"/>
          </g>
        </g>
      </g>
      <g id="Grupo_705" data-name="Grupo 705" transform="translate(0 0)">
        <g id="Grupo_704" data-name="Grupo 704">
          <g id="Grupo_703" data-name="Grupo 703">
            <path id="Trazado_78130" data-name="Trazado 78130" d="M151.193,14.807H110.731a.731.731,0,0,1-.731-.731V5.236a2.23,2.23,0,0,1,2.228-2.228h37.421a2.293,2.293,0,0,1,2.273,2.234c0,.014,0,.027,0,.041v8.794A.731.731,0,0,1,151.193,14.807Zm-39.731-1.462h39V5.305a.833.833,0,0,0-.813-.836H112.228a.777.777,0,0,0-.766.766Z" transform="translate(-110 -3.008)" fill="#0a3b64"/>
          </g>
        </g>
      </g>
    </g>
  </g>
</svg>
