<svg xmlns="http://www.w3.org/2000/svg" xmlns:xlink="http://www.w3.org/1999/xlink" width="90.997" height="99.926" viewBox="0 0 90.997 99.926">
  <defs>
    <filter id="Trazado_47" x="0" y="0" width="90.997" height="99.926" filterUnits="userSpaceOnUse">
      <feOffset dy="3" input="SourceAlpha"/>
      <feGaussianBlur stdDeviation="3" result="blur"/>
      <feFlood flood-opacity="0.161"/>
      <feComposite operator="in" in2="blur"/>
      <feComposite in="SourceGraphic"/>
    </filter>
  </defs>
  <g id="Grupo_726" data-name="Grupo 726" transform="translate(9 6)">
    <g id="Grupo_614" data-name="Grupo 614" transform="translate(0)">
      <g id="Grupo_171" data-name="Grupo 171">
        <g transform="matrix(1, 0, 0, 1, -9, -6)" filter="url(#Trazado_47)">
          <path id="Trazado_47-2" data-name="Trazado 47" d="M-1076.453,310.285v33.322a7.642,7.642,0,0,0,3.819,6.615l28.855,16.661a7.638,7.638,0,0,0,7.645,0l28.855-16.661a7.638,7.638,0,0,0,3.822-6.615V310.285a7.643,7.643,0,0,0-3.822-6.619l-28.855-16.661a7.655,7.655,0,0,0-7.645,0l-28.855,16.661A7.647,7.647,0,0,0-1076.453,310.285Z" transform="translate(1085.45 -279.98)" fill="#022644"/>
        </g>
      </g>
    </g>
    <g id="Grupo_656" data-name="Grupo 656" transform="translate(19.96 19.699)">
      <g id="Grupo_655" data-name="Grupo 655" transform="translate(0)">
        <g id="Grupo_649" data-name="Grupo 649" transform="translate(8.2 5.724)">
          <g id="Grupo_648" data-name="Grupo 648">
            <g id="Grupo_647" data-name="Grupo 647">
              <path id="Trazado_78102" data-name="Trazado 78102" d="M102.449,348.405a3.254,3.254,0,0,1-1.179,2.62,5.86,5.86,0,0,1-3.3,1.183v2.1h-1.4v-2.061a11.436,11.436,0,0,1-4.389-.882v-2.707a11.8,11.8,0,0,0,2.148.779,11.486,11.486,0,0,0,2.241.4v-3.178l-.687-.267A7.67,7.67,0,0,1,93,344.658a3.337,3.337,0,0,1-.845-2.323,3.029,3.029,0,0,1,1.163-2.445,5.912,5.912,0,0,1,3.246-1.164v-1.57h1.4v1.528a11.648,11.648,0,0,1,4.245.944l-.964,2.4a11.037,11.037,0,0,0-3.281-.8v3.025a15.773,15.773,0,0,1,2.845,1.333,3.881,3.881,0,0,1,1.241,1.241A3.067,3.067,0,0,1,102.449,348.405Zm-7.208-6.07a.974.974,0,0,0,.312.744,3.745,3.745,0,0,0,1.01.6v-2.41Q95.241,341.464,95.241,342.335Zm4.121,6.224a.922.922,0,0,0-.349-.728,4.557,4.557,0,0,0-1.046-.615v2.554Q99.363,349.534,99.362,348.559Z" transform="translate(-92.155 -337.157)" fill="#afd625"/>
            </g>
          </g>
        </g>
        <g id="Grupo_650" data-name="Grupo 650" transform="translate(6.172 26.78)">
          <rect id="Rect치ngulo_515" data-name="Rect치ngulo 515" width="22.107" height="2.601" fill="#afd625"/>
        </g>
        <g id="Grupo_651" data-name="Grupo 651" transform="translate(6.172 31.982)">
          <rect id="Rect치ngulo_516" data-name="Rect치ngulo 516" width="22.107" height="2.601" fill="#afd625"/>
        </g>
        <g id="Grupo_652" data-name="Grupo 652" transform="translate(0.001)">
          <path id="Trazado_78103" data-name="Trazado 78103" d="M119.661,372.539a1.3,1.3,0,0,1-1.3-1.3V343.7l-8.341-8.341H89.534a1.085,1.085,0,0,0-1.083,1.083v34.8a1.3,1.3,0,0,1-2.6,0v-34.8a3.687,3.687,0,0,1,3.684-3.684H111.1l9.865,9.865v28.619A1.3,1.3,0,0,1,119.661,372.539Z" transform="translate(-85.85 -332.755)" fill="#afd625"/>
        </g>
        <g id="Grupo_653" data-name="Grupo 653" transform="translate(23.077 2.072)">
          <path id="Trazado_78104" data-name="Trazado 78104" d="M114.649,344.752H103.6v-10.4h2.6v7.8h8.453Z" transform="translate(-103.596 -334.349)" fill="#afd625"/>
        </g>
        <g id="Grupo_654" data-name="Grupo 654" transform="translate(0 37.041)">
          <path id="Trazado_78105" data-name="Trazado 78105" d="M92.565,366.725l-5.978-2.871a1.3,1.3,0,1,1,1.125-2.345l4.853,2.33,5.414-2.6,5.415,2.6,5.42-2.6,5.423,2.6,4.861-2.33a1.3,1.3,0,1,1,1.125,2.345l-5.986,2.871-5.423-2.6-5.42,2.6-5.415-2.6Z" transform="translate(-85.849 -361.239)" fill="#afd625"/>
        </g>
      </g>
    </g>
  </g>
</svg>
