<svg xmlns="http://www.w3.org/2000/svg" xmlns:xlink="http://www.w3.org/1999/xlink" width="90.997" height="99.926" viewBox="0 0 90.997 99.926">
  <defs>
    <filter id="Trazado_47" x="0" y="0" width="90.997" height="99.926" filterUnits="userSpaceOnUse">
      <feOffset dy="3" input="SourceAlpha"/>
      <feGaussianBlur stdDeviation="3" result="blur"/>
      <feFlood flood-opacity="0.161"/>
      <feComposite operator="in" in2="blur"/>
      <feComposite in="SourceGraphic"/>
    </filter>
  </defs>
  <g id="Componente_45_1" data-name="Componente 45 – 1" transform="translate(9 6)">
    <g id="Grupo_588" data-name="Grupo 588" transform="translate(0)">
      <g transform="matrix(1, 0, 0, 1, -9, -6)" filter="url(#Trazado_47)">
        <path id="Trazado_47-2" data-name="Trazado 47" d="M-1076.453,310.285v33.322a7.642,7.642,0,0,0,3.819,6.615l28.855,16.661a7.638,7.638,0,0,0,7.645,0l28.855-16.661a7.637,7.637,0,0,0,3.822-6.615V310.285a7.643,7.643,0,0,0-3.822-6.619l-28.855-16.661a7.655,7.655,0,0,0-7.645,0l-28.855,16.661A7.647,7.647,0,0,0-1076.453,310.285Z" transform="translate(1085.45 -279.98)" fill="#022644"/>
      </g>
    </g>
    <g id="Grupo_613" data-name="Grupo 613" transform="translate(-108.678 -127.732)">
      <g id="Grupo_605" data-name="Grupo 605" transform="translate(125.468 145.945)">
        <path id="Trazado_78058" data-name="Trazado 78058" d="M165.768,191.445H129.151a3.686,3.686,0,0,1-3.683-3.683V149.629a3.688,3.688,0,0,1,3.683-3.684h21.555l9.862,9.862v12.238a1.3,1.3,0,1,1-2.6,0V156.883l-8.338-8.338H129.151a1.085,1.085,0,0,0-1.083,1.084v38.133a1.085,1.085,0,0,0,1.083,1.083h36.617a1.3,1.3,0,0,1,0,2.6Z" transform="translate(-125.468 -145.945)" fill="#0a3b64"/>
      </g>
      <g id="Grupo_608" data-name="Grupo 608" transform="translate(132.14 156.826)">
        <g id="Grupo_606" data-name="Grupo 606" transform="translate(0 2.289)">
          <path id="Trazado_78059" data-name="Trazado 78059" d="M139.513,173.934a9.194,9.194,0,0,1-1.893-.2,8.934,8.934,0,0,1,1.908-17.662v2.6a6.309,6.309,0,0,0-4.915,2.34,6.4,6.4,0,0,0-1.273,5.368,6.293,6.293,0,0,0,4.81,4.81,6.4,6.4,0,0,0,5.368-1.273,6.309,6.309,0,0,0,2.34-4.915h2.6a8.926,8.926,0,0,1-8.945,8.928Z" transform="translate(-130.6 -156.076)" fill="#0a3b64"/>
        </g>
        <g id="Grupo_607" data-name="Grupo 607" transform="translate(7.628)">
          <path id="Trazado_78060" data-name="Trazado 78060" d="M148.987,166.834H136.468V154.315h1.3a11.232,11.232,0,0,1,11.219,11.219Zm-9.919-2.6h7.22a8.637,8.637,0,0,0-7.22-7.22Z" transform="translate(-136.468 -154.315)" fill="#0a3b64"/>
        </g>
      </g>
      <g id="Grupo_609" data-name="Grupo 609" transform="translate(148.218 147.245)">
        <path id="Trazado_78061" data-name="Trazado 78061" d="M154.018,157.345h-11.05v-10.4h2.6v7.8h8.45Z" transform="translate(-142.968 -146.945)" fill="#0a3b64"/>
      </g>
      <g id="Grupo_610" data-name="Grupo 610" transform="translate(138.468 181.045)">
        <path id="Trazado_78062" data-name="Trazado 78062" d="M140.862,183.345h-2.99a2.407,2.407,0,0,1-2.4-2.4v-5.59a2.408,2.408,0,0,1,2.4-2.406h2.99a2.408,2.408,0,0,1,2.406,2.406v5.59A2.408,2.408,0,0,1,140.862,183.345Zm-2.794-2.6h2.6v-5.2h-2.6Z" transform="translate(-135.468 -172.945)" fill="#0a3b64"/>
      </g>
      <g id="Grupo_611" data-name="Grupo 611" transform="translate(147.134 175.845)">
        <path id="Trazado_78063" data-name="Trazado 78063" d="M147.529,184.545h-2.99a2.408,2.408,0,0,1-2.4-2.4v-10.79a2.408,2.408,0,0,1,2.4-2.406h2.99a2.408,2.408,0,0,1,2.405,2.406v10.79A2.408,2.408,0,0,1,147.529,184.545Zm-2.795-2.6h2.6v-10.4h-2.6Z" transform="translate(-142.134 -168.945)" fill="#0a3b64"/>
      </g>
      <g id="Grupo_612" data-name="Grupo 612" transform="translate(155.801 170.645)">
        <path id="Trazado_78064" data-name="Trazado 78064" d="M154.2,185.745H151.2a2.407,2.407,0,0,1-2.4-2.4v-15.99a2.408,2.408,0,0,1,2.4-2.406H154.2a2.408,2.408,0,0,1,2.4,2.406v15.99A2.408,2.408,0,0,1,154.2,185.745Zm-2.8-2.6H154v-15.6h-2.6Z" transform="translate(-148.801 -164.945)" fill="#0a3b64"/>
      </g>
    </g>
  </g>
</svg>
