<svg xmlns="http://www.w3.org/2000/svg" xmlns:xlink="http://www.w3.org/1999/xlink" width="90.997" height="99.926" viewBox="0 0 90.997 99.926">
  <defs>
    <filter id="Trazado_47" x="0" y="0" width="90.997" height="99.926" filterUnits="userSpaceOnUse">
      <feOffset dy="3" input="SourceAlpha"/>
      <feGaussianBlur stdDeviation="3" result="blur"/>
      <feFlood flood-opacity="0.161"/>
      <feComposite operator="in" in2="blur"/>
      <feComposite in="SourceGraphic"/>
    </filter>
  </defs>
  <g id="Grupo_722" data-name="Grupo 722" transform="translate(9 6)">
    <g id="Grupo_614" data-name="Grupo 614" transform="translate(0 0)">
      <g id="Grupo_171" data-name="Grupo 171">
        <g transform="matrix(1, 0, 0, 1, -9, -6)" filter="url(#Trazado_47)">
          <path id="Trazado_47-2" data-name="Trazado 47" d="M-1076.453,310.285v33.322a7.642,7.642,0,0,0,3.819,6.615l28.855,16.661a7.638,7.638,0,0,0,7.645,0l28.855-16.661a7.638,7.638,0,0,0,3.822-6.615V310.285a7.643,7.643,0,0,0-3.822-6.619l-28.855-16.661a7.655,7.655,0,0,0-7.645,0l-28.855,16.661A7.647,7.647,0,0,0-1076.453,310.285Z" transform="translate(1085.45 -279.98)" fill="#022644"/>
        </g>
      </g>
    </g>
    <path id="Trazado_78131" data-name="Trazado 78131" d="M2516.13,209.3h1.945v-3.891h-1.945a1.945,1.945,0,1,0,0,3.891Zm-3.243,1.3h-3.242a1.945,1.945,0,1,0,0,3.891h3.242Zm32.189,16.8h-3.566v-.677a1.6,1.6,0,0,0,1.3-1.57v-.695a1.6,1.6,0,0,0-1.6-1.6h-1.968v-8.369h.233V212.54h1.946v-1.908h1.945v-1.983h-1.945V206.7h-2.594v-1.3h-20.093v4.539h-5.2v5.188l-3.242.006v1.291c0,.648,3.891,1.3,3.891,3.891s-1.945,9.078-1.945,9.078-.649,5.836,3.891,5.836,4.088-3.891,4.088-6.16a3.236,3.236,0,0,1,2.4-2.918v-1.3c-1.945,0-3.242-2.594-3.242-5.836a8.113,8.113,0,0,1,1.787-5.188h2.526a31.118,31.118,0,0,0-.422,4.539c0,2.594,1.945,5.836,2.594,5.836h.892l-.243-.648a8.97,8.97,0,0,1-1.3-4.539,12.731,12.731,0,0,1,1.589-5.188h4.7a.636.636,0,0,0-.04.2v8.818h-1.969a1.6,1.6,0,0,0-1.6,1.6v.695a1.6,1.6,0,0,0,1.3,1.57v.677h-3.567a.648.648,0,0,0-.648.648v17a1.808,1.808,0,0,0,1.806,1.807h17.138a1.808,1.808,0,0,0,1.806-1.807v-17A.648.648,0,0,0,2545.077,227.393Zm-12.321-12.709h5.188V223.3h-5.188Zm11.672,30.356a.51.51,0,0,1-.509.51h-17.138a.51.51,0,0,1-.509-.51V228.69h3.566a.648.648,0,0,0,.648-.648V226.1a.64.64,0,0,0-.041-.2h9.808a.646.646,0,0,0-.041.2v1.945a.648.648,0,0,0,.648.648h3.567Z" transform="translate(-2493.142 -182.083)" fill="#afd625"/>
  </g>
</svg>
