<svg xmlns="http://www.w3.org/2000/svg" xmlns:xlink="http://www.w3.org/1999/xlink" width="40" height="40.18" viewBox="0 0 40 40.18">
  <defs>
    <clipPath id="clip-path">
      <rect id="Rectángulo_586" data-name="Rectángulo 586" width="40" height="40.18" transform="translate(0 0)" fill="none"/>
    </clipPath>
  </defs>
  <g id="Grupo_1082" data-name="Grupo 1082" transform="translate(0 0)">
    <g id="Grupo_1081" data-name="Grupo 1081" transform="translate(0 0)" clip-path="url(#clip-path)">
      <path id="Trazado_78153" data-name="Trazado 78153" d="M34.172,5.839A19.918,19.918,0,0,0,2.826,29.862L0,40.18l10.558-2.769a19.908,19.908,0,0,0,9.517,2.424h.008a19.918,19.918,0,0,0,14.088-34M20.084,36.472h-.007a16.533,16.533,0,0,1-8.425-2.307l-.6-.359L4.782,35.45l1.672-6.107-.393-.626a16.555,16.555,0,1,1,14.023,7.755m9.08-12.394c-.5-.249-2.944-1.453-3.4-1.619s-.788-.249-1.12.249-1.286,1.619-1.576,1.951-.58.373-1.078.125a13.585,13.585,0,0,1-4-2.469,15,15,0,0,1-2.768-3.446c-.291-.5-.031-.767.218-1.015.224-.223.5-.581.747-.872a3.385,3.385,0,0,0,.5-.83.915.915,0,0,0-.041-.872c-.124-.249-1.12-2.7-1.534-3.693-.4-.97-.814-.839-1.12-.854-.29-.014-.622-.018-.953-.018a1.827,1.827,0,0,0-1.327.623,5.577,5.577,0,0,0-1.742,4.15A9.675,9.675,0,0,0,12,20.633c.249.332,3.509,5.357,8.5,7.512a28.911,28.911,0,0,0,2.837,1.048,6.821,6.821,0,0,0,3.135.2c.956-.143,2.944-1.2,3.359-2.366a4.153,4.153,0,0,0,.29-2.366c-.124-.207-.456-.332-.953-.581" transform="translate(0 0)" fill="#fff" fill-rule="evenodd"/>
    </g>
  </g>
</svg>
